%TF.GenerationSoftware,KiCad,Pcbnew,10.0.1*%
%TF.CreationDate,2026-05-07T12:12:56+02:00*%
%TF.ProjectId,GPIBTap,47504942-5461-4702-9e6b-696361645f70,2*%
%TF.SameCoordinates,Original*%
%TF.FileFunction,Copper,L2,Bot*%
%TF.FilePolarity,Positive*%
%FSLAX46Y46*%
G04 Gerber Fmt 4.6, Leading zero omitted, Abs format (unit mm)*
G04 Created by KiCad (PCBNEW 10.0.1) date 2026-05-07 12:12:56*
%MOMM*%
%LPD*%
G01*
G04 APERTURE LIST*
%TA.AperFunction,ComponentPad*%
%ADD10R,1.700000X1.700000*%
%TD*%
%TA.AperFunction,ComponentPad*%
%ADD11C,1.700000*%
%TD*%
%TA.AperFunction,ComponentPad*%
%ADD12C,1.498600*%
%TD*%
%TA.AperFunction,ComponentPad*%
%ADD13C,4.439994*%
%TD*%
%TA.AperFunction,ViaPad*%
%ADD14C,0.600000*%
%TD*%
%TA.AperFunction,Conductor*%
%ADD15C,0.200000*%
%TD*%
G04 APERTURE END LIST*
D10*
%TO.P,TP31,1,1_1*%
%TO.N,/DIO7*%
X159766000Y-89916000D03*
%TD*%
%TO.P,TP27,1,1_1*%
%TO.N,/DIO3*%
X159766000Y-87376000D03*
%TD*%
%TO.P,J8,1,Pin_1_1*%
%TO.N,/NDAC*%
X147066000Y-87376000D03*
D11*
%TO.P,J8,2,Pin_2_2*%
%TO.N,/NDACGND*%
X147066000Y-89916000D03*
%TD*%
D10*
%TO.P,TP11,1,1_1*%
%TO.N,/EOI*%
X154686000Y-79502000D03*
%TD*%
%TO.P,TP30,1,1_1*%
%TO.N,/DIO6*%
X162306000Y-89916000D03*
%TD*%
%TO.P,TP2,1,1_1*%
%TO.N,GND*%
X136906000Y-89916000D03*
%TD*%
%TO.P,TP6,1,1_1*%
%TO.N,/DIO4*%
X157226000Y-79502000D03*
%TD*%
%TO.P,TP36,1,1_1*%
%TO.N,GND*%
X136906000Y-97790000D03*
%TD*%
%TO.P,TP33,1,1_1*%
%TO.N,/EOI*%
X154686000Y-87376000D03*
%TD*%
%TO.P,TP29,1,1_1*%
%TO.N,/DIO5*%
X164846000Y-89916000D03*
%TD*%
%TO.P,TP9,1,1_1*%
%TO.N,/DIO7*%
X159766000Y-97790000D03*
%TD*%
%TO.P,TP26,1,1_1*%
%TO.N,/DIO2*%
X162306000Y-87376000D03*
%TD*%
%TO.P,TP3,1,1_1*%
%TO.N,/DIO1*%
X164846000Y-79502000D03*
%TD*%
%TO.P,J9,1,Pin_1_1*%
%TO.N,/IFC*%
X144526000Y-87376000D03*
D11*
%TO.P,J9,2,Pin_2_2*%
%TO.N,/IFCGND*%
X144526000Y-89916000D03*
%TD*%
D10*
%TO.P,J11,1,Pin_1_1*%
%TO.N,/ATN*%
X139446000Y-87376000D03*
D11*
%TO.P,J11,2,Pin_2_2*%
%TO.N,/ATNGND*%
X139446000Y-89916000D03*
%TD*%
D10*
%TO.P,TP32,1,1_1*%
%TO.N,/DIO8*%
X157226000Y-89916000D03*
%TD*%
%TO.P,J7,1,Pin_1_1*%
%TO.N,/NFRD*%
X149606000Y-87376000D03*
D11*
%TO.P,J7,2,Pin_2_2*%
%TO.N,/NRFDGND*%
X149606000Y-89916000D03*
%TD*%
D10*
%TO.P,TP25,1,1_1*%
%TO.N,/DIO1*%
X164846000Y-87376000D03*
%TD*%
%TO.P,TP18,1,1_1*%
%TO.N,/NDACGND*%
X147066000Y-97790000D03*
%TD*%
%TO.P,TP5,1,1_1*%
%TO.N,/DIO3*%
X159766000Y-79502000D03*
%TD*%
%TO.P,J10,1,Pin_1_1*%
%TO.N,/SRQ*%
X141986000Y-87376000D03*
D11*
%TO.P,J10,2,Pin_2_2*%
%TO.N,/SRQGND*%
X141986000Y-89916000D03*
%TD*%
D10*
%TO.P,TP7,1,1_1*%
%TO.N,/DIO5*%
X164846000Y-97790000D03*
%TD*%
%TO.P,TP23,1,1_1*%
%TO.N,/ATN*%
X139446000Y-79502000D03*
%TD*%
%TO.P,TP22,1,1_1*%
%TO.N,/SRQGND*%
X141986000Y-97790000D03*
%TD*%
%TO.P,TP16,1,1_1*%
%TO.N,/NRFDGND*%
X149606000Y-97790000D03*
%TD*%
%TO.P,TP15,1,1_1*%
%TO.N,/NFRD*%
X149606000Y-79502000D03*
%TD*%
%TO.P,TP13,1,1_1*%
%TO.N,/DAV*%
X152146000Y-79502000D03*
%TD*%
%TO.P,TP24,1,1_1*%
%TO.N,/ATNGND*%
X139446000Y-97790000D03*
%TD*%
%TO.P,TP19,1,1_1*%
%TO.N,/IFC*%
X144526000Y-79502000D03*
%TD*%
%TO.P,TP4,1,1_1*%
%TO.N,/DIO2*%
X162306000Y-79502000D03*
%TD*%
%TO.P,TP20,1,1_1*%
%TO.N,/IFCGND*%
X144526000Y-97790000D03*
%TD*%
%TO.P,TP28,1,1_1*%
%TO.N,/DIO4*%
X157226000Y-87376000D03*
%TD*%
%TO.P,J3,1,Pin_1_1*%
%TO.N,GND*%
X130302000Y-98552000D03*
D11*
%TO.P,J3,2,Pin_2_2*%
%TO.N,+5V*%
X127762000Y-98552000D03*
%TD*%
D10*
%TO.P,TP34,1,1_1*%
%TO.N,/REN*%
X154686000Y-89916000D03*
%TD*%
%TO.P,TP14,1,1_1*%
%TO.N,/DAVGND*%
X152146000Y-97790000D03*
%TD*%
%TO.P,TP35,1,1_1*%
%TO.N,/SHIELD*%
X136906000Y-79502000D03*
%TD*%
%TO.P,TP1,1,1_1*%
%TO.N,/SHIELD*%
X136906000Y-87376000D03*
%TD*%
%TO.P,TP10,1,1_1*%
%TO.N,/DIO8*%
X157226000Y-97790000D03*
%TD*%
%TO.P,TP12,1,1_1*%
%TO.N,/REN*%
X154686000Y-97790000D03*
%TD*%
D12*
%TO.P,J2,1,Pin_1_1*%
%TO.N,/DIO1*%
X162694000Y-73152000D03*
%TO.P,J2,2,Pin_2_2*%
%TO.N,/DIO2*%
X160534002Y-73152000D03*
%TO.P,J2,3,Pin_3_3*%
%TO.N,/DIO3*%
X158374001Y-73152000D03*
%TO.P,J2,4,Pin_4_4*%
%TO.N,/DIO4*%
X156214000Y-73152000D03*
%TO.P,J2,5,Pin_5_5*%
%TO.N,/EOI*%
X154054002Y-73152000D03*
%TO.P,J2,6,Pin_6_6*%
%TO.N,/DAV*%
X151894001Y-73152000D03*
%TO.P,J2,7,Pin_7_7*%
%TO.N,/NFRD*%
X149734001Y-73152000D03*
%TO.P,J2,8,Pin_8_8*%
%TO.N,/NDAC*%
X147574000Y-73152000D03*
%TO.P,J2,9,Pin_9_9*%
%TO.N,/IFC*%
X145414002Y-73152000D03*
%TO.P,J2,10,Pin_10_10*%
%TO.N,/SRQ*%
X143254001Y-73152000D03*
%TO.P,J2,11,Pin_11_11*%
%TO.N,/ATN*%
X141094000Y-73152000D03*
%TO.P,J2,12,Pin_12_12*%
%TO.N,/SHIELD*%
X138934002Y-73152000D03*
%TO.P,J2,13,Pin_13_13*%
%TO.N,/DIO5*%
X162694000Y-68862001D03*
%TO.P,J2,14,Pin_14_14*%
%TO.N,/DIO6*%
X160534002Y-68862001D03*
%TO.P,J2,15,Pin_15_15*%
%TO.N,/DIO7*%
X158374001Y-68862001D03*
%TO.P,J2,16,Pin_16_16*%
%TO.N,/DIO8*%
X156214000Y-68862001D03*
%TO.P,J2,17,Pin_17_17*%
%TO.N,/REN*%
X154054002Y-68862001D03*
%TO.P,J2,18,Pin_18_18*%
%TO.N,/DAVGND*%
X151894001Y-68862001D03*
%TO.P,J2,19,Pin_19_19*%
%TO.N,/NRFDGND*%
X149734001Y-68862001D03*
%TO.P,J2,20,Pin_20_20*%
%TO.N,/NDACGND*%
X147574000Y-68862001D03*
%TO.P,J2,21,Pin_21_21*%
%TO.N,/IFCGND*%
X145414002Y-68862001D03*
%TO.P,J2,22,Pin_22_22*%
%TO.N,/SRQGND*%
X143254001Y-68862001D03*
%TO.P,J2,23,Pin_23_23*%
%TO.N,/ATNGND*%
X141094000Y-68862001D03*
%TO.P,J2,24,Pin_24_24*%
%TO.N,GND*%
X138934002Y-68862001D03*
D13*
%TO.P,J2,SH,Shield_SH*%
%TO.N,/SHIELD*%
X174214005Y-71007001D03*
X127413997Y-71007001D03*
%TD*%
D10*
%TO.P,TP21,1,1_1*%
%TO.N,/SRQ*%
X141986000Y-79502000D03*
%TD*%
%TO.P,J6,1,Pin_1_1*%
%TO.N,/DAV*%
X152146000Y-87376000D03*
D11*
%TO.P,J6,2,Pin_2_2*%
%TO.N,/DAVGND*%
X152146000Y-89916000D03*
%TD*%
D12*
%TO.P,J1,1,Pin_1_1*%
%TO.N,/DIO1*%
X162694000Y-104140000D03*
%TO.P,J1,2,Pin_2_2*%
%TO.N,/DIO2*%
X160534002Y-104140000D03*
%TO.P,J1,3,Pin_3_3*%
%TO.N,/DIO3*%
X158374001Y-104140000D03*
%TO.P,J1,4,Pin_4_4*%
%TO.N,/DIO4*%
X156214000Y-104140000D03*
%TO.P,J1,5,Pin_5_5*%
%TO.N,/EOI*%
X154054002Y-104140000D03*
%TO.P,J1,6,Pin_6_6*%
%TO.N,/DAV*%
X151894001Y-104140000D03*
%TO.P,J1,7,Pin_7_7*%
%TO.N,/NFRD*%
X149734001Y-104140000D03*
%TO.P,J1,8,Pin_8_8*%
%TO.N,/NDAC*%
X147574000Y-104140000D03*
%TO.P,J1,9,Pin_9_9*%
%TO.N,/IFC*%
X145414002Y-104140000D03*
%TO.P,J1,10,Pin_10_10*%
%TO.N,/SRQ*%
X143254001Y-104140000D03*
%TO.P,J1,11,Pin_11_11*%
%TO.N,/ATN*%
X141094000Y-104140000D03*
%TO.P,J1,12,Pin_12_12*%
%TO.N,/SHIELD*%
X138934002Y-104140000D03*
%TO.P,J1,13,Pin_13_13*%
%TO.N,/DIO5*%
X162694000Y-108429999D03*
%TO.P,J1,14,Pin_14_14*%
%TO.N,/DIO6*%
X160534002Y-108429999D03*
%TO.P,J1,15,Pin_15_15*%
%TO.N,/DIO7*%
X158374001Y-108429999D03*
%TO.P,J1,16,Pin_16_16*%
%TO.N,/DIO8*%
X156214000Y-108429999D03*
%TO.P,J1,17,Pin_17_17*%
%TO.N,/REN*%
X154054002Y-108429999D03*
%TO.P,J1,18,Pin_18_18*%
%TO.N,/DAVGND*%
X151894001Y-108429999D03*
%TO.P,J1,19,Pin_19_19*%
%TO.N,/NRFDGND*%
X149734001Y-108429999D03*
%TO.P,J1,20,Pin_20_20*%
%TO.N,/NDACGND*%
X147574000Y-108429999D03*
%TO.P,J1,21,Pin_21_21*%
%TO.N,/IFCGND*%
X145414002Y-108429999D03*
%TO.P,J1,22,Pin_22_22*%
%TO.N,/SRQGND*%
X143254001Y-108429999D03*
%TO.P,J1,23,Pin_23_23*%
%TO.N,/ATNGND*%
X141094000Y-108429999D03*
%TO.P,J1,24,Pin_24_24*%
%TO.N,GND*%
X138934002Y-108429999D03*
D13*
%TO.P,J1,SH,Shield_SH*%
%TO.N,/SHIELD*%
X127413997Y-106284999D03*
X174214005Y-106284999D03*
%TD*%
D10*
%TO.P,TP17,1,1_1*%
%TO.N,/NDAC*%
X147066000Y-79502000D03*
%TD*%
%TO.P,TP8,1,1_1*%
%TO.N,/DIO6*%
X162306000Y-97790000D03*
%TD*%
D14*
%TO.N,+5V*%
X129032000Y-81183000D03*
%TD*%
%TO.N,/DIO7*%
D15*
X159483702Y-107320298D02*
X158374001Y-108429999D01*
X161036000Y-75184000D02*
X161036000Y-88078900D01*
X159424301Y-73572301D02*
X161036000Y-75184000D01*
X159766000Y-97790000D02*
X159483702Y-98072298D01*
X159424301Y-69912301D02*
X159424301Y-73572301D01*
X159424301Y-69912301D02*
X159424301Y-73587049D01*
X161036000Y-88078900D02*
X159766000Y-89348900D01*
X159766000Y-89348900D02*
X159766000Y-89916000D01*
X159766000Y-89916000D02*
X159766000Y-97790000D01*
X158374001Y-68862001D02*
X159424301Y-69912301D01*
X159483702Y-98072298D02*
X159483702Y-107320298D01*
%TO.N,/DIO3*%
X158374001Y-73152000D02*
X159766000Y-74543999D01*
X159766000Y-87376000D02*
X158615000Y-88527000D01*
X159766000Y-87376000D02*
X159766000Y-79502000D01*
X158615000Y-103899001D02*
X158374001Y-104140000D01*
X158615000Y-88527000D02*
X158615000Y-103899001D01*
X159766000Y-74543999D02*
X159766000Y-79502000D01*
%TO.N,/NDAC*%
X147574000Y-73152000D02*
X147574000Y-78994000D01*
X147574000Y-78994000D02*
X147066000Y-79502000D01*
X145915000Y-102481000D02*
X147574000Y-104140000D01*
X147066000Y-87376000D02*
X145915000Y-88527000D01*
X145915000Y-88527000D02*
X145915000Y-102481000D01*
X147066000Y-79502000D02*
X147066000Y-87376000D01*
%TO.N,/NDACGND*%
X147574000Y-68862001D02*
X148624300Y-69912301D01*
X148624300Y-69912301D02*
X148624300Y-78351000D01*
X147066000Y-97790000D02*
X147066000Y-89916000D01*
X148683701Y-107320298D02*
X147574000Y-108429999D01*
X147066000Y-97790000D02*
X147066000Y-102087250D01*
X148217000Y-88197900D02*
X147066000Y-89348900D01*
X148624300Y-78351000D02*
X148217000Y-78758300D01*
X148683701Y-103704951D02*
X148683701Y-107320298D01*
X147066000Y-102087250D02*
X148683701Y-103704951D01*
X147066000Y-89348900D02*
X147066000Y-89916000D01*
X148217000Y-78758300D02*
X148217000Y-88197900D01*
%TO.N,/EOI*%
X154054002Y-78870002D02*
X154686000Y-79502000D01*
X154686000Y-87376000D02*
X154686000Y-79502000D01*
X153535000Y-88527000D02*
X153535000Y-103620998D01*
X154686000Y-87376000D02*
X153535000Y-88527000D01*
X154054002Y-73152000D02*
X154054002Y-78870002D01*
X153535000Y-103620998D02*
X154054002Y-104140000D01*
%TO.N,/DIO6*%
X162306000Y-97790000D02*
X161643700Y-98452300D01*
X162306000Y-97790000D02*
X162306000Y-89916000D01*
X161643700Y-98452300D02*
X161643700Y-107320301D01*
X163457000Y-88765000D02*
X163457000Y-75400349D01*
X163457000Y-75400349D02*
X161584302Y-73527651D01*
X161643700Y-107320301D02*
X160534002Y-108429999D01*
X161584302Y-69912301D02*
X160534002Y-68862001D01*
X161584302Y-73527651D02*
X161584302Y-69912301D01*
X162306000Y-89916000D02*
X163457000Y-88765000D01*
%TO.N,GND*%
X139984302Y-103704951D02*
X139984302Y-105125698D01*
X136906000Y-89003760D02*
X136906000Y-89916000D01*
X136906000Y-97790000D02*
X136906000Y-100626649D01*
X136906000Y-100626649D02*
X139984302Y-103704951D01*
X138057000Y-75621900D02*
X138057000Y-87852760D01*
X139984302Y-105125698D02*
X138934002Y-106175998D01*
X138057000Y-87852760D02*
X136906000Y-89003760D01*
X139984302Y-69912301D02*
X139984302Y-73694598D01*
X138934002Y-68862001D02*
X139984302Y-69912301D01*
X138934002Y-106175998D02*
X138934002Y-108429999D01*
X136906000Y-97790000D02*
X136906000Y-89916000D01*
X139984302Y-73694598D02*
X138057000Y-75621900D01*
%TO.N,/DIO4*%
X157226000Y-78452000D02*
X157226000Y-79502000D01*
X157226000Y-79502000D02*
X157226000Y-87376000D01*
X155837000Y-103763000D02*
X156214000Y-104140000D01*
X155837000Y-88765000D02*
X155837000Y-103763000D01*
X157226000Y-87376000D02*
X155837000Y-88765000D01*
X156214000Y-73152000D02*
X156214000Y-77440000D01*
X156214000Y-77440000D02*
X157226000Y-78452000D01*
%TO.N,/DIO5*%
X164846000Y-97790000D02*
X164846000Y-106277999D01*
X164846000Y-89916000D02*
X164846000Y-97790000D01*
X165997000Y-72165001D02*
X162694000Y-68862001D01*
X164846000Y-106277999D02*
X162694000Y-108429999D01*
X164846000Y-89916000D02*
X165997000Y-88765000D01*
X165997000Y-88765000D02*
X165997000Y-72165001D01*
%TO.N,/DIO2*%
X162306000Y-79502000D02*
X162306000Y-87376000D01*
X160534002Y-73152000D02*
X162306000Y-74923998D01*
X161155000Y-103519002D02*
X160534002Y-104140000D01*
X162306000Y-87376000D02*
X161155000Y-88527000D01*
X162306000Y-74923998D02*
X162306000Y-79502000D01*
X161155000Y-88527000D02*
X161155000Y-103519002D01*
%TO.N,/DIO1*%
X164846000Y-87376000D02*
X164846000Y-79502000D01*
X164846000Y-75304000D02*
X164846000Y-79502000D01*
X162694000Y-73152000D02*
X164846000Y-75304000D01*
X163576000Y-89213100D02*
X163576000Y-103258000D01*
X163576000Y-103258000D02*
X162694000Y-104140000D01*
X164846000Y-87943100D02*
X163576000Y-89213100D01*
X164846000Y-87376000D02*
X164846000Y-87943100D01*
%TO.N,/IFC*%
X144526000Y-87376000D02*
X144526000Y-79502000D01*
X144526000Y-87376000D02*
X143375000Y-88527000D01*
X144526000Y-74040002D02*
X144526000Y-79502000D01*
X145414002Y-73152000D02*
X144526000Y-74040002D01*
X143375000Y-88527000D02*
X143375000Y-102100998D01*
X143375000Y-102100998D02*
X145414002Y-104140000D01*
%TO.N,/IFCGND*%
X145677000Y-78589000D02*
X145677000Y-88003000D01*
X144526000Y-89916000D02*
X144526000Y-97790000D01*
X146464302Y-69912301D02*
X146464302Y-77801698D01*
X146464302Y-107379699D02*
X145414002Y-108429999D01*
X146464302Y-103704951D02*
X146464302Y-107379699D01*
X144526000Y-101766649D02*
X146464302Y-103704951D01*
X146464302Y-77801698D02*
X145677000Y-78589000D01*
X145414002Y-68862001D02*
X146464302Y-69912301D01*
X145677000Y-88003000D02*
X144526000Y-89154000D01*
X144526000Y-89154000D02*
X144526000Y-89916000D01*
X144526000Y-97790000D02*
X144526000Y-101766649D01*
%TO.N,/ATN*%
X139446000Y-87376000D02*
X138295000Y-88527000D01*
X139446000Y-74800000D02*
X139446000Y-79502000D01*
X138295000Y-101341000D02*
X141094000Y-104140000D01*
X141094000Y-73152000D02*
X139446000Y-74800000D01*
X138295000Y-88527000D02*
X138295000Y-101341000D01*
X139446000Y-79502000D02*
X139446000Y-87376000D01*
%TO.N,/ATNGND*%
X142144300Y-69912301D02*
X142144300Y-73694601D01*
X140686450Y-88108450D02*
X139446000Y-89348900D01*
X140686450Y-75152451D02*
X140686450Y-88108450D01*
X142203701Y-107320298D02*
X141094000Y-108429999D01*
X139446000Y-89348900D02*
X139446000Y-89916000D01*
X139446000Y-97790000D02*
X139446000Y-100947250D01*
X139446000Y-100947250D02*
X142203701Y-103704951D01*
X142203701Y-103704951D02*
X142203701Y-107320298D01*
X141094000Y-68862001D02*
X142144300Y-69912301D01*
X139446000Y-89916000D02*
X139446000Y-97790000D01*
X142144300Y-73694601D02*
X140686450Y-75152451D01*
%TO.N,/DIO8*%
X157226000Y-97790000D02*
X157264300Y-97828300D01*
X157264300Y-107379699D02*
X156214000Y-108429999D01*
X157323701Y-77297701D02*
X158377000Y-78351000D01*
X156214000Y-68862001D02*
X157323701Y-69971702D01*
X157226000Y-97790000D02*
X157226000Y-89916000D01*
X157323701Y-69971702D02*
X157323701Y-77297701D01*
X157264300Y-97828300D02*
X157264300Y-107379699D01*
X157226000Y-89348900D02*
X157226000Y-89916000D01*
X158377000Y-78351000D02*
X158377000Y-88197900D01*
X158377000Y-88197900D02*
X157226000Y-89348900D01*
%TO.N,/NFRD*%
X149734001Y-73152000D02*
X149734001Y-79373999D01*
X149606000Y-87376000D02*
X149606000Y-79502000D01*
X149734001Y-79373999D02*
X149606000Y-79502000D01*
X148455000Y-102860999D02*
X149734001Y-104140000D01*
X149606000Y-87376000D02*
X148455000Y-88527000D01*
X148455000Y-88527000D02*
X148455000Y-102860999D01*
%TO.N,/NRFDGND*%
X149606000Y-89348900D02*
X149606000Y-89916000D01*
X150784301Y-107379699D02*
X149734001Y-108429999D01*
X149734001Y-68862001D02*
X150784301Y-69912301D01*
X149606000Y-89916000D02*
X149606000Y-97790000D01*
X150784301Y-88170599D02*
X149606000Y-89348900D01*
X150784301Y-69912301D02*
X150784301Y-88170599D01*
X149606000Y-102526650D02*
X150784301Y-103704951D01*
X150784301Y-103704951D02*
X150784301Y-107379699D01*
X149606000Y-97790000D02*
X149606000Y-102526650D01*
%TO.N,/REN*%
X155837000Y-88197900D02*
X154686000Y-89348900D01*
X155104302Y-98208302D02*
X155104302Y-107379699D01*
X155104302Y-77618302D02*
X155837000Y-78351000D01*
X154686000Y-89916000D02*
X154686000Y-97790000D01*
X154054002Y-68862001D02*
X155104302Y-69912301D01*
X155104302Y-107379699D02*
X154054002Y-108429999D01*
X155104302Y-69912301D02*
X155104302Y-77618302D01*
X154686000Y-89348900D02*
X154686000Y-89916000D01*
X154686000Y-97790000D02*
X155104302Y-98208302D01*
X155837000Y-78351000D02*
X155837000Y-88197900D01*
%TO.N,/SRQ*%
X141986000Y-87376000D02*
X140835000Y-88527000D01*
X143254001Y-73152000D02*
X141986000Y-74420001D01*
X141986000Y-74420001D02*
X141986000Y-79502000D01*
X141986000Y-79502000D02*
X141986000Y-87376000D01*
X140835000Y-101720999D02*
X143254001Y-104140000D01*
X140835000Y-88527000D02*
X140835000Y-101720999D01*
%TO.N,/SRQGND*%
X144304301Y-103704951D02*
X144304301Y-107379699D01*
X143137000Y-87852760D02*
X141986000Y-89003760D01*
X141986000Y-97790000D02*
X141986000Y-89916000D01*
X144304301Y-69912301D02*
X144304301Y-73694601D01*
X141986000Y-101386650D02*
X144304301Y-103704951D01*
X141986000Y-89003760D02*
X141986000Y-89916000D01*
X143254001Y-68862001D02*
X144304301Y-69912301D01*
X144304301Y-107379699D02*
X143254001Y-108429999D01*
X141986000Y-97790000D02*
X141986000Y-101386650D01*
X144304301Y-73694601D02*
X143137000Y-74861902D01*
X143137000Y-74861902D02*
X143137000Y-87852760D01*
%TO.N,/DAV*%
X151894001Y-73152000D02*
X151894001Y-79250001D01*
X152146000Y-87376000D02*
X150995000Y-88527000D01*
X150995000Y-88527000D02*
X150995000Y-103240999D01*
X151894001Y-79250001D02*
X152146000Y-79502000D01*
X150995000Y-103240999D02*
X151894001Y-104140000D01*
X152146000Y-79502000D02*
X152146000Y-87376000D01*
%TO.N,+5V*%
X129032000Y-97282000D02*
X129032000Y-81183000D01*
X127762000Y-98552000D02*
X129032000Y-97282000D01*
%TO.N,/DAVGND*%
X152944301Y-77998301D02*
X153416000Y-78470000D01*
X151894001Y-68862001D02*
X152944301Y-69912301D01*
X152944301Y-69912301D02*
X152944301Y-77998301D01*
X152146000Y-89348900D02*
X152146000Y-89916000D01*
X152146000Y-89916000D02*
X152146000Y-97790000D01*
X152146000Y-97790000D02*
X152944301Y-98588301D01*
X153416000Y-78470000D02*
X153416000Y-88078900D01*
X152944301Y-98588301D02*
X152944301Y-107379699D01*
X152944301Y-107379699D02*
X151894001Y-108429999D01*
X153416000Y-88078900D02*
X152146000Y-89348900D01*
%TD*%
%TA.AperFunction,Conductor*%
%TO.N,/SHIELD*%
G36*
X178636539Y-60448185D02*
G01*
X178682294Y-60500989D01*
X178693500Y-60552500D01*
X178693500Y-116737500D01*
X178673815Y-116804539D01*
X178621011Y-116850294D01*
X178569500Y-116861500D01*
X123156500Y-116861500D01*
X123089461Y-116841815D01*
X123043706Y-116789011D01*
X123032500Y-116737500D01*
X123032500Y-106132240D01*
X124694000Y-106132240D01*
X124694000Y-106437757D01*
X124728202Y-106741318D01*
X124728205Y-106741336D01*
X124796184Y-107039172D01*
X124796189Y-107039188D01*
X124897085Y-107327530D01*
X124897091Y-107327544D01*
X125029639Y-107602783D01*
X125192173Y-107861455D01*
X125321639Y-108023802D01*
X125877000Y-107468440D01*
X125938323Y-107434955D01*
X126008014Y-107439939D01*
X126054445Y-107471972D01*
X126054986Y-107471432D01*
X126227564Y-107644010D01*
X126226904Y-107644669D01*
X126262055Y-107700083D01*
X126261641Y-107769952D01*
X126230554Y-107821994D01*
X125675191Y-108377356D01*
X125837534Y-108506818D01*
X126096212Y-108669356D01*
X126371451Y-108801904D01*
X126371465Y-108801910D01*
X126659807Y-108902806D01*
X126659823Y-108902811D01*
X126957659Y-108970790D01*
X126957677Y-108970793D01*
X127261238Y-109004995D01*
X127261242Y-109004996D01*
X127566752Y-109004996D01*
X127566755Y-109004995D01*
X127870316Y-108970793D01*
X127870334Y-108970790D01*
X128168170Y-108902811D01*
X128168186Y-108902806D01*
X128456528Y-108801910D01*
X128456542Y-108801904D01*
X128731781Y-108669356D01*
X128990459Y-108506818D01*
X129152801Y-108377356D01*
X129152801Y-108377355D01*
X128597438Y-107821994D01*
X128563953Y-107760671D01*
X128568937Y-107690980D01*
X128600977Y-107644557D01*
X128600430Y-107644010D01*
X128773008Y-107471432D01*
X128773673Y-107472097D01*
X128829042Y-107436951D01*
X128898910Y-107437341D01*
X128950992Y-107468440D01*
X129506353Y-108023803D01*
X129506354Y-108023803D01*
X129635816Y-107861461D01*
X129798354Y-107602783D01*
X129930902Y-107327544D01*
X129930908Y-107327530D01*
X130031804Y-107039188D01*
X130031809Y-107039172D01*
X130099788Y-106741336D01*
X130099791Y-106741318D01*
X130133993Y-106437757D01*
X130133994Y-106437753D01*
X130133994Y-106132244D01*
X130133993Y-106132240D01*
X130099791Y-105828679D01*
X130099788Y-105828661D01*
X130031809Y-105530825D01*
X130031804Y-105530809D01*
X129930908Y-105242467D01*
X129930902Y-105242453D01*
X129798354Y-104967214D01*
X129635816Y-104708536D01*
X129506354Y-104546193D01*
X128950992Y-105101556D01*
X128889669Y-105135041D01*
X128819977Y-105130057D01*
X128773549Y-105098024D01*
X128773008Y-105098566D01*
X128600430Y-104925988D01*
X128601088Y-104925329D01*
X128565936Y-104869907D01*
X128566352Y-104800039D01*
X128597438Y-104748002D01*
X129152801Y-104192640D01*
X129078970Y-104133762D01*
X129078958Y-104133754D01*
X128990454Y-104063175D01*
X128731781Y-103900641D01*
X128456542Y-103768093D01*
X128456528Y-103768087D01*
X128168186Y-103667191D01*
X128168170Y-103667186D01*
X127870334Y-103599207D01*
X127870316Y-103599204D01*
X127566755Y-103565002D01*
X127261238Y-103565002D01*
X126957677Y-103599204D01*
X126957659Y-103599207D01*
X126659823Y-103667186D01*
X126659807Y-103667191D01*
X126371465Y-103768087D01*
X126371451Y-103768093D01*
X126096212Y-103900641D01*
X125837530Y-104063181D01*
X125837526Y-104063184D01*
X125675191Y-104192640D01*
X126230555Y-104748003D01*
X126264040Y-104809326D01*
X126259056Y-104879017D01*
X126227023Y-104925447D01*
X126227564Y-104925988D01*
X126054986Y-105098566D01*
X126054327Y-105097907D01*
X125998909Y-105133059D01*
X125929041Y-105132643D01*
X125877001Y-105101557D01*
X125321638Y-104546193D01*
X125192182Y-104708528D01*
X125192179Y-104708532D01*
X125029639Y-104967214D01*
X124897091Y-105242453D01*
X124897085Y-105242467D01*
X124796189Y-105530809D01*
X124796184Y-105530825D01*
X124728205Y-105828661D01*
X124728202Y-105828679D01*
X124694000Y-106132240D01*
X123032500Y-106132240D01*
X123032500Y-98445713D01*
X126411500Y-98445713D01*
X126411500Y-98658287D01*
X126444754Y-98868243D01*
X126486767Y-98997546D01*
X126510444Y-99070414D01*
X126606951Y-99259820D01*
X126731890Y-99431786D01*
X126882213Y-99582109D01*
X127054179Y-99707048D01*
X127054181Y-99707049D01*
X127054184Y-99707051D01*
X127243588Y-99803557D01*
X127445757Y-99869246D01*
X127655713Y-99902500D01*
X127655714Y-99902500D01*
X127868286Y-99902500D01*
X127868287Y-99902500D01*
X128078243Y-99869246D01*
X128280412Y-99803557D01*
X128469816Y-99707051D01*
X128641792Y-99582104D01*
X128755329Y-99468566D01*
X128816648Y-99435084D01*
X128886340Y-99440068D01*
X128942274Y-99481939D01*
X128959189Y-99512917D01*
X129008202Y-99644328D01*
X129008206Y-99644335D01*
X129094452Y-99759544D01*
X129094455Y-99759547D01*
X129209664Y-99845793D01*
X129209671Y-99845797D01*
X129344517Y-99896091D01*
X129344516Y-99896091D01*
X129351444Y-99896835D01*
X129404127Y-99902500D01*
X131199872Y-99902499D01*
X131259483Y-99896091D01*
X131394331Y-99845796D01*
X131509546Y-99759546D01*
X131595796Y-99644331D01*
X131646091Y-99509483D01*
X131652500Y-99449873D01*
X131652499Y-97654128D01*
X131646091Y-97594517D01*
X131595796Y-97459669D01*
X131595795Y-97459668D01*
X131595793Y-97459664D01*
X131509547Y-97344455D01*
X131509544Y-97344452D01*
X131394335Y-97258206D01*
X131394328Y-97258202D01*
X131259482Y-97207908D01*
X131259483Y-97207908D01*
X131199883Y-97201501D01*
X131199881Y-97201500D01*
X131199873Y-97201500D01*
X131199865Y-97201500D01*
X129756500Y-97201500D01*
X129689461Y-97181815D01*
X129643706Y-97129011D01*
X129632500Y-97077500D01*
X129632500Y-89018127D01*
X135555500Y-89018127D01*
X135555500Y-90813870D01*
X135555501Y-90813876D01*
X135561908Y-90873483D01*
X135612202Y-91008328D01*
X135612206Y-91008335D01*
X135698452Y-91123544D01*
X135698455Y-91123547D01*
X135813664Y-91209793D01*
X135813671Y-91209797D01*
X135858618Y-91226561D01*
X135948517Y-91260091D01*
X136008127Y-91266500D01*
X136181500Y-91266499D01*
X136248539Y-91286183D01*
X136294294Y-91338987D01*
X136305500Y-91390499D01*
X136305500Y-96315500D01*
X136285815Y-96382539D01*
X136233011Y-96428294D01*
X136181501Y-96439500D01*
X136008130Y-96439500D01*
X136008123Y-96439501D01*
X135948516Y-96445908D01*
X135813671Y-96496202D01*
X135813664Y-96496206D01*
X135698455Y-96582452D01*
X135698452Y-96582455D01*
X135612206Y-96697664D01*
X135612202Y-96697671D01*
X135561908Y-96832517D01*
X135555501Y-96892116D01*
X135555501Y-96892123D01*
X135555500Y-96892135D01*
X135555500Y-98687870D01*
X135555501Y-98687876D01*
X135561908Y-98747483D01*
X135612202Y-98882328D01*
X135612206Y-98882335D01*
X135698452Y-98997544D01*
X135698455Y-98997547D01*
X135813664Y-99083793D01*
X135813671Y-99083797D01*
X135858618Y-99100561D01*
X135948517Y-99134091D01*
X136008127Y-99140500D01*
X136181500Y-99140499D01*
X136248539Y-99160183D01*
X136294294Y-99212987D01*
X136305500Y-99264499D01*
X136305500Y-100539979D01*
X136305499Y-100539997D01*
X136305499Y-100705703D01*
X136305498Y-100705703D01*
X136305499Y-100705706D01*
X136346423Y-100858434D01*
X136373961Y-100906131D01*
X136373961Y-100906132D01*
X136425475Y-100995358D01*
X136425481Y-100995366D01*
X136544349Y-101114234D01*
X136544355Y-101114239D01*
X138305895Y-102875779D01*
X138339380Y-102937102D01*
X138334396Y-103006794D01*
X138292524Y-103062727D01*
X138283006Y-103069186D01*
X138279224Y-103071503D01*
X138244377Y-103096821D01*
X138244377Y-103096823D01*
X138808429Y-103660874D01*
X138742823Y-103678454D01*
X138629881Y-103743661D01*
X138537663Y-103835879D01*
X138472456Y-103948821D01*
X138454876Y-104014427D01*
X137890825Y-103450375D01*
X137890823Y-103450375D01*
X137865507Y-103485220D01*
X137776229Y-103660434D01*
X137776228Y-103660437D01*
X137715464Y-103847453D01*
X137684702Y-104041678D01*
X137684702Y-104238321D01*
X137715464Y-104432546D01*
X137776228Y-104619562D01*
X137776229Y-104619565D01*
X137865504Y-104794775D01*
X137890824Y-104829623D01*
X137890824Y-104829624D01*
X138454876Y-104265572D01*
X138472456Y-104331179D01*
X138537663Y-104444121D01*
X138629881Y-104536339D01*
X138742823Y-104601546D01*
X138808428Y-104619124D01*
X138244377Y-105183176D01*
X138244377Y-105183177D01*
X138279225Y-105208496D01*
X138454436Y-105297772D01*
X138454439Y-105297773D01*
X138645829Y-105359959D01*
X138648099Y-105361511D01*
X138650844Y-105361708D01*
X138676772Y-105381117D01*
X138703504Y-105399396D01*
X138704574Y-105401929D01*
X138706778Y-105403579D01*
X138718097Y-105433927D01*
X138730703Y-105463755D01*
X138730233Y-105466466D01*
X138731195Y-105469043D01*
X138724314Y-105500673D01*
X138718789Y-105532601D01*
X138716748Y-105535452D01*
X138716343Y-105537316D01*
X138695193Y-105565571D01*
X138565288Y-105695476D01*
X138565287Y-105695476D01*
X138565286Y-105695477D01*
X138453483Y-105807280D01*
X138453481Y-105807283D01*
X138403363Y-105894092D01*
X138403361Y-105894094D01*
X138374427Y-105944207D01*
X138374426Y-105944208D01*
X138374425Y-105944213D01*
X138333501Y-106096941D01*
X138333501Y-106096943D01*
X138333501Y-106265044D01*
X138333502Y-106265057D01*
X138333502Y-107258268D01*
X138313817Y-107325307D01*
X138282388Y-107358586D01*
X138278964Y-107361074D01*
X138119812Y-107476705D01*
X138119810Y-107476707D01*
X138119809Y-107476707D01*
X137980710Y-107615806D01*
X137980710Y-107615807D01*
X137980708Y-107615809D01*
X137959740Y-107644669D01*
X137865077Y-107774960D01*
X137775768Y-107950237D01*
X137714975Y-108137336D01*
X137684202Y-108331632D01*
X137684202Y-108528365D01*
X137714975Y-108722661D01*
X137775768Y-108909760D01*
X137824294Y-109004996D01*
X137865077Y-109085037D01*
X137980708Y-109244189D01*
X138119812Y-109383293D01*
X138278964Y-109498924D01*
X138361776Y-109541119D01*
X138454240Y-109588232D01*
X138454242Y-109588232D01*
X138454245Y-109588234D01*
X138554532Y-109620819D01*
X138641339Y-109649025D01*
X138835636Y-109679799D01*
X138835641Y-109679799D01*
X139032368Y-109679799D01*
X139226664Y-109649025D01*
X139413759Y-109588234D01*
X139589040Y-109498924D01*
X139748192Y-109383293D01*
X139887296Y-109244189D01*
X139913683Y-109207869D01*
X139969012Y-109165204D01*
X140038626Y-109159225D01*
X140100421Y-109191830D01*
X140114316Y-109207867D01*
X140140706Y-109244189D01*
X140279810Y-109383293D01*
X140438962Y-109498924D01*
X140521774Y-109541119D01*
X140614238Y-109588232D01*
X140614240Y-109588232D01*
X140614243Y-109588234D01*
X140714530Y-109620819D01*
X140801337Y-109649025D01*
X140995634Y-109679799D01*
X140995639Y-109679799D01*
X141192366Y-109679799D01*
X141386662Y-109649025D01*
X141573757Y-109588234D01*
X141749038Y-109498924D01*
X141908190Y-109383293D01*
X142047294Y-109244189D01*
X142073683Y-109207867D01*
X142129010Y-109165202D01*
X142198624Y-109159222D01*
X142260419Y-109191828D01*
X142274314Y-109207863D01*
X142300707Y-109244189D01*
X142439811Y-109383293D01*
X142598963Y-109498924D01*
X142681775Y-109541119D01*
X142774239Y-109588232D01*
X142774241Y-109588232D01*
X142774244Y-109588234D01*
X142874531Y-109620819D01*
X142961338Y-109649025D01*
X143155635Y-109679799D01*
X143155640Y-109679799D01*
X143352367Y-109679799D01*
X143546663Y-109649025D01*
X143733758Y-109588234D01*
X143909039Y-109498924D01*
X144068191Y-109383293D01*
X144207295Y-109244189D01*
X144233684Y-109207867D01*
X144289011Y-109165202D01*
X144358625Y-109159222D01*
X144420420Y-109191828D01*
X144434315Y-109207863D01*
X144460708Y-109244189D01*
X144599812Y-109383293D01*
X144758964Y-109498924D01*
X144841776Y-109541119D01*
X144934240Y-109588232D01*
X144934242Y-109588232D01*
X144934245Y-109588234D01*
X145034532Y-109620819D01*
X145121339Y-109649025D01*
X145315636Y-109679799D01*
X145315641Y-109679799D01*
X145512368Y-109679799D01*
X145706664Y-109649025D01*
X145893759Y-109588234D01*
X146069040Y-109498924D01*
X146228192Y-109383293D01*
X146367296Y-109244189D01*
X146393683Y-109207869D01*
X146449012Y-109165204D01*
X146518626Y-109159225D01*
X146580421Y-109191830D01*
X146594316Y-109207867D01*
X146620706Y-109244189D01*
X146759810Y-109383293D01*
X146918962Y-109498924D01*
X147001774Y-109541119D01*
X147094238Y-109588232D01*
X147094240Y-109588232D01*
X147094243Y-109588234D01*
X147194530Y-109620819D01*
X147281337Y-109649025D01*
X147475634Y-109679799D01*
X147475639Y-109679799D01*
X147672366Y-109679799D01*
X147866662Y-109649025D01*
X148053757Y-109588234D01*
X148229038Y-109498924D01*
X148388190Y-109383293D01*
X148527294Y-109244189D01*
X148553683Y-109207867D01*
X148609010Y-109165202D01*
X148678624Y-109159222D01*
X148740419Y-109191828D01*
X148754314Y-109207863D01*
X148780707Y-109244189D01*
X148919811Y-109383293D01*
X149078963Y-109498924D01*
X149161775Y-109541119D01*
X149254239Y-109588232D01*
X149254241Y-109588232D01*
X149254244Y-109588234D01*
X149354531Y-109620819D01*
X149441338Y-109649025D01*
X149635635Y-109679799D01*
X149635640Y-109679799D01*
X149832367Y-109679799D01*
X150026663Y-109649025D01*
X150213758Y-109588234D01*
X150389039Y-109498924D01*
X150548191Y-109383293D01*
X150687295Y-109244189D01*
X150713683Y-109207868D01*
X150769013Y-109165203D01*
X150838626Y-109159224D01*
X150900421Y-109191830D01*
X150914317Y-109207867D01*
X150940707Y-109244189D01*
X151079811Y-109383293D01*
X151238963Y-109498924D01*
X151321775Y-109541119D01*
X151414239Y-109588232D01*
X151414241Y-109588232D01*
X151414244Y-109588234D01*
X151514531Y-109620819D01*
X151601338Y-109649025D01*
X151795635Y-109679799D01*
X151795640Y-109679799D01*
X151992367Y-109679799D01*
X152186663Y-109649025D01*
X152373758Y-109588234D01*
X152549039Y-109498924D01*
X152708191Y-109383293D01*
X152847295Y-109244189D01*
X152873684Y-109207867D01*
X152929011Y-109165202D01*
X152998625Y-109159222D01*
X153060420Y-109191828D01*
X153074315Y-109207863D01*
X153100708Y-109244189D01*
X153239812Y-109383293D01*
X153398964Y-109498924D01*
X153481776Y-109541119D01*
X153574240Y-109588232D01*
X153574242Y-109588232D01*
X153574245Y-109588234D01*
X153674532Y-109620819D01*
X153761339Y-109649025D01*
X153955636Y-109679799D01*
X153955641Y-109679799D01*
X154152368Y-109679799D01*
X154346664Y-109649025D01*
X154533759Y-109588234D01*
X154709040Y-109498924D01*
X154868192Y-109383293D01*
X155007296Y-109244189D01*
X155033683Y-109207869D01*
X155089012Y-109165204D01*
X155158626Y-109159225D01*
X155220421Y-109191830D01*
X155234316Y-109207867D01*
X155260706Y-109244189D01*
X155399810Y-109383293D01*
X155558962Y-109498924D01*
X155641774Y-109541119D01*
X155734238Y-109588232D01*
X155734240Y-109588232D01*
X155734243Y-109588234D01*
X155834530Y-109620819D01*
X155921337Y-109649025D01*
X156115634Y-109679799D01*
X156115639Y-109679799D01*
X156312366Y-109679799D01*
X156506662Y-109649025D01*
X156693757Y-109588234D01*
X156869038Y-109498924D01*
X157028190Y-109383293D01*
X157167294Y-109244189D01*
X157193683Y-109207867D01*
X157249010Y-109165202D01*
X157318624Y-109159222D01*
X157380419Y-109191828D01*
X157394314Y-109207863D01*
X157420707Y-109244189D01*
X157559811Y-109383293D01*
X157718963Y-109498924D01*
X157801775Y-109541119D01*
X157894239Y-109588232D01*
X157894241Y-109588232D01*
X157894244Y-109588234D01*
X157994531Y-109620819D01*
X158081338Y-109649025D01*
X158275635Y-109679799D01*
X158275640Y-109679799D01*
X158472367Y-109679799D01*
X158666663Y-109649025D01*
X158853758Y-109588234D01*
X159029039Y-109498924D01*
X159188191Y-109383293D01*
X159327295Y-109244189D01*
X159353684Y-109207867D01*
X159409011Y-109165202D01*
X159478625Y-109159222D01*
X159540420Y-109191828D01*
X159554315Y-109207863D01*
X159580708Y-109244189D01*
X159719812Y-109383293D01*
X159878964Y-109498924D01*
X159961776Y-109541119D01*
X160054240Y-109588232D01*
X160054242Y-109588232D01*
X160054245Y-109588234D01*
X160154532Y-109620819D01*
X160241339Y-109649025D01*
X160435636Y-109679799D01*
X160435641Y-109679799D01*
X160632368Y-109679799D01*
X160826664Y-109649025D01*
X161013759Y-109588234D01*
X161189040Y-109498924D01*
X161348192Y-109383293D01*
X161487296Y-109244189D01*
X161513683Y-109207869D01*
X161569012Y-109165204D01*
X161638626Y-109159225D01*
X161700421Y-109191830D01*
X161714316Y-109207867D01*
X161740706Y-109244189D01*
X161879810Y-109383293D01*
X162038962Y-109498924D01*
X162121774Y-109541119D01*
X162214238Y-109588232D01*
X162214240Y-109588232D01*
X162214243Y-109588234D01*
X162314530Y-109620819D01*
X162401337Y-109649025D01*
X162595634Y-109679799D01*
X162595639Y-109679799D01*
X162792366Y-109679799D01*
X162986662Y-109649025D01*
X163173757Y-109588234D01*
X163349038Y-109498924D01*
X163508190Y-109383293D01*
X163647294Y-109244189D01*
X163762925Y-109085037D01*
X163852235Y-108909756D01*
X163913026Y-108722661D01*
X163921469Y-108669356D01*
X163943800Y-108528365D01*
X163943800Y-108331632D01*
X163912364Y-108133156D01*
X163921318Y-108063863D01*
X163947153Y-108026080D01*
X165326520Y-106646715D01*
X165405577Y-106509783D01*
X165446501Y-106357056D01*
X165446501Y-106198941D01*
X165446501Y-106191346D01*
X165446500Y-106191328D01*
X165446500Y-106132240D01*
X171494008Y-106132240D01*
X171494008Y-106437757D01*
X171528210Y-106741318D01*
X171528213Y-106741336D01*
X171596192Y-107039172D01*
X171596197Y-107039188D01*
X171697093Y-107327530D01*
X171697099Y-107327544D01*
X171829647Y-107602783D01*
X171992181Y-107861455D01*
X172121647Y-108023802D01*
X172677008Y-107468440D01*
X172738331Y-107434955D01*
X172808022Y-107439939D01*
X172854453Y-107471972D01*
X172854994Y-107471432D01*
X173027572Y-107644010D01*
X173026912Y-107644669D01*
X173062063Y-107700083D01*
X173061649Y-107769952D01*
X173030562Y-107821994D01*
X172475199Y-108377356D01*
X172637542Y-108506818D01*
X172896220Y-108669356D01*
X173171459Y-108801904D01*
X173171473Y-108801910D01*
X173459815Y-108902806D01*
X173459831Y-108902811D01*
X173757667Y-108970790D01*
X173757685Y-108970793D01*
X174061246Y-109004995D01*
X174061250Y-109004996D01*
X174366760Y-109004996D01*
X174366763Y-109004995D01*
X174670324Y-108970793D01*
X174670342Y-108970790D01*
X174968178Y-108902811D01*
X174968194Y-108902806D01*
X175256536Y-108801910D01*
X175256550Y-108801904D01*
X175531789Y-108669356D01*
X175790467Y-108506818D01*
X175952809Y-108377356D01*
X175952809Y-108377355D01*
X175397446Y-107821994D01*
X175363961Y-107760671D01*
X175368945Y-107690980D01*
X175400985Y-107644557D01*
X175400438Y-107644010D01*
X175573016Y-107471432D01*
X175573681Y-107472097D01*
X175629050Y-107436951D01*
X175698918Y-107437341D01*
X175751000Y-107468440D01*
X176306361Y-108023803D01*
X176306362Y-108023803D01*
X176435824Y-107861461D01*
X176598362Y-107602783D01*
X176730910Y-107327544D01*
X176730916Y-107327530D01*
X176831812Y-107039188D01*
X176831817Y-107039172D01*
X176899796Y-106741336D01*
X176899799Y-106741318D01*
X176934001Y-106437757D01*
X176934002Y-106437753D01*
X176934002Y-106132244D01*
X176934001Y-106132240D01*
X176899799Y-105828679D01*
X176899796Y-105828661D01*
X176831817Y-105530825D01*
X176831812Y-105530809D01*
X176730916Y-105242467D01*
X176730910Y-105242453D01*
X176598362Y-104967214D01*
X176435824Y-104708536D01*
X176306362Y-104546193D01*
X175751000Y-105101556D01*
X175689677Y-105135041D01*
X175619985Y-105130057D01*
X175573557Y-105098024D01*
X175573016Y-105098566D01*
X175400438Y-104925988D01*
X175401096Y-104925329D01*
X175365944Y-104869907D01*
X175366360Y-104800039D01*
X175397446Y-104748002D01*
X175952808Y-104192641D01*
X175790461Y-104063175D01*
X175531789Y-103900641D01*
X175256550Y-103768093D01*
X175256536Y-103768087D01*
X174968194Y-103667191D01*
X174968178Y-103667186D01*
X174670342Y-103599207D01*
X174670324Y-103599204D01*
X174366763Y-103565002D01*
X174061246Y-103565002D01*
X173757685Y-103599204D01*
X173757667Y-103599207D01*
X173459831Y-103667186D01*
X173459815Y-103667191D01*
X173171473Y-103768087D01*
X173171459Y-103768093D01*
X172896220Y-103900641D01*
X172637538Y-104063181D01*
X172637534Y-104063184D01*
X172475199Y-104192640D01*
X173030563Y-104748003D01*
X173064048Y-104809326D01*
X173059064Y-104879017D01*
X173027031Y-104925447D01*
X173027572Y-104925988D01*
X172854994Y-105098566D01*
X172854335Y-105097907D01*
X172798917Y-105133059D01*
X172729049Y-105132643D01*
X172677009Y-105101557D01*
X172121646Y-104546193D01*
X171992190Y-104708528D01*
X171992187Y-104708532D01*
X171829647Y-104967214D01*
X171697099Y-105242453D01*
X171697093Y-105242467D01*
X171596197Y-105530809D01*
X171596192Y-105530825D01*
X171528213Y-105828661D01*
X171528210Y-105828679D01*
X171494008Y-106132240D01*
X165446500Y-106132240D01*
X165446500Y-99264499D01*
X165466185Y-99197460D01*
X165518989Y-99151705D01*
X165570500Y-99140499D01*
X165743871Y-99140499D01*
X165743872Y-99140499D01*
X165803483Y-99134091D01*
X165938331Y-99083796D01*
X166053546Y-98997546D01*
X166139796Y-98882331D01*
X166190091Y-98747483D01*
X166196500Y-98687873D01*
X166196499Y-96892128D01*
X166190091Y-96832517D01*
X166139796Y-96697669D01*
X166139795Y-96697668D01*
X166139793Y-96697664D01*
X166053547Y-96582455D01*
X166053544Y-96582452D01*
X165938335Y-96496206D01*
X165938328Y-96496202D01*
X165803482Y-96445908D01*
X165803483Y-96445908D01*
X165743883Y-96439501D01*
X165743881Y-96439500D01*
X165743873Y-96439500D01*
X165743865Y-96439500D01*
X165570500Y-96439500D01*
X165503461Y-96419815D01*
X165457706Y-96367011D01*
X165446500Y-96315500D01*
X165446500Y-91390499D01*
X165466185Y-91323460D01*
X165518989Y-91277705D01*
X165570500Y-91266499D01*
X165743871Y-91266499D01*
X165743872Y-91266499D01*
X165803483Y-91260091D01*
X165938331Y-91209796D01*
X166053546Y-91123546D01*
X166139796Y-91008331D01*
X166190091Y-90873483D01*
X166196500Y-90813873D01*
X166196499Y-89466095D01*
X166205143Y-89436655D01*
X166211667Y-89406669D01*
X166215421Y-89401653D01*
X166216184Y-89399057D01*
X166232813Y-89378420D01*
X166355506Y-89255728D01*
X166355511Y-89255724D01*
X166365714Y-89245520D01*
X166365716Y-89245520D01*
X166477520Y-89133716D01*
X166544255Y-89018127D01*
X166556577Y-88996785D01*
X166597501Y-88844057D01*
X166597501Y-88685942D01*
X166597501Y-88678347D01*
X166597500Y-88678329D01*
X166597500Y-72085947D01*
X166597500Y-72085944D01*
X166596735Y-72083089D01*
X166596735Y-72083073D01*
X166596731Y-72083075D01*
X166576914Y-72009117D01*
X166572801Y-71993766D01*
X166556577Y-71933217D01*
X166538958Y-71902700D01*
X166477524Y-71796291D01*
X166477521Y-71796287D01*
X166477520Y-71796285D01*
X166365716Y-71684481D01*
X166365715Y-71684480D01*
X166361385Y-71680150D01*
X166361374Y-71680140D01*
X165535476Y-70854242D01*
X171494008Y-70854242D01*
X171494008Y-71159759D01*
X171528210Y-71463320D01*
X171528213Y-71463338D01*
X171596192Y-71761174D01*
X171596197Y-71761190D01*
X171697093Y-72049532D01*
X171697099Y-72049546D01*
X171829647Y-72324785D01*
X171992181Y-72583457D01*
X172121647Y-72745804D01*
X172677008Y-72190442D01*
X172738331Y-72156957D01*
X172808022Y-72161941D01*
X172854453Y-72193974D01*
X172854994Y-72193434D01*
X173027572Y-72366012D01*
X173026912Y-72366671D01*
X173062063Y-72422085D01*
X173061649Y-72491954D01*
X173030562Y-72543996D01*
X172475199Y-73099358D01*
X172637542Y-73228820D01*
X172896220Y-73391358D01*
X173171459Y-73523906D01*
X173171473Y-73523912D01*
X173459815Y-73624808D01*
X173459831Y-73624813D01*
X173757667Y-73692792D01*
X173757685Y-73692795D01*
X174061246Y-73726997D01*
X174061250Y-73726998D01*
X174366760Y-73726998D01*
X174366763Y-73726997D01*
X174670324Y-73692795D01*
X174670342Y-73692792D01*
X174968178Y-73624813D01*
X174968194Y-73624808D01*
X175256536Y-73523912D01*
X175256550Y-73523906D01*
X175531789Y-73391358D01*
X175790467Y-73228820D01*
X175952809Y-73099358D01*
X175952809Y-73099357D01*
X175397446Y-72543996D01*
X175363961Y-72482673D01*
X175368945Y-72412982D01*
X175400985Y-72366559D01*
X175400438Y-72366012D01*
X175573016Y-72193434D01*
X175573681Y-72194099D01*
X175629050Y-72158953D01*
X175698918Y-72159343D01*
X175751000Y-72190442D01*
X176306361Y-72745805D01*
X176306362Y-72745805D01*
X176435824Y-72583463D01*
X176598362Y-72324785D01*
X176730910Y-72049546D01*
X176730916Y-72049532D01*
X176831812Y-71761190D01*
X176831817Y-71761174D01*
X176899796Y-71463338D01*
X176899799Y-71463320D01*
X176934001Y-71159759D01*
X176934002Y-71159755D01*
X176934002Y-70854246D01*
X176934001Y-70854242D01*
X176899799Y-70550681D01*
X176899796Y-70550663D01*
X176831817Y-70252827D01*
X176831812Y-70252811D01*
X176730916Y-69964469D01*
X176730910Y-69964455D01*
X176598362Y-69689216D01*
X176435824Y-69430538D01*
X176306362Y-69268195D01*
X175751000Y-69823558D01*
X175689677Y-69857043D01*
X175619985Y-69852059D01*
X175573557Y-69820026D01*
X175573016Y-69820568D01*
X175400438Y-69647990D01*
X175401096Y-69647331D01*
X175365944Y-69591909D01*
X175366360Y-69522041D01*
X175397446Y-69470004D01*
X175952808Y-68914643D01*
X175790461Y-68785177D01*
X175531789Y-68622643D01*
X175256550Y-68490095D01*
X175256536Y-68490089D01*
X174968194Y-68389193D01*
X174968178Y-68389188D01*
X174670342Y-68321209D01*
X174670324Y-68321206D01*
X174366763Y-68287004D01*
X174061246Y-68287004D01*
X173757685Y-68321206D01*
X173757667Y-68321209D01*
X173459831Y-68389188D01*
X173459815Y-68389193D01*
X173171473Y-68490089D01*
X173171459Y-68490095D01*
X172896220Y-68622643D01*
X172637538Y-68785183D01*
X172637534Y-68785186D01*
X172475199Y-68914642D01*
X173030563Y-69470005D01*
X173064048Y-69531328D01*
X173059064Y-69601019D01*
X173027031Y-69647449D01*
X173027572Y-69647990D01*
X172854994Y-69820568D01*
X172854335Y-69819909D01*
X172798917Y-69855061D01*
X172729049Y-69854645D01*
X172677009Y-69823559D01*
X172121646Y-69268195D01*
X171992190Y-69430530D01*
X171992187Y-69430534D01*
X171829647Y-69689216D01*
X171697099Y-69964455D01*
X171697093Y-69964469D01*
X171596197Y-70252811D01*
X171596192Y-70252827D01*
X171528213Y-70550663D01*
X171528210Y-70550681D01*
X171494008Y-70854242D01*
X165535476Y-70854242D01*
X163947156Y-69265922D01*
X163913671Y-69204599D01*
X163912364Y-69158843D01*
X163943800Y-68960367D01*
X163943800Y-68763634D01*
X163913026Y-68569338D01*
X163852233Y-68382239D01*
X163774000Y-68228699D01*
X163762925Y-68206963D01*
X163647294Y-68047811D01*
X163508190Y-67908707D01*
X163349038Y-67793076D01*
X163173761Y-67703767D01*
X162986662Y-67642974D01*
X162792366Y-67612201D01*
X162792361Y-67612201D01*
X162595639Y-67612201D01*
X162595634Y-67612201D01*
X162401337Y-67642974D01*
X162214238Y-67703767D01*
X162038961Y-67793076D01*
X161948159Y-67859048D01*
X161879810Y-67908707D01*
X161879808Y-67908709D01*
X161879807Y-67908709D01*
X161740707Y-68047809D01*
X161714319Y-68084130D01*
X161658988Y-68126795D01*
X161589375Y-68132774D01*
X161527580Y-68100168D01*
X161513683Y-68084130D01*
X161487298Y-68047814D01*
X161487296Y-68047811D01*
X161348192Y-67908707D01*
X161189040Y-67793076D01*
X161013763Y-67703767D01*
X160826664Y-67642974D01*
X160632368Y-67612201D01*
X160632363Y-67612201D01*
X160435641Y-67612201D01*
X160435636Y-67612201D01*
X160241339Y-67642974D01*
X160054240Y-67703767D01*
X159878963Y-67793076D01*
X159788161Y-67859048D01*
X159719812Y-67908707D01*
X159719810Y-67908709D01*
X159719809Y-67908709D01*
X159580707Y-68047811D01*
X159554318Y-68084133D01*
X159498987Y-68126798D01*
X159429374Y-68132776D01*
X159367579Y-68100169D01*
X159353683Y-68084131D01*
X159327297Y-68047814D01*
X159327292Y-68047808D01*
X159188193Y-67908709D01*
X159188191Y-67908707D01*
X159029039Y-67793076D01*
X158853762Y-67703767D01*
X158666663Y-67642974D01*
X158472367Y-67612201D01*
X158472362Y-67612201D01*
X158275640Y-67612201D01*
X158275635Y-67612201D01*
X158081338Y-67642974D01*
X157894239Y-67703767D01*
X157718962Y-67793076D01*
X157628160Y-67859048D01*
X157559811Y-67908707D01*
X157559809Y-67908709D01*
X157559808Y-67908709D01*
X157420706Y-68047811D01*
X157394317Y-68084133D01*
X157338986Y-68126798D01*
X157269373Y-68132776D01*
X157207578Y-68100169D01*
X157193682Y-68084131D01*
X157167296Y-68047814D01*
X157167291Y-68047808D01*
X157028192Y-67908709D01*
X157028190Y-67908707D01*
X156869038Y-67793076D01*
X156693761Y-67703767D01*
X156506662Y-67642974D01*
X156312366Y-67612201D01*
X156312361Y-67612201D01*
X156115639Y-67612201D01*
X156115634Y-67612201D01*
X155921337Y-67642974D01*
X155734238Y-67703767D01*
X155558961Y-67793076D01*
X155468159Y-67859048D01*
X155399810Y-67908707D01*
X155399808Y-67908709D01*
X155399807Y-67908709D01*
X155260707Y-68047809D01*
X155234319Y-68084130D01*
X155178988Y-68126795D01*
X155109375Y-68132774D01*
X155047580Y-68100168D01*
X155033683Y-68084130D01*
X155007298Y-68047814D01*
X155007296Y-68047811D01*
X154868192Y-67908707D01*
X154709040Y-67793076D01*
X154533763Y-67703767D01*
X154346664Y-67642974D01*
X154152368Y-67612201D01*
X154152363Y-67612201D01*
X153955641Y-67612201D01*
X153955636Y-67612201D01*
X153761339Y-67642974D01*
X153574240Y-67703767D01*
X153398963Y-67793076D01*
X153308161Y-67859048D01*
X153239812Y-67908707D01*
X153239810Y-67908709D01*
X153239809Y-67908709D01*
X153100707Y-68047811D01*
X153074318Y-68084133D01*
X153018987Y-68126798D01*
X152949374Y-68132776D01*
X152887579Y-68100169D01*
X152873683Y-68084131D01*
X152847297Y-68047814D01*
X152847292Y-68047808D01*
X152708193Y-67908709D01*
X152708191Y-67908707D01*
X152549039Y-67793076D01*
X152373762Y-67703767D01*
X152186663Y-67642974D01*
X151992367Y-67612201D01*
X151992362Y-67612201D01*
X151795640Y-67612201D01*
X151795635Y-67612201D01*
X151601338Y-67642974D01*
X151414239Y-67703767D01*
X151238962Y-67793076D01*
X151148160Y-67859048D01*
X151079811Y-67908707D01*
X151079809Y-67908709D01*
X151079808Y-67908709D01*
X150940709Y-68047808D01*
X150940702Y-68047817D01*
X150914318Y-68084131D01*
X150858988Y-68126797D01*
X150789374Y-68132775D01*
X150727580Y-68100168D01*
X150713684Y-68084131D01*
X150687299Y-68047817D01*
X150687297Y-68047814D01*
X150687295Y-68047811D01*
X150548191Y-67908707D01*
X150389039Y-67793076D01*
X150213762Y-67703767D01*
X150026663Y-67642974D01*
X149832367Y-67612201D01*
X149832362Y-67612201D01*
X149635640Y-67612201D01*
X149635635Y-67612201D01*
X149441338Y-67642974D01*
X149254239Y-67703767D01*
X149078962Y-67793076D01*
X148988160Y-67859048D01*
X148919811Y-67908707D01*
X148919809Y-67908709D01*
X148919808Y-67908709D01*
X148780706Y-68047811D01*
X148754317Y-68084133D01*
X148698986Y-68126798D01*
X148629373Y-68132776D01*
X148567578Y-68100169D01*
X148553682Y-68084131D01*
X148527296Y-68047814D01*
X148527291Y-68047808D01*
X148388192Y-67908709D01*
X148388190Y-67908707D01*
X148229038Y-67793076D01*
X148053761Y-67703767D01*
X147866662Y-67642974D01*
X147672366Y-67612201D01*
X147672361Y-67612201D01*
X147475639Y-67612201D01*
X147475634Y-67612201D01*
X147281337Y-67642974D01*
X147094238Y-67703767D01*
X146918961Y-67793076D01*
X146828159Y-67859048D01*
X146759810Y-67908707D01*
X146759808Y-67908709D01*
X146759807Y-67908709D01*
X146620707Y-68047809D01*
X146594319Y-68084130D01*
X146538988Y-68126795D01*
X146469375Y-68132774D01*
X146407580Y-68100168D01*
X146393683Y-68084130D01*
X146367298Y-68047814D01*
X146367296Y-68047811D01*
X146228192Y-67908707D01*
X146069040Y-67793076D01*
X145893763Y-67703767D01*
X145706664Y-67642974D01*
X145512368Y-67612201D01*
X145512363Y-67612201D01*
X145315641Y-67612201D01*
X145315636Y-67612201D01*
X145121339Y-67642974D01*
X144934240Y-67703767D01*
X144758963Y-67793076D01*
X144668161Y-67859048D01*
X144599812Y-67908707D01*
X144599810Y-67908709D01*
X144599809Y-67908709D01*
X144460707Y-68047811D01*
X144434318Y-68084133D01*
X144378987Y-68126798D01*
X144309374Y-68132776D01*
X144247579Y-68100169D01*
X144233683Y-68084131D01*
X144207297Y-68047814D01*
X144207292Y-68047808D01*
X144068193Y-67908709D01*
X144068191Y-67908707D01*
X143909039Y-67793076D01*
X143733762Y-67703767D01*
X143546663Y-67642974D01*
X143352367Y-67612201D01*
X143352362Y-67612201D01*
X143155640Y-67612201D01*
X143155635Y-67612201D01*
X142961338Y-67642974D01*
X142774239Y-67703767D01*
X142598962Y-67793076D01*
X142508160Y-67859048D01*
X142439811Y-67908707D01*
X142439809Y-67908709D01*
X142439808Y-67908709D01*
X142300706Y-68047811D01*
X142274317Y-68084133D01*
X142218986Y-68126798D01*
X142149373Y-68132776D01*
X142087578Y-68100169D01*
X142073682Y-68084131D01*
X142047296Y-68047814D01*
X142047291Y-68047808D01*
X141908192Y-67908709D01*
X141908190Y-67908707D01*
X141749038Y-67793076D01*
X141573761Y-67703767D01*
X141386662Y-67642974D01*
X141192366Y-67612201D01*
X141192361Y-67612201D01*
X140995639Y-67612201D01*
X140995634Y-67612201D01*
X140801337Y-67642974D01*
X140614238Y-67703767D01*
X140438961Y-67793076D01*
X140348159Y-67859048D01*
X140279810Y-67908707D01*
X140279808Y-67908709D01*
X140279807Y-67908709D01*
X140140707Y-68047809D01*
X140114319Y-68084130D01*
X140058988Y-68126795D01*
X139989375Y-68132774D01*
X139927580Y-68100168D01*
X139913683Y-68084130D01*
X139887298Y-68047814D01*
X139887296Y-68047811D01*
X139748192Y-67908707D01*
X139589040Y-67793076D01*
X139413763Y-67703767D01*
X139226664Y-67642974D01*
X139032368Y-67612201D01*
X139032363Y-67612201D01*
X138835641Y-67612201D01*
X138835636Y-67612201D01*
X138641339Y-67642974D01*
X138454240Y-67703767D01*
X138278963Y-67793076D01*
X138188161Y-67859048D01*
X138119812Y-67908707D01*
X138119810Y-67908709D01*
X138119809Y-67908709D01*
X137980710Y-68047808D01*
X137980710Y-68047809D01*
X137980708Y-68047811D01*
X137942668Y-68100168D01*
X137865077Y-68206962D01*
X137775768Y-68382239D01*
X137714975Y-68569338D01*
X137684202Y-68763634D01*
X137684202Y-68960367D01*
X137714975Y-69154663D01*
X137775768Y-69341762D01*
X137841112Y-69470005D01*
X137865077Y-69517039D01*
X137980708Y-69676191D01*
X138119812Y-69815295D01*
X138278964Y-69930926D01*
X138344796Y-69964469D01*
X138454240Y-70020234D01*
X138454242Y-70020234D01*
X138454245Y-70020236D01*
X138554532Y-70052821D01*
X138641339Y-70081027D01*
X138835636Y-70111801D01*
X138835641Y-70111801D01*
X139032368Y-70111801D01*
X139179644Y-70088474D01*
X139226664Y-70081027D01*
X139226665Y-70081026D01*
X139230842Y-70080365D01*
X139236263Y-70081065D01*
X139241387Y-70079154D01*
X139270542Y-70085495D01*
X139300135Y-70089319D01*
X139305737Y-70093149D01*
X139309661Y-70094003D01*
X139337917Y-70115152D01*
X139347479Y-70124713D01*
X139380967Y-70186035D01*
X139383802Y-70212399D01*
X139383802Y-71813922D01*
X139364117Y-71880961D01*
X139311313Y-71926716D01*
X139242155Y-71936660D01*
X139230861Y-71934497D01*
X139226550Y-71933462D01*
X139032323Y-71902700D01*
X138835681Y-71902700D01*
X138641455Y-71933462D01*
X138454439Y-71994226D01*
X138454436Y-71994227D01*
X138279222Y-72083505D01*
X138244377Y-72108821D01*
X138244377Y-72108823D01*
X138808429Y-72672874D01*
X138742823Y-72690454D01*
X138629881Y-72755661D01*
X138537663Y-72847879D01*
X138472456Y-72960821D01*
X138454876Y-73026427D01*
X137890825Y-72462375D01*
X137890823Y-72462375D01*
X137865507Y-72497220D01*
X137776229Y-72672434D01*
X137776228Y-72672437D01*
X137715464Y-72859453D01*
X137684702Y-73053678D01*
X137684702Y-73250321D01*
X137715464Y-73444546D01*
X137776228Y-73631562D01*
X137776229Y-73631565D01*
X137865504Y-73806775D01*
X137890824Y-73841623D01*
X137890824Y-73841624D01*
X138454876Y-73277572D01*
X138472456Y-73343179D01*
X138537663Y-73456121D01*
X138629881Y-73548339D01*
X138742823Y-73613546D01*
X138808428Y-73631124D01*
X138244377Y-74195176D01*
X138244377Y-74195177D01*
X138279225Y-74220496D01*
X138345729Y-74254382D01*
X138396525Y-74302357D01*
X138413320Y-74370178D01*
X138390783Y-74436313D01*
X138377115Y-74452548D01*
X137691287Y-75138376D01*
X137691280Y-75138383D01*
X137688286Y-75141378D01*
X137688284Y-75141380D01*
X137576480Y-75253184D01*
X137553658Y-75292714D01*
X137547643Y-75303131D01*
X137547643Y-75303132D01*
X137512654Y-75363735D01*
X137497423Y-75390115D01*
X137456499Y-75542843D01*
X137456499Y-75542845D01*
X137456499Y-75710946D01*
X137456500Y-75710959D01*
X137456500Y-78028000D01*
X137436815Y-78095039D01*
X137384011Y-78140794D01*
X137332500Y-78152000D01*
X137156000Y-78152000D01*
X137156000Y-79068988D01*
X137098993Y-79036075D01*
X136971826Y-79002000D01*
X136840174Y-79002000D01*
X136713007Y-79036075D01*
X136656000Y-79068988D01*
X136656000Y-78152000D01*
X136008155Y-78152000D01*
X135948627Y-78158401D01*
X135948620Y-78158403D01*
X135813913Y-78208645D01*
X135813906Y-78208649D01*
X135698812Y-78294809D01*
X135698809Y-78294812D01*
X135612649Y-78409906D01*
X135612645Y-78409913D01*
X135562403Y-78544620D01*
X135562401Y-78544627D01*
X135556000Y-78604155D01*
X135556000Y-79252000D01*
X136472988Y-79252000D01*
X136440075Y-79309007D01*
X136406000Y-79436174D01*
X136406000Y-79567826D01*
X136440075Y-79694993D01*
X136472988Y-79752000D01*
X135556000Y-79752000D01*
X135556000Y-80399844D01*
X135562401Y-80459372D01*
X135562403Y-80459379D01*
X135612645Y-80594086D01*
X135612649Y-80594093D01*
X135698809Y-80709187D01*
X135698812Y-80709190D01*
X135813906Y-80795350D01*
X135813913Y-80795354D01*
X135948620Y-80845596D01*
X135948627Y-80845598D01*
X136008155Y-80851999D01*
X136008172Y-80852000D01*
X136656000Y-80852000D01*
X136656000Y-79935012D01*
X136713007Y-79967925D01*
X136840174Y-80002000D01*
X136971826Y-80002000D01*
X137098993Y-79967925D01*
X137156000Y-79935012D01*
X137156000Y-80852000D01*
X137332500Y-80852000D01*
X137399539Y-80871685D01*
X137445294Y-80924489D01*
X137456500Y-80976000D01*
X137456500Y-85902000D01*
X137436815Y-85969039D01*
X137384011Y-86014794D01*
X137332500Y-86026000D01*
X137156000Y-86026000D01*
X137156000Y-86942988D01*
X137098993Y-86910075D01*
X136971826Y-86876000D01*
X136840174Y-86876000D01*
X136713007Y-86910075D01*
X136656000Y-86942988D01*
X136656000Y-86026000D01*
X136008155Y-86026000D01*
X135948627Y-86032401D01*
X135948620Y-86032403D01*
X135813913Y-86082645D01*
X135813906Y-86082649D01*
X135698812Y-86168809D01*
X135698809Y-86168812D01*
X135612649Y-86283906D01*
X135612645Y-86283913D01*
X135562403Y-86418620D01*
X135562401Y-86418627D01*
X135556000Y-86478155D01*
X135556000Y-87126000D01*
X136472988Y-87126000D01*
X136440075Y-87183007D01*
X136406000Y-87310174D01*
X136406000Y-87441826D01*
X136440075Y-87568993D01*
X136472988Y-87626000D01*
X135556000Y-87626000D01*
X135556000Y-88273844D01*
X135562401Y-88333372D01*
X135562403Y-88333379D01*
X135612645Y-88468086D01*
X135612646Y-88468088D01*
X135689890Y-88571272D01*
X135714307Y-88636736D01*
X135699456Y-88705009D01*
X135689890Y-88719894D01*
X135612204Y-88823669D01*
X135612202Y-88823671D01*
X135561908Y-88958517D01*
X135555501Y-89018116D01*
X135555500Y-89018127D01*
X129632500Y-89018127D01*
X129632500Y-81762765D01*
X129652185Y-81695726D01*
X129653398Y-81693874D01*
X129741390Y-81562185D01*
X129741390Y-81562184D01*
X129741394Y-81562179D01*
X129801737Y-81416497D01*
X129832500Y-81261842D01*
X129832500Y-81104158D01*
X129832500Y-81104155D01*
X129832499Y-81104153D01*
X129801737Y-80949503D01*
X129761557Y-80852499D01*
X129741397Y-80803827D01*
X129741390Y-80803814D01*
X129653789Y-80672711D01*
X129653786Y-80672707D01*
X129542292Y-80561213D01*
X129542288Y-80561210D01*
X129411185Y-80473609D01*
X129411172Y-80473602D01*
X129265501Y-80413264D01*
X129265489Y-80413261D01*
X129110845Y-80382500D01*
X129110842Y-80382500D01*
X128953158Y-80382500D01*
X128953155Y-80382500D01*
X128798510Y-80413261D01*
X128798498Y-80413264D01*
X128652827Y-80473602D01*
X128652814Y-80473609D01*
X128521711Y-80561210D01*
X128521707Y-80561213D01*
X128410213Y-80672707D01*
X128410210Y-80672711D01*
X128322609Y-80803814D01*
X128322602Y-80803827D01*
X128262264Y-80949498D01*
X128262261Y-80949510D01*
X128231500Y-81104153D01*
X128231500Y-81261846D01*
X128262261Y-81416489D01*
X128262264Y-81416501D01*
X128322602Y-81562172D01*
X128322609Y-81562185D01*
X128410602Y-81693874D01*
X128431480Y-81760551D01*
X128431500Y-81762765D01*
X128431500Y-96981902D01*
X128422855Y-97011342D01*
X128416332Y-97041329D01*
X128412577Y-97046344D01*
X128411815Y-97048941D01*
X128395181Y-97069584D01*
X128246522Y-97218242D01*
X128185199Y-97251726D01*
X128120523Y-97248491D01*
X128078245Y-97234754D01*
X127938272Y-97212584D01*
X127868287Y-97201500D01*
X127655713Y-97201500D01*
X127607042Y-97209208D01*
X127445760Y-97234753D01*
X127243585Y-97300444D01*
X127054179Y-97396951D01*
X126882213Y-97521890D01*
X126731890Y-97672213D01*
X126606951Y-97844179D01*
X126510444Y-98033585D01*
X126444753Y-98235760D01*
X126411500Y-98445713D01*
X123032500Y-98445713D01*
X123032500Y-70854242D01*
X124694000Y-70854242D01*
X124694000Y-71159759D01*
X124728202Y-71463320D01*
X124728205Y-71463338D01*
X124796184Y-71761174D01*
X124796189Y-71761190D01*
X124897085Y-72049532D01*
X124897091Y-72049546D01*
X125029639Y-72324785D01*
X125192173Y-72583457D01*
X125321639Y-72745804D01*
X125877000Y-72190442D01*
X125938323Y-72156957D01*
X126008014Y-72161941D01*
X126054445Y-72193974D01*
X126054986Y-72193434D01*
X126227564Y-72366012D01*
X126226904Y-72366671D01*
X126262055Y-72422085D01*
X126261641Y-72491954D01*
X126230554Y-72543996D01*
X125675191Y-73099358D01*
X125837534Y-73228820D01*
X126096212Y-73391358D01*
X126371451Y-73523906D01*
X126371465Y-73523912D01*
X126659807Y-73624808D01*
X126659823Y-73624813D01*
X126957659Y-73692792D01*
X126957677Y-73692795D01*
X127261238Y-73726997D01*
X127261242Y-73726998D01*
X127566752Y-73726998D01*
X127566755Y-73726997D01*
X127870316Y-73692795D01*
X127870334Y-73692792D01*
X128168170Y-73624813D01*
X128168186Y-73624808D01*
X128456528Y-73523912D01*
X128456542Y-73523906D01*
X128731781Y-73391358D01*
X128990459Y-73228820D01*
X129152801Y-73099358D01*
X129152801Y-73099357D01*
X128597438Y-72543996D01*
X128563953Y-72482673D01*
X128568937Y-72412982D01*
X128600977Y-72366559D01*
X128600430Y-72366012D01*
X128773008Y-72193434D01*
X128773673Y-72194099D01*
X128829042Y-72158953D01*
X128898910Y-72159343D01*
X128950992Y-72190442D01*
X129506353Y-72745805D01*
X129506354Y-72745805D01*
X129635816Y-72583463D01*
X129798354Y-72324785D01*
X129930902Y-72049546D01*
X129930908Y-72049532D01*
X130031804Y-71761190D01*
X130031809Y-71761174D01*
X130099788Y-71463338D01*
X130099791Y-71463320D01*
X130133993Y-71159759D01*
X130133994Y-71159755D01*
X130133994Y-70854246D01*
X130133993Y-70854242D01*
X130099791Y-70550681D01*
X130099788Y-70550663D01*
X130031809Y-70252827D01*
X130031804Y-70252811D01*
X129930908Y-69964469D01*
X129930902Y-69964455D01*
X129798354Y-69689216D01*
X129635816Y-69430538D01*
X129506354Y-69268195D01*
X128950992Y-69823558D01*
X128889669Y-69857043D01*
X128819977Y-69852059D01*
X128773549Y-69820026D01*
X128773008Y-69820568D01*
X128600430Y-69647990D01*
X128601088Y-69647331D01*
X128565936Y-69591909D01*
X128566352Y-69522041D01*
X128597438Y-69470004D01*
X129152800Y-68914643D01*
X128990453Y-68785177D01*
X128731781Y-68622643D01*
X128456542Y-68490095D01*
X128456528Y-68490089D01*
X128168186Y-68389193D01*
X128168170Y-68389188D01*
X127870334Y-68321209D01*
X127870316Y-68321206D01*
X127566755Y-68287004D01*
X127261238Y-68287004D01*
X126957677Y-68321206D01*
X126957659Y-68321209D01*
X126659823Y-68389188D01*
X126659807Y-68389193D01*
X126371465Y-68490089D01*
X126371451Y-68490095D01*
X126096212Y-68622643D01*
X125837530Y-68785183D01*
X125837526Y-68785186D01*
X125675191Y-68914642D01*
X126230555Y-69470005D01*
X126264040Y-69531328D01*
X126259056Y-69601019D01*
X126227023Y-69647449D01*
X126227564Y-69647990D01*
X126054986Y-69820568D01*
X126054327Y-69819909D01*
X125998909Y-69855061D01*
X125929041Y-69854645D01*
X125877001Y-69823559D01*
X125321638Y-69268195D01*
X125192182Y-69430530D01*
X125192179Y-69430534D01*
X125029639Y-69689216D01*
X124897091Y-69964455D01*
X124897085Y-69964469D01*
X124796189Y-70252811D01*
X124796184Y-70252827D01*
X124728205Y-70550663D01*
X124728202Y-70550681D01*
X124694000Y-70854242D01*
X123032500Y-70854242D01*
X123032500Y-60552500D01*
X123052185Y-60485461D01*
X123104989Y-60439706D01*
X123156500Y-60428500D01*
X178569500Y-60428500D01*
X178636539Y-60448185D01*
G37*
%TD.AperFunction*%
%TD*%
M02*
