%TF.GenerationSoftware,KiCad,Pcbnew,10.0.1*%
%TF.CreationDate,2026-05-07T12:12:56+02:00*%
%TF.ProjectId,GPIBTap,47504942-5461-4702-9e6b-696361645f70,2*%
%TF.SameCoordinates,Original*%
%TF.FileFunction,Legend,Bot*%
%TF.FilePolarity,Positive*%
%FSLAX46Y46*%
G04 Gerber Fmt 4.6, Leading zero omitted, Abs format (unit mm)*
G04 Created by KiCad (PCBNEW 10.0.1) date 2026-05-07 12:12:56*
%MOMM*%
%LPD*%
G01*
G04 APERTURE LIST*
%ADD10C,0.508000*%
%ADD11R,1.700000X1.700000*%
%ADD12C,1.700000*%
%ADD13C,3.098800*%
%ADD14C,1.498600*%
%ADD15C,4.439994*%
G04 APERTURE END LIST*
%TO.C,J2*%
D10*
X180595501Y-73152000D02*
G75*
G02*
X179833501Y-73152000I-381000J0D01*
G01*
X179833501Y-73152000D02*
G75*
G02*
X180595501Y-73152000I381000J0D01*
G01*
%TO.C,J1*%
X180315002Y-104140000D02*
G75*
G02*
X179553002Y-104140000I-381000J0D01*
G01*
X179553002Y-104140000D02*
G75*
G02*
X180315002Y-104140000I381000J0D01*
G01*
%TD*%
%LPC*%
D11*
%TO.C,TP31*%
X159766000Y-89916000D03*
%TD*%
%TO.C,TP27*%
X159766000Y-87376000D03*
%TD*%
%TO.C,J8*%
X147066000Y-87376000D03*
D12*
X147066000Y-89916000D03*
%TD*%
D11*
%TO.C,TP11*%
X154686000Y-79502000D03*
%TD*%
%TO.C,TP30*%
X162306000Y-89916000D03*
%TD*%
%TO.C,TP2*%
X136906000Y-89916000D03*
%TD*%
%TO.C,TP6*%
X157226000Y-79502000D03*
%TD*%
%TO.C,TP36*%
X136906000Y-97790000D03*
%TD*%
%TO.C,TP33*%
X154686000Y-87376000D03*
%TD*%
%TO.C,TP29*%
X164846000Y-89916000D03*
%TD*%
%TO.C,TP9*%
X159766000Y-97790000D03*
%TD*%
%TO.C,TP26*%
X162306000Y-87376000D03*
%TD*%
%TO.C,TP3*%
X164846000Y-79502000D03*
%TD*%
%TO.C,J9*%
X144526000Y-87376000D03*
D12*
X144526000Y-89916000D03*
%TD*%
D11*
%TO.C,J11*%
X139446000Y-87376000D03*
D12*
X139446000Y-89916000D03*
%TD*%
D11*
%TO.C,TP32*%
X157226000Y-89916000D03*
%TD*%
%TO.C,J7*%
X149606000Y-87376000D03*
D12*
X149606000Y-89916000D03*
%TD*%
D11*
%TO.C,TP25*%
X164846000Y-87376000D03*
%TD*%
%TO.C,TP18*%
X147066000Y-97790000D03*
%TD*%
%TO.C,TP5*%
X159766000Y-79502000D03*
%TD*%
%TO.C,J10*%
X141986000Y-87376000D03*
D12*
X141986000Y-89916000D03*
%TD*%
D11*
%TO.C,TP7*%
X164846000Y-97790000D03*
%TD*%
%TO.C,TP23*%
X139446000Y-79502000D03*
%TD*%
%TO.C,TP22*%
X141986000Y-97790000D03*
%TD*%
%TO.C,TP16*%
X149606000Y-97790000D03*
%TD*%
%TO.C,TP15*%
X149606000Y-79502000D03*
%TD*%
%TO.C,TP13*%
X152146000Y-79502000D03*
%TD*%
%TO.C,TP24*%
X139446000Y-97790000D03*
%TD*%
%TO.C,TP19*%
X144526000Y-79502000D03*
%TD*%
%TO.C,TP4*%
X162306000Y-79502000D03*
%TD*%
%TO.C,TP20*%
X144526000Y-97790000D03*
%TD*%
%TO.C,TP28*%
X157226000Y-87376000D03*
%TD*%
%TO.C,J3*%
X130302000Y-98552000D03*
D12*
X127762000Y-98552000D03*
%TD*%
D11*
%TO.C,TP34*%
X154686000Y-89916000D03*
%TD*%
%TO.C,TP14*%
X152146000Y-97790000D03*
%TD*%
%TO.C,TP35*%
X136906000Y-79502000D03*
%TD*%
%TO.C,TP1*%
X136906000Y-87376000D03*
%TD*%
%TO.C,TP10*%
X157226000Y-97790000D03*
%TD*%
%TO.C,TP12*%
X154686000Y-97790000D03*
%TD*%
D13*
%TO.C,J2*%
X174214005Y-71007001D03*
X127413997Y-71007001D03*
D14*
X162694000Y-73152000D03*
X160534002Y-73152000D03*
X158374001Y-73152000D03*
X156214000Y-73152000D03*
X154054002Y-73152000D03*
X151894001Y-73152000D03*
X149734001Y-73152000D03*
X147574000Y-73152000D03*
X145414002Y-73152000D03*
X143254001Y-73152000D03*
X141094000Y-73152000D03*
X138934002Y-73152000D03*
X162694000Y-68862001D03*
X160534002Y-68862001D03*
X158374001Y-68862001D03*
X156214000Y-68862001D03*
X154054002Y-68862001D03*
X151894001Y-68862001D03*
X149734001Y-68862001D03*
X147574000Y-68862001D03*
X145414002Y-68862001D03*
X143254001Y-68862001D03*
X141094000Y-68862001D03*
X138934002Y-68862001D03*
D15*
X174214005Y-71007001D03*
X127413997Y-71007001D03*
%TD*%
D11*
%TO.C,TP21*%
X141986000Y-79502000D03*
%TD*%
%TO.C,J6*%
X152146000Y-87376000D03*
D12*
X152146000Y-89916000D03*
%TD*%
D13*
%TO.C,J1*%
X127413997Y-106284999D03*
X174214005Y-106284999D03*
D14*
X162694000Y-104140000D03*
X160534002Y-104140000D03*
X158374001Y-104140000D03*
X156214000Y-104140000D03*
X154054002Y-104140000D03*
X151894001Y-104140000D03*
X149734001Y-104140000D03*
X147574000Y-104140000D03*
X145414002Y-104140000D03*
X143254001Y-104140000D03*
X141094000Y-104140000D03*
X138934002Y-104140000D03*
X162694000Y-108429999D03*
X160534002Y-108429999D03*
X158374001Y-108429999D03*
X156214000Y-108429999D03*
X154054002Y-108429999D03*
X151894001Y-108429999D03*
X149734001Y-108429999D03*
X147574000Y-108429999D03*
X145414002Y-108429999D03*
X143254001Y-108429999D03*
X141094000Y-108429999D03*
X138934002Y-108429999D03*
D15*
X127413997Y-106284999D03*
X174214005Y-106284999D03*
%TD*%
D11*
%TO.C,TP17*%
X147066000Y-79502000D03*
%TD*%
%TO.C,TP8*%
X162306000Y-97790000D03*
%TD*%
%LPD*%
M02*
