%TF.GenerationSoftware,KiCad,Pcbnew,9.0.7*%
%TF.CreationDate,2026-03-21T16:16:05+01:00*%
%TF.ProjectId,GPIBAdapter,47504942-4164-4617-9074-65722e6b6963,2*%
%TF.SameCoordinates,Original*%
%TF.FileFunction,Drillmap*%
%TF.FilePolarity,Positive*%
%FSLAX45Y45*%
G04 Gerber Fmt 4.5, Leading zero omitted, Abs format (unit mm)*
G04 Created by KiCad (PCBNEW 9.0.7) date 2026-03-21 16:16:05*
%MOMM*%
%LPD*%
G01*
G04 APERTURE LIST*
%ADD10C,0.050000*%
%ADD11C,0.200000*%
%ADD12C,0.100000*%
%ADD13C,0.300000*%
G04 APERTURE END LIST*
D10*
X12253200Y-5992800D02*
X17919400Y-5992800D01*
X17919400Y-11736200D01*
X12253200Y-11736200D01*
X12253200Y-5992800D01*
D11*
D12*
X12888200Y-8103300D02*
X12918200Y-8133300D01*
X12918200Y-8103300D02*
X12888200Y-8133300D01*
X13942930Y-6886200D02*
G75*
G02*
X13843870Y-6886200I-49530J0D01*
G01*
X13843870Y-6886200D02*
G75*
G02*
X13942930Y-6886200I49530J0D01*
G01*
X13942930Y-7315200D02*
G75*
G02*
X13843870Y-7315200I-49530J0D01*
G01*
X13843870Y-7315200D02*
G75*
G02*
X13942930Y-7315200I49530J0D01*
G01*
X13942930Y-10414000D02*
G75*
G02*
X13843870Y-10414000I-49530J0D01*
G01*
X13843870Y-10414000D02*
G75*
G02*
X13942930Y-10414000I49530J0D01*
G01*
X13942930Y-10843000D02*
G75*
G02*
X13843870Y-10843000I-49530J0D01*
G01*
X13843870Y-10843000D02*
G75*
G02*
X13942930Y-10843000I49530J0D01*
G01*
X14158930Y-6886200D02*
G75*
G02*
X14059870Y-6886200I-49530J0D01*
G01*
X14059870Y-6886200D02*
G75*
G02*
X14158930Y-6886200I49530J0D01*
G01*
X14158930Y-7315200D02*
G75*
G02*
X14059870Y-7315200I-49530J0D01*
G01*
X14059870Y-7315200D02*
G75*
G02*
X14158930Y-7315200I49530J0D01*
G01*
X14158930Y-10414000D02*
G75*
G02*
X14059870Y-10414000I-49530J0D01*
G01*
X14059870Y-10414000D02*
G75*
G02*
X14158930Y-10414000I49530J0D01*
G01*
X14158930Y-10843000D02*
G75*
G02*
X14059870Y-10843000I-49530J0D01*
G01*
X14059870Y-10843000D02*
G75*
G02*
X14158930Y-10843000I49530J0D01*
G01*
X14374930Y-6886200D02*
G75*
G02*
X14275870Y-6886200I-49530J0D01*
G01*
X14275870Y-6886200D02*
G75*
G02*
X14374930Y-6886200I49530J0D01*
G01*
X14374930Y-7315200D02*
G75*
G02*
X14275870Y-7315200I-49530J0D01*
G01*
X14275870Y-7315200D02*
G75*
G02*
X14374930Y-7315200I49530J0D01*
G01*
X14374930Y-10414000D02*
G75*
G02*
X14275870Y-10414000I-49530J0D01*
G01*
X14275870Y-10414000D02*
G75*
G02*
X14374930Y-10414000I49530J0D01*
G01*
X14374930Y-10843000D02*
G75*
G02*
X14275870Y-10843000I-49530J0D01*
G01*
X14275870Y-10843000D02*
G75*
G02*
X14374930Y-10843000I49530J0D01*
G01*
X14590930Y-6886200D02*
G75*
G02*
X14491870Y-6886200I-49530J0D01*
G01*
X14491870Y-6886200D02*
G75*
G02*
X14590930Y-6886200I49530J0D01*
G01*
X14590930Y-7315200D02*
G75*
G02*
X14491870Y-7315200I-49530J0D01*
G01*
X14491870Y-7315200D02*
G75*
G02*
X14590930Y-7315200I49530J0D01*
G01*
X14590930Y-10414000D02*
G75*
G02*
X14491870Y-10414000I-49530J0D01*
G01*
X14491870Y-10414000D02*
G75*
G02*
X14590930Y-10414000I49530J0D01*
G01*
X14590930Y-10843000D02*
G75*
G02*
X14491870Y-10843000I-49530J0D01*
G01*
X14491870Y-10843000D02*
G75*
G02*
X14590930Y-10843000I49530J0D01*
G01*
X14806930Y-6886200D02*
G75*
G02*
X14707870Y-6886200I-49530J0D01*
G01*
X14707870Y-6886200D02*
G75*
G02*
X14806930Y-6886200I49530J0D01*
G01*
X14806930Y-7315200D02*
G75*
G02*
X14707870Y-7315200I-49530J0D01*
G01*
X14707870Y-7315200D02*
G75*
G02*
X14806930Y-7315200I49530J0D01*
G01*
X14806930Y-10414000D02*
G75*
G02*
X14707870Y-10414000I-49530J0D01*
G01*
X14707870Y-10414000D02*
G75*
G02*
X14806930Y-10414000I49530J0D01*
G01*
X14806930Y-10843000D02*
G75*
G02*
X14707870Y-10843000I-49530J0D01*
G01*
X14707870Y-10843000D02*
G75*
G02*
X14806930Y-10843000I49530J0D01*
G01*
X15022930Y-6886200D02*
G75*
G02*
X14923870Y-6886200I-49530J0D01*
G01*
X14923870Y-6886200D02*
G75*
G02*
X15022930Y-6886200I49530J0D01*
G01*
X15022930Y-7315200D02*
G75*
G02*
X14923870Y-7315200I-49530J0D01*
G01*
X14923870Y-7315200D02*
G75*
G02*
X15022930Y-7315200I49530J0D01*
G01*
X15022930Y-10414000D02*
G75*
G02*
X14923870Y-10414000I-49530J0D01*
G01*
X14923870Y-10414000D02*
G75*
G02*
X15022930Y-10414000I49530J0D01*
G01*
X15022930Y-10843000D02*
G75*
G02*
X14923870Y-10843000I-49530J0D01*
G01*
X14923870Y-10843000D02*
G75*
G02*
X15022930Y-10843000I49530J0D01*
G01*
X15238930Y-6886200D02*
G75*
G02*
X15139870Y-6886200I-49530J0D01*
G01*
X15139870Y-6886200D02*
G75*
G02*
X15238930Y-6886200I49530J0D01*
G01*
X15238930Y-7315200D02*
G75*
G02*
X15139870Y-7315200I-49530J0D01*
G01*
X15139870Y-7315200D02*
G75*
G02*
X15238930Y-7315200I49530J0D01*
G01*
X15238930Y-10414000D02*
G75*
G02*
X15139870Y-10414000I-49530J0D01*
G01*
X15139870Y-10414000D02*
G75*
G02*
X15238930Y-10414000I49530J0D01*
G01*
X15238930Y-10843000D02*
G75*
G02*
X15139870Y-10843000I-49530J0D01*
G01*
X15139870Y-10843000D02*
G75*
G02*
X15238930Y-10843000I49530J0D01*
G01*
X15454930Y-6886200D02*
G75*
G02*
X15355870Y-6886200I-49530J0D01*
G01*
X15355870Y-6886200D02*
G75*
G02*
X15454930Y-6886200I49530J0D01*
G01*
X15454930Y-7315200D02*
G75*
G02*
X15355870Y-7315200I-49530J0D01*
G01*
X15355870Y-7315200D02*
G75*
G02*
X15454930Y-7315200I49530J0D01*
G01*
X15454930Y-10414000D02*
G75*
G02*
X15355870Y-10414000I-49530J0D01*
G01*
X15355870Y-10414000D02*
G75*
G02*
X15454930Y-10414000I49530J0D01*
G01*
X15454930Y-10843000D02*
G75*
G02*
X15355870Y-10843000I-49530J0D01*
G01*
X15355870Y-10843000D02*
G75*
G02*
X15454930Y-10843000I49530J0D01*
G01*
X15670930Y-6886200D02*
G75*
G02*
X15571870Y-6886200I-49530J0D01*
G01*
X15571870Y-6886200D02*
G75*
G02*
X15670930Y-6886200I49530J0D01*
G01*
X15670930Y-7315200D02*
G75*
G02*
X15571870Y-7315200I-49530J0D01*
G01*
X15571870Y-7315200D02*
G75*
G02*
X15670930Y-7315200I49530J0D01*
G01*
X15670930Y-10414000D02*
G75*
G02*
X15571870Y-10414000I-49530J0D01*
G01*
X15571870Y-10414000D02*
G75*
G02*
X15670930Y-10414000I49530J0D01*
G01*
X15670930Y-10843000D02*
G75*
G02*
X15571870Y-10843000I-49530J0D01*
G01*
X15571870Y-10843000D02*
G75*
G02*
X15670930Y-10843000I49530J0D01*
G01*
X15886930Y-6886200D02*
G75*
G02*
X15787870Y-6886200I-49530J0D01*
G01*
X15787870Y-6886200D02*
G75*
G02*
X15886930Y-6886200I49530J0D01*
G01*
X15886930Y-7315200D02*
G75*
G02*
X15787870Y-7315200I-49530J0D01*
G01*
X15787870Y-7315200D02*
G75*
G02*
X15886930Y-7315200I49530J0D01*
G01*
X15886930Y-10414000D02*
G75*
G02*
X15787870Y-10414000I-49530J0D01*
G01*
X15787870Y-10414000D02*
G75*
G02*
X15886930Y-10414000I49530J0D01*
G01*
X15886930Y-10843000D02*
G75*
G02*
X15787870Y-10843000I-49530J0D01*
G01*
X15787870Y-10843000D02*
G75*
G02*
X15886930Y-10843000I49530J0D01*
G01*
X16102930Y-6886200D02*
G75*
G02*
X16003870Y-6886200I-49530J0D01*
G01*
X16003870Y-6886200D02*
G75*
G02*
X16102930Y-6886200I49530J0D01*
G01*
X16102930Y-7315200D02*
G75*
G02*
X16003870Y-7315200I-49530J0D01*
G01*
X16003870Y-7315200D02*
G75*
G02*
X16102930Y-7315200I49530J0D01*
G01*
X16102930Y-10414000D02*
G75*
G02*
X16003870Y-10414000I-49530J0D01*
G01*
X16003870Y-10414000D02*
G75*
G02*
X16102930Y-10414000I49530J0D01*
G01*
X16102930Y-10843000D02*
G75*
G02*
X16003870Y-10843000I-49530J0D01*
G01*
X16003870Y-10843000D02*
G75*
G02*
X16102930Y-10843000I49530J0D01*
G01*
X16318930Y-6886200D02*
G75*
G02*
X16219870Y-6886200I-49530J0D01*
G01*
X16219870Y-6886200D02*
G75*
G02*
X16318930Y-6886200I49530J0D01*
G01*
X16318930Y-7315200D02*
G75*
G02*
X16219870Y-7315200I-49530J0D01*
G01*
X16219870Y-7315200D02*
G75*
G02*
X16318930Y-7315200I49530J0D01*
G01*
X16318930Y-10414000D02*
G75*
G02*
X16219870Y-10414000I-49530J0D01*
G01*
X16219870Y-10414000D02*
G75*
G02*
X16318930Y-10414000I49530J0D01*
G01*
X16318930Y-10843000D02*
G75*
G02*
X16219870Y-10843000I-49530J0D01*
G01*
X16219870Y-10843000D02*
G75*
G02*
X16318930Y-10843000I49530J0D01*
G01*
X12776200Y-9805200D02*
X12776200Y-9905200D01*
X12726200Y-9855200D02*
X12826200Y-9855200D01*
X13030200Y-9805200D02*
X13030200Y-9905200D01*
X12980200Y-9855200D02*
X13080200Y-9855200D01*
X13690600Y-7900200D02*
X13690600Y-8000200D01*
X13640600Y-7950200D02*
X13740600Y-7950200D01*
X13690600Y-8687600D02*
X13690600Y-8787600D01*
X13640600Y-8737600D02*
X13740600Y-8737600D01*
X13690600Y-8941600D02*
X13690600Y-9041600D01*
X13640600Y-8991600D02*
X13740600Y-8991600D01*
X13690600Y-9729000D02*
X13690600Y-9829000D01*
X13640600Y-9779000D02*
X13740600Y-9779000D01*
X13944600Y-7900200D02*
X13944600Y-8000200D01*
X13894600Y-7950200D02*
X13994600Y-7950200D01*
X13944600Y-8687600D02*
X13944600Y-8787600D01*
X13894600Y-8737600D02*
X13994600Y-8737600D01*
X13944600Y-8941600D02*
X13944600Y-9041600D01*
X13894600Y-8991600D02*
X13994600Y-8991600D01*
X13944600Y-9729000D02*
X13944600Y-9829000D01*
X13894600Y-9779000D02*
X13994600Y-9779000D01*
X14198600Y-7900200D02*
X14198600Y-8000200D01*
X14148600Y-7950200D02*
X14248600Y-7950200D01*
X14198600Y-8687600D02*
X14198600Y-8787600D01*
X14148600Y-8737600D02*
X14248600Y-8737600D01*
X14198600Y-8941600D02*
X14198600Y-9041600D01*
X14148600Y-8991600D02*
X14248600Y-8991600D01*
X14198600Y-9729000D02*
X14198600Y-9829000D01*
X14148600Y-9779000D02*
X14248600Y-9779000D01*
X14452600Y-7900200D02*
X14452600Y-8000200D01*
X14402600Y-7950200D02*
X14502600Y-7950200D01*
X14452600Y-8687600D02*
X14452600Y-8787600D01*
X14402600Y-8737600D02*
X14502600Y-8737600D01*
X14452600Y-8941600D02*
X14452600Y-9041600D01*
X14402600Y-8991600D02*
X14502600Y-8991600D01*
X14452600Y-9729000D02*
X14452600Y-9829000D01*
X14402600Y-9779000D02*
X14502600Y-9779000D01*
X14706600Y-7900200D02*
X14706600Y-8000200D01*
X14656600Y-7950200D02*
X14756600Y-7950200D01*
X14706600Y-8687600D02*
X14706600Y-8787600D01*
X14656600Y-8737600D02*
X14756600Y-8737600D01*
X14706600Y-8941600D02*
X14706600Y-9041600D01*
X14656600Y-8991600D02*
X14756600Y-8991600D01*
X14706600Y-9729000D02*
X14706600Y-9829000D01*
X14656600Y-9779000D02*
X14756600Y-9779000D01*
X14960600Y-7900200D02*
X14960600Y-8000200D01*
X14910600Y-7950200D02*
X15010600Y-7950200D01*
X14960600Y-8687600D02*
X14960600Y-8787600D01*
X14910600Y-8737600D02*
X15010600Y-8737600D01*
X14960600Y-8941600D02*
X14960600Y-9041600D01*
X14910600Y-8991600D02*
X15010600Y-8991600D01*
X14960600Y-9729000D02*
X14960600Y-9829000D01*
X14910600Y-9779000D02*
X15010600Y-9779000D01*
X15214600Y-7900200D02*
X15214600Y-8000200D01*
X15164600Y-7950200D02*
X15264600Y-7950200D01*
X15214600Y-8687600D02*
X15214600Y-8787600D01*
X15164600Y-8737600D02*
X15264600Y-8737600D01*
X15214600Y-8941600D02*
X15214600Y-9041600D01*
X15164600Y-8991600D02*
X15264600Y-8991600D01*
X15214600Y-9729000D02*
X15214600Y-9829000D01*
X15164600Y-9779000D02*
X15264600Y-9779000D01*
X15468600Y-7900200D02*
X15468600Y-8000200D01*
X15418600Y-7950200D02*
X15518600Y-7950200D01*
X15468600Y-8687600D02*
X15468600Y-8787600D01*
X15418600Y-8737600D02*
X15518600Y-8737600D01*
X15468600Y-8941600D02*
X15468600Y-9041600D01*
X15418600Y-8991600D02*
X15518600Y-8991600D01*
X15468600Y-9729000D02*
X15468600Y-9829000D01*
X15418600Y-9779000D02*
X15518600Y-9779000D01*
X15722600Y-7900200D02*
X15722600Y-8000200D01*
X15672600Y-7950200D02*
X15772600Y-7950200D01*
X15722600Y-8687600D02*
X15722600Y-8787600D01*
X15672600Y-8737600D02*
X15772600Y-8737600D01*
X15722600Y-8941600D02*
X15722600Y-9041600D01*
X15672600Y-8991600D02*
X15772600Y-8991600D01*
X15722600Y-9729000D02*
X15722600Y-9829000D01*
X15672600Y-9779000D02*
X15772600Y-9779000D01*
X15976600Y-7900200D02*
X15976600Y-8000200D01*
X15926600Y-7950200D02*
X16026600Y-7950200D01*
X15976600Y-8687600D02*
X15976600Y-8787600D01*
X15926600Y-8737600D02*
X16026600Y-8737600D01*
X15976600Y-8941600D02*
X15976600Y-9041600D01*
X15926600Y-8991600D02*
X16026600Y-8991600D01*
X15976600Y-9729000D02*
X15976600Y-9829000D01*
X15926600Y-9779000D02*
X16026600Y-9779000D01*
X16230600Y-7900200D02*
X16230600Y-8000200D01*
X16180600Y-7950200D02*
X16280600Y-7950200D01*
X16230600Y-8687600D02*
X16230600Y-8787600D01*
X16180600Y-8737600D02*
X16280600Y-8737600D01*
X16230600Y-8941600D02*
X16230600Y-9041600D01*
X16180600Y-8991600D02*
X16280600Y-8991600D01*
X16230600Y-9729000D02*
X16230600Y-9829000D01*
X16180600Y-9779000D02*
X16280600Y-9779000D01*
X16484600Y-7900200D02*
X16484600Y-8000200D01*
X16434600Y-7950200D02*
X16534600Y-7950200D01*
X16484600Y-8687600D02*
X16484600Y-8787600D01*
X16434600Y-8737600D02*
X16534600Y-8737600D01*
X16484600Y-8941600D02*
X16484600Y-9041600D01*
X16434600Y-8991600D02*
X16534600Y-8991600D01*
X16484600Y-9729000D02*
X16484600Y-9829000D01*
X16434600Y-9779000D02*
X16534600Y-9779000D01*
D13*
X12847467Y-7206767D02*
X12847467Y-6994633D01*
X12635333Y-6994633D01*
X12635333Y-7206767D01*
X12847467Y-7206767D01*
X12847467Y-10734567D02*
X12847467Y-10522433D01*
X12635333Y-10522433D01*
X12635333Y-10734567D01*
X12847467Y-10734567D01*
X17527468Y-7206767D02*
X17527468Y-6994633D01*
X17315334Y-6994633D01*
X17315334Y-7206767D01*
X17527468Y-7206767D01*
X17527468Y-10734567D02*
X17527468Y-10522433D01*
X17315334Y-10522433D01*
X17315334Y-10734567D01*
X17527468Y-10734567D01*
D11*
X12511477Y-12050184D02*
X12511477Y-11850184D01*
X12511477Y-11850184D02*
X12559096Y-11850184D01*
X12559096Y-11850184D02*
X12587667Y-11859708D01*
X12587667Y-11859708D02*
X12606715Y-11878755D01*
X12606715Y-11878755D02*
X12616239Y-11897803D01*
X12616239Y-11897803D02*
X12625762Y-11935898D01*
X12625762Y-11935898D02*
X12625762Y-11964469D01*
X12625762Y-11964469D02*
X12616239Y-12002565D01*
X12616239Y-12002565D02*
X12606715Y-12021612D01*
X12606715Y-12021612D02*
X12587667Y-12040660D01*
X12587667Y-12040660D02*
X12559096Y-12050184D01*
X12559096Y-12050184D02*
X12511477Y-12050184D01*
X12711477Y-12050184D02*
X12711477Y-11916850D01*
X12711477Y-11954946D02*
X12721001Y-11935898D01*
X12721001Y-11935898D02*
X12730524Y-11926374D01*
X12730524Y-11926374D02*
X12749572Y-11916850D01*
X12749572Y-11916850D02*
X12768620Y-11916850D01*
X12835286Y-12050184D02*
X12835286Y-11916850D01*
X12835286Y-11850184D02*
X12825762Y-11859708D01*
X12825762Y-11859708D02*
X12835286Y-11869231D01*
X12835286Y-11869231D02*
X12844810Y-11859708D01*
X12844810Y-11859708D02*
X12835286Y-11850184D01*
X12835286Y-11850184D02*
X12835286Y-11869231D01*
X12959096Y-12050184D02*
X12940048Y-12040660D01*
X12940048Y-12040660D02*
X12930524Y-12021612D01*
X12930524Y-12021612D02*
X12930524Y-11850184D01*
X13063858Y-12050184D02*
X13044810Y-12040660D01*
X13044810Y-12040660D02*
X13035286Y-12021612D01*
X13035286Y-12021612D02*
X13035286Y-11850184D01*
X13292429Y-12050184D02*
X13292429Y-11850184D01*
X13292429Y-11850184D02*
X13359096Y-11993041D01*
X13359096Y-11993041D02*
X13425762Y-11850184D01*
X13425762Y-11850184D02*
X13425762Y-12050184D01*
X13606715Y-12050184D02*
X13606715Y-11945422D01*
X13606715Y-11945422D02*
X13597191Y-11926374D01*
X13597191Y-11926374D02*
X13578143Y-11916850D01*
X13578143Y-11916850D02*
X13540048Y-11916850D01*
X13540048Y-11916850D02*
X13521001Y-11926374D01*
X13606715Y-12040660D02*
X13587667Y-12050184D01*
X13587667Y-12050184D02*
X13540048Y-12050184D01*
X13540048Y-12050184D02*
X13521001Y-12040660D01*
X13521001Y-12040660D02*
X13511477Y-12021612D01*
X13511477Y-12021612D02*
X13511477Y-12002565D01*
X13511477Y-12002565D02*
X13521001Y-11983517D01*
X13521001Y-11983517D02*
X13540048Y-11973993D01*
X13540048Y-11973993D02*
X13587667Y-11973993D01*
X13587667Y-11973993D02*
X13606715Y-11964469D01*
X13701953Y-11916850D02*
X13701953Y-12116850D01*
X13701953Y-11926374D02*
X13721001Y-11916850D01*
X13721001Y-11916850D02*
X13759096Y-11916850D01*
X13759096Y-11916850D02*
X13778143Y-11926374D01*
X13778143Y-11926374D02*
X13787667Y-11935898D01*
X13787667Y-11935898D02*
X13797191Y-11954946D01*
X13797191Y-11954946D02*
X13797191Y-12012088D01*
X13797191Y-12012088D02*
X13787667Y-12031136D01*
X13787667Y-12031136D02*
X13778143Y-12040660D01*
X13778143Y-12040660D02*
X13759096Y-12050184D01*
X13759096Y-12050184D02*
X13721001Y-12050184D01*
X13721001Y-12050184D02*
X13701953Y-12040660D01*
X13882905Y-12031136D02*
X13892429Y-12040660D01*
X13892429Y-12040660D02*
X13882905Y-12050184D01*
X13882905Y-12050184D02*
X13873382Y-12040660D01*
X13873382Y-12040660D02*
X13882905Y-12031136D01*
X13882905Y-12031136D02*
X13882905Y-12050184D01*
X13882905Y-11926374D02*
X13892429Y-11935898D01*
X13892429Y-11935898D02*
X13882905Y-11945422D01*
X13882905Y-11945422D02*
X13873382Y-11935898D01*
X13873382Y-11935898D02*
X13882905Y-11926374D01*
X13882905Y-11926374D02*
X13882905Y-11945422D01*
D12*
X12220700Y-12363700D02*
X12250700Y-12393700D01*
X12250700Y-12363700D02*
X12220700Y-12393700D01*
D11*
X12549572Y-12270184D02*
X12568620Y-12270184D01*
X12568620Y-12270184D02*
X12587667Y-12279708D01*
X12587667Y-12279708D02*
X12597191Y-12289231D01*
X12597191Y-12289231D02*
X12606715Y-12308279D01*
X12606715Y-12308279D02*
X12616239Y-12346374D01*
X12616239Y-12346374D02*
X12616239Y-12393993D01*
X12616239Y-12393993D02*
X12606715Y-12432088D01*
X12606715Y-12432088D02*
X12597191Y-12451136D01*
X12597191Y-12451136D02*
X12587667Y-12460660D01*
X12587667Y-12460660D02*
X12568620Y-12470184D01*
X12568620Y-12470184D02*
X12549572Y-12470184D01*
X12549572Y-12470184D02*
X12530524Y-12460660D01*
X12530524Y-12460660D02*
X12521001Y-12451136D01*
X12521001Y-12451136D02*
X12511477Y-12432088D01*
X12511477Y-12432088D02*
X12501953Y-12393993D01*
X12501953Y-12393993D02*
X12501953Y-12346374D01*
X12501953Y-12346374D02*
X12511477Y-12308279D01*
X12511477Y-12308279D02*
X12521001Y-12289231D01*
X12521001Y-12289231D02*
X12530524Y-12279708D01*
X12530524Y-12279708D02*
X12549572Y-12270184D01*
X12701953Y-12451136D02*
X12711477Y-12460660D01*
X12711477Y-12460660D02*
X12701953Y-12470184D01*
X12701953Y-12470184D02*
X12692429Y-12460660D01*
X12692429Y-12460660D02*
X12701953Y-12451136D01*
X12701953Y-12451136D02*
X12701953Y-12470184D01*
X12778143Y-12270184D02*
X12901953Y-12270184D01*
X12901953Y-12270184D02*
X12835286Y-12346374D01*
X12835286Y-12346374D02*
X12863858Y-12346374D01*
X12863858Y-12346374D02*
X12882905Y-12355898D01*
X12882905Y-12355898D02*
X12892429Y-12365422D01*
X12892429Y-12365422D02*
X12901953Y-12384469D01*
X12901953Y-12384469D02*
X12901953Y-12432088D01*
X12901953Y-12432088D02*
X12892429Y-12451136D01*
X12892429Y-12451136D02*
X12882905Y-12460660D01*
X12882905Y-12460660D02*
X12863858Y-12470184D01*
X12863858Y-12470184D02*
X12806715Y-12470184D01*
X12806715Y-12470184D02*
X12787667Y-12460660D01*
X12787667Y-12460660D02*
X12778143Y-12451136D01*
X13025762Y-12270184D02*
X13044810Y-12270184D01*
X13044810Y-12270184D02*
X13063858Y-12279708D01*
X13063858Y-12279708D02*
X13073382Y-12289231D01*
X13073382Y-12289231D02*
X13082905Y-12308279D01*
X13082905Y-12308279D02*
X13092429Y-12346374D01*
X13092429Y-12346374D02*
X13092429Y-12393993D01*
X13092429Y-12393993D02*
X13082905Y-12432088D01*
X13082905Y-12432088D02*
X13073382Y-12451136D01*
X13073382Y-12451136D02*
X13063858Y-12460660D01*
X13063858Y-12460660D02*
X13044810Y-12470184D01*
X13044810Y-12470184D02*
X13025762Y-12470184D01*
X13025762Y-12470184D02*
X13006715Y-12460660D01*
X13006715Y-12460660D02*
X12997191Y-12451136D01*
X12997191Y-12451136D02*
X12987667Y-12432088D01*
X12987667Y-12432088D02*
X12978143Y-12393993D01*
X12978143Y-12393993D02*
X12978143Y-12346374D01*
X12978143Y-12346374D02*
X12987667Y-12308279D01*
X12987667Y-12308279D02*
X12997191Y-12289231D01*
X12997191Y-12289231D02*
X13006715Y-12279708D01*
X13006715Y-12279708D02*
X13025762Y-12270184D01*
X13216239Y-12270184D02*
X13235286Y-12270184D01*
X13235286Y-12270184D02*
X13254334Y-12279708D01*
X13254334Y-12279708D02*
X13263858Y-12289231D01*
X13263858Y-12289231D02*
X13273382Y-12308279D01*
X13273382Y-12308279D02*
X13282905Y-12346374D01*
X13282905Y-12346374D02*
X13282905Y-12393993D01*
X13282905Y-12393993D02*
X13273382Y-12432088D01*
X13273382Y-12432088D02*
X13263858Y-12451136D01*
X13263858Y-12451136D02*
X13254334Y-12460660D01*
X13254334Y-12460660D02*
X13235286Y-12470184D01*
X13235286Y-12470184D02*
X13216239Y-12470184D01*
X13216239Y-12470184D02*
X13197191Y-12460660D01*
X13197191Y-12460660D02*
X13187667Y-12451136D01*
X13187667Y-12451136D02*
X13178143Y-12432088D01*
X13178143Y-12432088D02*
X13168620Y-12393993D01*
X13168620Y-12393993D02*
X13168620Y-12346374D01*
X13168620Y-12346374D02*
X13178143Y-12308279D01*
X13178143Y-12308279D02*
X13187667Y-12289231D01*
X13187667Y-12289231D02*
X13197191Y-12279708D01*
X13197191Y-12279708D02*
X13216239Y-12270184D01*
X13368620Y-12470184D02*
X13368620Y-12336850D01*
X13368620Y-12355898D02*
X13378143Y-12346374D01*
X13378143Y-12346374D02*
X13397191Y-12336850D01*
X13397191Y-12336850D02*
X13425763Y-12336850D01*
X13425763Y-12336850D02*
X13444810Y-12346374D01*
X13444810Y-12346374D02*
X13454334Y-12365422D01*
X13454334Y-12365422D02*
X13454334Y-12470184D01*
X13454334Y-12365422D02*
X13463858Y-12346374D01*
X13463858Y-12346374D02*
X13482905Y-12336850D01*
X13482905Y-12336850D02*
X13511477Y-12336850D01*
X13511477Y-12336850D02*
X13530524Y-12346374D01*
X13530524Y-12346374D02*
X13540048Y-12365422D01*
X13540048Y-12365422D02*
X13540048Y-12470184D01*
X13635286Y-12470184D02*
X13635286Y-12336850D01*
X13635286Y-12355898D02*
X13644810Y-12346374D01*
X13644810Y-12346374D02*
X13663858Y-12336850D01*
X13663858Y-12336850D02*
X13692429Y-12336850D01*
X13692429Y-12336850D02*
X13711477Y-12346374D01*
X13711477Y-12346374D02*
X13721001Y-12365422D01*
X13721001Y-12365422D02*
X13721001Y-12470184D01*
X13721001Y-12365422D02*
X13730524Y-12346374D01*
X13730524Y-12346374D02*
X13749572Y-12336850D01*
X13749572Y-12336850D02*
X13778143Y-12336850D01*
X13778143Y-12336850D02*
X13797191Y-12346374D01*
X13797191Y-12346374D02*
X13806715Y-12365422D01*
X13806715Y-12365422D02*
X13806715Y-12470184D01*
X14197191Y-12260660D02*
X14025763Y-12517803D01*
X14454334Y-12270184D02*
X14473382Y-12270184D01*
X14473382Y-12270184D02*
X14492429Y-12279708D01*
X14492429Y-12279708D02*
X14501953Y-12289231D01*
X14501953Y-12289231D02*
X14511477Y-12308279D01*
X14511477Y-12308279D02*
X14521001Y-12346374D01*
X14521001Y-12346374D02*
X14521001Y-12393993D01*
X14521001Y-12393993D02*
X14511477Y-12432088D01*
X14511477Y-12432088D02*
X14501953Y-12451136D01*
X14501953Y-12451136D02*
X14492429Y-12460660D01*
X14492429Y-12460660D02*
X14473382Y-12470184D01*
X14473382Y-12470184D02*
X14454334Y-12470184D01*
X14454334Y-12470184D02*
X14435286Y-12460660D01*
X14435286Y-12460660D02*
X14425763Y-12451136D01*
X14425763Y-12451136D02*
X14416239Y-12432088D01*
X14416239Y-12432088D02*
X14406715Y-12393993D01*
X14406715Y-12393993D02*
X14406715Y-12346374D01*
X14406715Y-12346374D02*
X14416239Y-12308279D01*
X14416239Y-12308279D02*
X14425763Y-12289231D01*
X14425763Y-12289231D02*
X14435286Y-12279708D01*
X14435286Y-12279708D02*
X14454334Y-12270184D01*
X14606715Y-12451136D02*
X14616239Y-12460660D01*
X14616239Y-12460660D02*
X14606715Y-12470184D01*
X14606715Y-12470184D02*
X14597191Y-12460660D01*
X14597191Y-12460660D02*
X14606715Y-12451136D01*
X14606715Y-12451136D02*
X14606715Y-12470184D01*
X14740048Y-12270184D02*
X14759096Y-12270184D01*
X14759096Y-12270184D02*
X14778144Y-12279708D01*
X14778144Y-12279708D02*
X14787667Y-12289231D01*
X14787667Y-12289231D02*
X14797191Y-12308279D01*
X14797191Y-12308279D02*
X14806715Y-12346374D01*
X14806715Y-12346374D02*
X14806715Y-12393993D01*
X14806715Y-12393993D02*
X14797191Y-12432088D01*
X14797191Y-12432088D02*
X14787667Y-12451136D01*
X14787667Y-12451136D02*
X14778144Y-12460660D01*
X14778144Y-12460660D02*
X14759096Y-12470184D01*
X14759096Y-12470184D02*
X14740048Y-12470184D01*
X14740048Y-12470184D02*
X14721001Y-12460660D01*
X14721001Y-12460660D02*
X14711477Y-12451136D01*
X14711477Y-12451136D02*
X14701953Y-12432088D01*
X14701953Y-12432088D02*
X14692429Y-12393993D01*
X14692429Y-12393993D02*
X14692429Y-12346374D01*
X14692429Y-12346374D02*
X14701953Y-12308279D01*
X14701953Y-12308279D02*
X14711477Y-12289231D01*
X14711477Y-12289231D02*
X14721001Y-12279708D01*
X14721001Y-12279708D02*
X14740048Y-12270184D01*
X14997191Y-12470184D02*
X14882906Y-12470184D01*
X14940048Y-12470184D02*
X14940048Y-12270184D01*
X14940048Y-12270184D02*
X14921001Y-12298755D01*
X14921001Y-12298755D02*
X14901953Y-12317803D01*
X14901953Y-12317803D02*
X14882906Y-12327327D01*
X15187667Y-12470184D02*
X15073382Y-12470184D01*
X15130525Y-12470184D02*
X15130525Y-12270184D01*
X15130525Y-12270184D02*
X15111477Y-12298755D01*
X15111477Y-12298755D02*
X15092429Y-12317803D01*
X15092429Y-12317803D02*
X15073382Y-12327327D01*
X15301953Y-12355898D02*
X15282906Y-12346374D01*
X15282906Y-12346374D02*
X15273382Y-12336850D01*
X15273382Y-12336850D02*
X15263858Y-12317803D01*
X15263858Y-12317803D02*
X15263858Y-12308279D01*
X15263858Y-12308279D02*
X15273382Y-12289231D01*
X15273382Y-12289231D02*
X15282906Y-12279708D01*
X15282906Y-12279708D02*
X15301953Y-12270184D01*
X15301953Y-12270184D02*
X15340048Y-12270184D01*
X15340048Y-12270184D02*
X15359096Y-12279708D01*
X15359096Y-12279708D02*
X15368620Y-12289231D01*
X15368620Y-12289231D02*
X15378144Y-12308279D01*
X15378144Y-12308279D02*
X15378144Y-12317803D01*
X15378144Y-12317803D02*
X15368620Y-12336850D01*
X15368620Y-12336850D02*
X15359096Y-12346374D01*
X15359096Y-12346374D02*
X15340048Y-12355898D01*
X15340048Y-12355898D02*
X15301953Y-12355898D01*
X15301953Y-12355898D02*
X15282906Y-12365422D01*
X15282906Y-12365422D02*
X15273382Y-12374946D01*
X15273382Y-12374946D02*
X15263858Y-12393993D01*
X15263858Y-12393993D02*
X15263858Y-12432088D01*
X15263858Y-12432088D02*
X15273382Y-12451136D01*
X15273382Y-12451136D02*
X15282906Y-12460660D01*
X15282906Y-12460660D02*
X15301953Y-12470184D01*
X15301953Y-12470184D02*
X15340048Y-12470184D01*
X15340048Y-12470184D02*
X15359096Y-12460660D01*
X15359096Y-12460660D02*
X15368620Y-12451136D01*
X15368620Y-12451136D02*
X15378144Y-12432088D01*
X15378144Y-12432088D02*
X15378144Y-12393993D01*
X15378144Y-12393993D02*
X15368620Y-12374946D01*
X15368620Y-12374946D02*
X15359096Y-12365422D01*
X15359096Y-12365422D02*
X15340048Y-12355898D01*
X15454334Y-12270184D02*
X15454334Y-12308279D01*
X15530525Y-12270184D02*
X15530525Y-12308279D01*
X15825763Y-12546374D02*
X15816239Y-12536850D01*
X15816239Y-12536850D02*
X15797191Y-12508279D01*
X15797191Y-12508279D02*
X15787668Y-12489231D01*
X15787668Y-12489231D02*
X15778144Y-12460660D01*
X15778144Y-12460660D02*
X15768620Y-12413041D01*
X15768620Y-12413041D02*
X15768620Y-12374946D01*
X15768620Y-12374946D02*
X15778144Y-12327327D01*
X15778144Y-12327327D02*
X15787668Y-12298755D01*
X15787668Y-12298755D02*
X15797191Y-12279708D01*
X15797191Y-12279708D02*
X15816239Y-12251136D01*
X15816239Y-12251136D02*
X15825763Y-12241612D01*
X16006715Y-12470184D02*
X15892429Y-12470184D01*
X15949572Y-12470184D02*
X15949572Y-12270184D01*
X15949572Y-12270184D02*
X15930525Y-12298755D01*
X15930525Y-12298755D02*
X15911477Y-12317803D01*
X15911477Y-12317803D02*
X15892429Y-12327327D01*
X16244810Y-12470184D02*
X16244810Y-12270184D01*
X16330525Y-12470184D02*
X16330525Y-12365422D01*
X16330525Y-12365422D02*
X16321001Y-12346374D01*
X16321001Y-12346374D02*
X16301953Y-12336850D01*
X16301953Y-12336850D02*
X16273382Y-12336850D01*
X16273382Y-12336850D02*
X16254334Y-12346374D01*
X16254334Y-12346374D02*
X16244810Y-12355898D01*
X16454334Y-12470184D02*
X16435287Y-12460660D01*
X16435287Y-12460660D02*
X16425763Y-12451136D01*
X16425763Y-12451136D02*
X16416239Y-12432088D01*
X16416239Y-12432088D02*
X16416239Y-12374946D01*
X16416239Y-12374946D02*
X16425763Y-12355898D01*
X16425763Y-12355898D02*
X16435287Y-12346374D01*
X16435287Y-12346374D02*
X16454334Y-12336850D01*
X16454334Y-12336850D02*
X16482906Y-12336850D01*
X16482906Y-12336850D02*
X16501953Y-12346374D01*
X16501953Y-12346374D02*
X16511477Y-12355898D01*
X16511477Y-12355898D02*
X16521001Y-12374946D01*
X16521001Y-12374946D02*
X16521001Y-12432088D01*
X16521001Y-12432088D02*
X16511477Y-12451136D01*
X16511477Y-12451136D02*
X16501953Y-12460660D01*
X16501953Y-12460660D02*
X16482906Y-12470184D01*
X16482906Y-12470184D02*
X16454334Y-12470184D01*
X16635287Y-12470184D02*
X16616239Y-12460660D01*
X16616239Y-12460660D02*
X16606715Y-12441612D01*
X16606715Y-12441612D02*
X16606715Y-12270184D01*
X16787668Y-12460660D02*
X16768620Y-12470184D01*
X16768620Y-12470184D02*
X16730525Y-12470184D01*
X16730525Y-12470184D02*
X16711477Y-12460660D01*
X16711477Y-12460660D02*
X16701953Y-12441612D01*
X16701953Y-12441612D02*
X16701953Y-12365422D01*
X16701953Y-12365422D02*
X16711477Y-12346374D01*
X16711477Y-12346374D02*
X16730525Y-12336850D01*
X16730525Y-12336850D02*
X16768620Y-12336850D01*
X16768620Y-12336850D02*
X16787668Y-12346374D01*
X16787668Y-12346374D02*
X16797192Y-12365422D01*
X16797192Y-12365422D02*
X16797192Y-12384469D01*
X16797192Y-12384469D02*
X16701953Y-12403517D01*
X16863858Y-12546374D02*
X16873382Y-12536850D01*
X16873382Y-12536850D02*
X16892430Y-12508279D01*
X16892430Y-12508279D02*
X16901953Y-12489231D01*
X16901953Y-12489231D02*
X16911477Y-12460660D01*
X16911477Y-12460660D02*
X16921001Y-12413041D01*
X16921001Y-12413041D02*
X16921001Y-12374946D01*
X16921001Y-12374946D02*
X16911477Y-12327327D01*
X16911477Y-12327327D02*
X16901953Y-12298755D01*
X16901953Y-12298755D02*
X16892430Y-12279708D01*
X16892430Y-12279708D02*
X16873382Y-12251136D01*
X16873382Y-12251136D02*
X16863858Y-12241612D01*
D12*
X12250700Y-12642700D02*
G75*
G02*
X12151640Y-12642700I-49530J0D01*
G01*
X12151640Y-12642700D02*
G75*
G02*
X12250700Y-12642700I49530J0D01*
G01*
D11*
X12549572Y-12534184D02*
X12568620Y-12534184D01*
X12568620Y-12534184D02*
X12587667Y-12543708D01*
X12587667Y-12543708D02*
X12597191Y-12553231D01*
X12597191Y-12553231D02*
X12606715Y-12572279D01*
X12606715Y-12572279D02*
X12616239Y-12610374D01*
X12616239Y-12610374D02*
X12616239Y-12657993D01*
X12616239Y-12657993D02*
X12606715Y-12696088D01*
X12606715Y-12696088D02*
X12597191Y-12715136D01*
X12597191Y-12715136D02*
X12587667Y-12724660D01*
X12587667Y-12724660D02*
X12568620Y-12734184D01*
X12568620Y-12734184D02*
X12549572Y-12734184D01*
X12549572Y-12734184D02*
X12530524Y-12724660D01*
X12530524Y-12724660D02*
X12521001Y-12715136D01*
X12521001Y-12715136D02*
X12511477Y-12696088D01*
X12511477Y-12696088D02*
X12501953Y-12657993D01*
X12501953Y-12657993D02*
X12501953Y-12610374D01*
X12501953Y-12610374D02*
X12511477Y-12572279D01*
X12511477Y-12572279D02*
X12521001Y-12553231D01*
X12521001Y-12553231D02*
X12530524Y-12543708D01*
X12530524Y-12543708D02*
X12549572Y-12534184D01*
X12701953Y-12715136D02*
X12711477Y-12724660D01*
X12711477Y-12724660D02*
X12701953Y-12734184D01*
X12701953Y-12734184D02*
X12692429Y-12724660D01*
X12692429Y-12724660D02*
X12701953Y-12715136D01*
X12701953Y-12715136D02*
X12701953Y-12734184D01*
X12806715Y-12734184D02*
X12844810Y-12734184D01*
X12844810Y-12734184D02*
X12863858Y-12724660D01*
X12863858Y-12724660D02*
X12873382Y-12715136D01*
X12873382Y-12715136D02*
X12892429Y-12686565D01*
X12892429Y-12686565D02*
X12901953Y-12648469D01*
X12901953Y-12648469D02*
X12901953Y-12572279D01*
X12901953Y-12572279D02*
X12892429Y-12553231D01*
X12892429Y-12553231D02*
X12882905Y-12543708D01*
X12882905Y-12543708D02*
X12863858Y-12534184D01*
X12863858Y-12534184D02*
X12825762Y-12534184D01*
X12825762Y-12534184D02*
X12806715Y-12543708D01*
X12806715Y-12543708D02*
X12797191Y-12553231D01*
X12797191Y-12553231D02*
X12787667Y-12572279D01*
X12787667Y-12572279D02*
X12787667Y-12619898D01*
X12787667Y-12619898D02*
X12797191Y-12638946D01*
X12797191Y-12638946D02*
X12806715Y-12648469D01*
X12806715Y-12648469D02*
X12825762Y-12657993D01*
X12825762Y-12657993D02*
X12863858Y-12657993D01*
X12863858Y-12657993D02*
X12882905Y-12648469D01*
X12882905Y-12648469D02*
X12892429Y-12638946D01*
X12892429Y-12638946D02*
X12901953Y-12619898D01*
X12997191Y-12734184D02*
X13035286Y-12734184D01*
X13035286Y-12734184D02*
X13054334Y-12724660D01*
X13054334Y-12724660D02*
X13063858Y-12715136D01*
X13063858Y-12715136D02*
X13082905Y-12686565D01*
X13082905Y-12686565D02*
X13092429Y-12648469D01*
X13092429Y-12648469D02*
X13092429Y-12572279D01*
X13092429Y-12572279D02*
X13082905Y-12553231D01*
X13082905Y-12553231D02*
X13073382Y-12543708D01*
X13073382Y-12543708D02*
X13054334Y-12534184D01*
X13054334Y-12534184D02*
X13016239Y-12534184D01*
X13016239Y-12534184D02*
X12997191Y-12543708D01*
X12997191Y-12543708D02*
X12987667Y-12553231D01*
X12987667Y-12553231D02*
X12978143Y-12572279D01*
X12978143Y-12572279D02*
X12978143Y-12619898D01*
X12978143Y-12619898D02*
X12987667Y-12638946D01*
X12987667Y-12638946D02*
X12997191Y-12648469D01*
X12997191Y-12648469D02*
X13016239Y-12657993D01*
X13016239Y-12657993D02*
X13054334Y-12657993D01*
X13054334Y-12657993D02*
X13073382Y-12648469D01*
X13073382Y-12648469D02*
X13082905Y-12638946D01*
X13082905Y-12638946D02*
X13092429Y-12619898D01*
X13282905Y-12734184D02*
X13168620Y-12734184D01*
X13225762Y-12734184D02*
X13225762Y-12534184D01*
X13225762Y-12534184D02*
X13206715Y-12562755D01*
X13206715Y-12562755D02*
X13187667Y-12581803D01*
X13187667Y-12581803D02*
X13168620Y-12591327D01*
X13368620Y-12734184D02*
X13368620Y-12600850D01*
X13368620Y-12619898D02*
X13378143Y-12610374D01*
X13378143Y-12610374D02*
X13397191Y-12600850D01*
X13397191Y-12600850D02*
X13425763Y-12600850D01*
X13425763Y-12600850D02*
X13444810Y-12610374D01*
X13444810Y-12610374D02*
X13454334Y-12629422D01*
X13454334Y-12629422D02*
X13454334Y-12734184D01*
X13454334Y-12629422D02*
X13463858Y-12610374D01*
X13463858Y-12610374D02*
X13482905Y-12600850D01*
X13482905Y-12600850D02*
X13511477Y-12600850D01*
X13511477Y-12600850D02*
X13530524Y-12610374D01*
X13530524Y-12610374D02*
X13540048Y-12629422D01*
X13540048Y-12629422D02*
X13540048Y-12734184D01*
X13635286Y-12734184D02*
X13635286Y-12600850D01*
X13635286Y-12619898D02*
X13644810Y-12610374D01*
X13644810Y-12610374D02*
X13663858Y-12600850D01*
X13663858Y-12600850D02*
X13692429Y-12600850D01*
X13692429Y-12600850D02*
X13711477Y-12610374D01*
X13711477Y-12610374D02*
X13721001Y-12629422D01*
X13721001Y-12629422D02*
X13721001Y-12734184D01*
X13721001Y-12629422D02*
X13730524Y-12610374D01*
X13730524Y-12610374D02*
X13749572Y-12600850D01*
X13749572Y-12600850D02*
X13778143Y-12600850D01*
X13778143Y-12600850D02*
X13797191Y-12610374D01*
X13797191Y-12610374D02*
X13806715Y-12629422D01*
X13806715Y-12629422D02*
X13806715Y-12734184D01*
X14197191Y-12524660D02*
X14025763Y-12781803D01*
X14454334Y-12534184D02*
X14473382Y-12534184D01*
X14473382Y-12534184D02*
X14492429Y-12543708D01*
X14492429Y-12543708D02*
X14501953Y-12553231D01*
X14501953Y-12553231D02*
X14511477Y-12572279D01*
X14511477Y-12572279D02*
X14521001Y-12610374D01*
X14521001Y-12610374D02*
X14521001Y-12657993D01*
X14521001Y-12657993D02*
X14511477Y-12696088D01*
X14511477Y-12696088D02*
X14501953Y-12715136D01*
X14501953Y-12715136D02*
X14492429Y-12724660D01*
X14492429Y-12724660D02*
X14473382Y-12734184D01*
X14473382Y-12734184D02*
X14454334Y-12734184D01*
X14454334Y-12734184D02*
X14435286Y-12724660D01*
X14435286Y-12724660D02*
X14425763Y-12715136D01*
X14425763Y-12715136D02*
X14416239Y-12696088D01*
X14416239Y-12696088D02*
X14406715Y-12657993D01*
X14406715Y-12657993D02*
X14406715Y-12610374D01*
X14406715Y-12610374D02*
X14416239Y-12572279D01*
X14416239Y-12572279D02*
X14425763Y-12553231D01*
X14425763Y-12553231D02*
X14435286Y-12543708D01*
X14435286Y-12543708D02*
X14454334Y-12534184D01*
X14606715Y-12715136D02*
X14616239Y-12724660D01*
X14616239Y-12724660D02*
X14606715Y-12734184D01*
X14606715Y-12734184D02*
X14597191Y-12724660D01*
X14597191Y-12724660D02*
X14606715Y-12715136D01*
X14606715Y-12715136D02*
X14606715Y-12734184D01*
X14740048Y-12534184D02*
X14759096Y-12534184D01*
X14759096Y-12534184D02*
X14778144Y-12543708D01*
X14778144Y-12543708D02*
X14787667Y-12553231D01*
X14787667Y-12553231D02*
X14797191Y-12572279D01*
X14797191Y-12572279D02*
X14806715Y-12610374D01*
X14806715Y-12610374D02*
X14806715Y-12657993D01*
X14806715Y-12657993D02*
X14797191Y-12696088D01*
X14797191Y-12696088D02*
X14787667Y-12715136D01*
X14787667Y-12715136D02*
X14778144Y-12724660D01*
X14778144Y-12724660D02*
X14759096Y-12734184D01*
X14759096Y-12734184D02*
X14740048Y-12734184D01*
X14740048Y-12734184D02*
X14721001Y-12724660D01*
X14721001Y-12724660D02*
X14711477Y-12715136D01*
X14711477Y-12715136D02*
X14701953Y-12696088D01*
X14701953Y-12696088D02*
X14692429Y-12657993D01*
X14692429Y-12657993D02*
X14692429Y-12610374D01*
X14692429Y-12610374D02*
X14701953Y-12572279D01*
X14701953Y-12572279D02*
X14711477Y-12553231D01*
X14711477Y-12553231D02*
X14721001Y-12543708D01*
X14721001Y-12543708D02*
X14740048Y-12534184D01*
X14873382Y-12534184D02*
X14997191Y-12534184D01*
X14997191Y-12534184D02*
X14930525Y-12610374D01*
X14930525Y-12610374D02*
X14959096Y-12610374D01*
X14959096Y-12610374D02*
X14978144Y-12619898D01*
X14978144Y-12619898D02*
X14987667Y-12629422D01*
X14987667Y-12629422D02*
X14997191Y-12648469D01*
X14997191Y-12648469D02*
X14997191Y-12696088D01*
X14997191Y-12696088D02*
X14987667Y-12715136D01*
X14987667Y-12715136D02*
X14978144Y-12724660D01*
X14978144Y-12724660D02*
X14959096Y-12734184D01*
X14959096Y-12734184D02*
X14901953Y-12734184D01*
X14901953Y-12734184D02*
X14882906Y-12724660D01*
X14882906Y-12724660D02*
X14873382Y-12715136D01*
X15092429Y-12734184D02*
X15130525Y-12734184D01*
X15130525Y-12734184D02*
X15149572Y-12724660D01*
X15149572Y-12724660D02*
X15159096Y-12715136D01*
X15159096Y-12715136D02*
X15178144Y-12686565D01*
X15178144Y-12686565D02*
X15187667Y-12648469D01*
X15187667Y-12648469D02*
X15187667Y-12572279D01*
X15187667Y-12572279D02*
X15178144Y-12553231D01*
X15178144Y-12553231D02*
X15168620Y-12543708D01*
X15168620Y-12543708D02*
X15149572Y-12534184D01*
X15149572Y-12534184D02*
X15111477Y-12534184D01*
X15111477Y-12534184D02*
X15092429Y-12543708D01*
X15092429Y-12543708D02*
X15082906Y-12553231D01*
X15082906Y-12553231D02*
X15073382Y-12572279D01*
X15073382Y-12572279D02*
X15073382Y-12619898D01*
X15073382Y-12619898D02*
X15082906Y-12638946D01*
X15082906Y-12638946D02*
X15092429Y-12648469D01*
X15092429Y-12648469D02*
X15111477Y-12657993D01*
X15111477Y-12657993D02*
X15149572Y-12657993D01*
X15149572Y-12657993D02*
X15168620Y-12648469D01*
X15168620Y-12648469D02*
X15178144Y-12638946D01*
X15178144Y-12638946D02*
X15187667Y-12619898D01*
X15311477Y-12534184D02*
X15330525Y-12534184D01*
X15330525Y-12534184D02*
X15349572Y-12543708D01*
X15349572Y-12543708D02*
X15359096Y-12553231D01*
X15359096Y-12553231D02*
X15368620Y-12572279D01*
X15368620Y-12572279D02*
X15378144Y-12610374D01*
X15378144Y-12610374D02*
X15378144Y-12657993D01*
X15378144Y-12657993D02*
X15368620Y-12696088D01*
X15368620Y-12696088D02*
X15359096Y-12715136D01*
X15359096Y-12715136D02*
X15349572Y-12724660D01*
X15349572Y-12724660D02*
X15330525Y-12734184D01*
X15330525Y-12734184D02*
X15311477Y-12734184D01*
X15311477Y-12734184D02*
X15292429Y-12724660D01*
X15292429Y-12724660D02*
X15282906Y-12715136D01*
X15282906Y-12715136D02*
X15273382Y-12696088D01*
X15273382Y-12696088D02*
X15263858Y-12657993D01*
X15263858Y-12657993D02*
X15263858Y-12610374D01*
X15263858Y-12610374D02*
X15273382Y-12572279D01*
X15273382Y-12572279D02*
X15282906Y-12553231D01*
X15282906Y-12553231D02*
X15292429Y-12543708D01*
X15292429Y-12543708D02*
X15311477Y-12534184D01*
X15454334Y-12534184D02*
X15454334Y-12572279D01*
X15530525Y-12534184D02*
X15530525Y-12572279D01*
X15825763Y-12810374D02*
X15816239Y-12800850D01*
X15816239Y-12800850D02*
X15797191Y-12772279D01*
X15797191Y-12772279D02*
X15787668Y-12753231D01*
X15787668Y-12753231D02*
X15778144Y-12724660D01*
X15778144Y-12724660D02*
X15768620Y-12677041D01*
X15768620Y-12677041D02*
X15768620Y-12638946D01*
X15768620Y-12638946D02*
X15778144Y-12591327D01*
X15778144Y-12591327D02*
X15787668Y-12562755D01*
X15787668Y-12562755D02*
X15797191Y-12543708D01*
X15797191Y-12543708D02*
X15816239Y-12515136D01*
X15816239Y-12515136D02*
X15825763Y-12505612D01*
X15987668Y-12600850D02*
X15987668Y-12734184D01*
X15940048Y-12524660D02*
X15892429Y-12667517D01*
X15892429Y-12667517D02*
X16016239Y-12667517D01*
X16121001Y-12619898D02*
X16101953Y-12610374D01*
X16101953Y-12610374D02*
X16092429Y-12600850D01*
X16092429Y-12600850D02*
X16082906Y-12581803D01*
X16082906Y-12581803D02*
X16082906Y-12572279D01*
X16082906Y-12572279D02*
X16092429Y-12553231D01*
X16092429Y-12553231D02*
X16101953Y-12543708D01*
X16101953Y-12543708D02*
X16121001Y-12534184D01*
X16121001Y-12534184D02*
X16159096Y-12534184D01*
X16159096Y-12534184D02*
X16178144Y-12543708D01*
X16178144Y-12543708D02*
X16187668Y-12553231D01*
X16187668Y-12553231D02*
X16197191Y-12572279D01*
X16197191Y-12572279D02*
X16197191Y-12581803D01*
X16197191Y-12581803D02*
X16187668Y-12600850D01*
X16187668Y-12600850D02*
X16178144Y-12610374D01*
X16178144Y-12610374D02*
X16159096Y-12619898D01*
X16159096Y-12619898D02*
X16121001Y-12619898D01*
X16121001Y-12619898D02*
X16101953Y-12629422D01*
X16101953Y-12629422D02*
X16092429Y-12638946D01*
X16092429Y-12638946D02*
X16082906Y-12657993D01*
X16082906Y-12657993D02*
X16082906Y-12696088D01*
X16082906Y-12696088D02*
X16092429Y-12715136D01*
X16092429Y-12715136D02*
X16101953Y-12724660D01*
X16101953Y-12724660D02*
X16121001Y-12734184D01*
X16121001Y-12734184D02*
X16159096Y-12734184D01*
X16159096Y-12734184D02*
X16178144Y-12724660D01*
X16178144Y-12724660D02*
X16187668Y-12715136D01*
X16187668Y-12715136D02*
X16197191Y-12696088D01*
X16197191Y-12696088D02*
X16197191Y-12657993D01*
X16197191Y-12657993D02*
X16187668Y-12638946D01*
X16187668Y-12638946D02*
X16178144Y-12629422D01*
X16178144Y-12629422D02*
X16159096Y-12619898D01*
X16435287Y-12734184D02*
X16435287Y-12534184D01*
X16521001Y-12734184D02*
X16521001Y-12629422D01*
X16521001Y-12629422D02*
X16511477Y-12610374D01*
X16511477Y-12610374D02*
X16492430Y-12600850D01*
X16492430Y-12600850D02*
X16463858Y-12600850D01*
X16463858Y-12600850D02*
X16444810Y-12610374D01*
X16444810Y-12610374D02*
X16435287Y-12619898D01*
X16644810Y-12734184D02*
X16625763Y-12724660D01*
X16625763Y-12724660D02*
X16616239Y-12715136D01*
X16616239Y-12715136D02*
X16606715Y-12696088D01*
X16606715Y-12696088D02*
X16606715Y-12638946D01*
X16606715Y-12638946D02*
X16616239Y-12619898D01*
X16616239Y-12619898D02*
X16625763Y-12610374D01*
X16625763Y-12610374D02*
X16644810Y-12600850D01*
X16644810Y-12600850D02*
X16673382Y-12600850D01*
X16673382Y-12600850D02*
X16692430Y-12610374D01*
X16692430Y-12610374D02*
X16701953Y-12619898D01*
X16701953Y-12619898D02*
X16711477Y-12638946D01*
X16711477Y-12638946D02*
X16711477Y-12696088D01*
X16711477Y-12696088D02*
X16701953Y-12715136D01*
X16701953Y-12715136D02*
X16692430Y-12724660D01*
X16692430Y-12724660D02*
X16673382Y-12734184D01*
X16673382Y-12734184D02*
X16644810Y-12734184D01*
X16825763Y-12734184D02*
X16806715Y-12724660D01*
X16806715Y-12724660D02*
X16797192Y-12705612D01*
X16797192Y-12705612D02*
X16797192Y-12534184D01*
X16978144Y-12724660D02*
X16959096Y-12734184D01*
X16959096Y-12734184D02*
X16921001Y-12734184D01*
X16921001Y-12734184D02*
X16901953Y-12724660D01*
X16901953Y-12724660D02*
X16892430Y-12705612D01*
X16892430Y-12705612D02*
X16892430Y-12629422D01*
X16892430Y-12629422D02*
X16901953Y-12610374D01*
X16901953Y-12610374D02*
X16921001Y-12600850D01*
X16921001Y-12600850D02*
X16959096Y-12600850D01*
X16959096Y-12600850D02*
X16978144Y-12610374D01*
X16978144Y-12610374D02*
X16987668Y-12629422D01*
X16987668Y-12629422D02*
X16987668Y-12648469D01*
X16987668Y-12648469D02*
X16892430Y-12667517D01*
X17063858Y-12724660D02*
X17082906Y-12734184D01*
X17082906Y-12734184D02*
X17121001Y-12734184D01*
X17121001Y-12734184D02*
X17140049Y-12724660D01*
X17140049Y-12724660D02*
X17149573Y-12705612D01*
X17149573Y-12705612D02*
X17149573Y-12696088D01*
X17149573Y-12696088D02*
X17140049Y-12677041D01*
X17140049Y-12677041D02*
X17121001Y-12667517D01*
X17121001Y-12667517D02*
X17092430Y-12667517D01*
X17092430Y-12667517D02*
X17073382Y-12657993D01*
X17073382Y-12657993D02*
X17063858Y-12638946D01*
X17063858Y-12638946D02*
X17063858Y-12629422D01*
X17063858Y-12629422D02*
X17073382Y-12610374D01*
X17073382Y-12610374D02*
X17092430Y-12600850D01*
X17092430Y-12600850D02*
X17121001Y-12600850D01*
X17121001Y-12600850D02*
X17140049Y-12610374D01*
X17216239Y-12810374D02*
X17225763Y-12800850D01*
X17225763Y-12800850D02*
X17244811Y-12772279D01*
X17244811Y-12772279D02*
X17254334Y-12753231D01*
X17254334Y-12753231D02*
X17263858Y-12724660D01*
X17263858Y-12724660D02*
X17273382Y-12677041D01*
X17273382Y-12677041D02*
X17273382Y-12638946D01*
X17273382Y-12638946D02*
X17263858Y-12591327D01*
X17263858Y-12591327D02*
X17254334Y-12562755D01*
X17254334Y-12562755D02*
X17244811Y-12543708D01*
X17244811Y-12543708D02*
X17225763Y-12515136D01*
X17225763Y-12515136D02*
X17216239Y-12505612D01*
D12*
X12200700Y-12856700D02*
X12200700Y-12956700D01*
X12150700Y-12906700D02*
X12250700Y-12906700D01*
D11*
X12616239Y-12998184D02*
X12501953Y-12998184D01*
X12559096Y-12998184D02*
X12559096Y-12798184D01*
X12559096Y-12798184D02*
X12540048Y-12826755D01*
X12540048Y-12826755D02*
X12521001Y-12845803D01*
X12521001Y-12845803D02*
X12501953Y-12855327D01*
X12701953Y-12979136D02*
X12711477Y-12988660D01*
X12711477Y-12988660D02*
X12701953Y-12998184D01*
X12701953Y-12998184D02*
X12692429Y-12988660D01*
X12692429Y-12988660D02*
X12701953Y-12979136D01*
X12701953Y-12979136D02*
X12701953Y-12998184D01*
X12835286Y-12798184D02*
X12854334Y-12798184D01*
X12854334Y-12798184D02*
X12873382Y-12807708D01*
X12873382Y-12807708D02*
X12882905Y-12817231D01*
X12882905Y-12817231D02*
X12892429Y-12836279D01*
X12892429Y-12836279D02*
X12901953Y-12874374D01*
X12901953Y-12874374D02*
X12901953Y-12921993D01*
X12901953Y-12921993D02*
X12892429Y-12960088D01*
X12892429Y-12960088D02*
X12882905Y-12979136D01*
X12882905Y-12979136D02*
X12873382Y-12988660D01*
X12873382Y-12988660D02*
X12854334Y-12998184D01*
X12854334Y-12998184D02*
X12835286Y-12998184D01*
X12835286Y-12998184D02*
X12816239Y-12988660D01*
X12816239Y-12988660D02*
X12806715Y-12979136D01*
X12806715Y-12979136D02*
X12797191Y-12960088D01*
X12797191Y-12960088D02*
X12787667Y-12921993D01*
X12787667Y-12921993D02*
X12787667Y-12874374D01*
X12787667Y-12874374D02*
X12797191Y-12836279D01*
X12797191Y-12836279D02*
X12806715Y-12817231D01*
X12806715Y-12817231D02*
X12816239Y-12807708D01*
X12816239Y-12807708D02*
X12835286Y-12798184D01*
X13025762Y-12798184D02*
X13044810Y-12798184D01*
X13044810Y-12798184D02*
X13063858Y-12807708D01*
X13063858Y-12807708D02*
X13073382Y-12817231D01*
X13073382Y-12817231D02*
X13082905Y-12836279D01*
X13082905Y-12836279D02*
X13092429Y-12874374D01*
X13092429Y-12874374D02*
X13092429Y-12921993D01*
X13092429Y-12921993D02*
X13082905Y-12960088D01*
X13082905Y-12960088D02*
X13073382Y-12979136D01*
X13073382Y-12979136D02*
X13063858Y-12988660D01*
X13063858Y-12988660D02*
X13044810Y-12998184D01*
X13044810Y-12998184D02*
X13025762Y-12998184D01*
X13025762Y-12998184D02*
X13006715Y-12988660D01*
X13006715Y-12988660D02*
X12997191Y-12979136D01*
X12997191Y-12979136D02*
X12987667Y-12960088D01*
X12987667Y-12960088D02*
X12978143Y-12921993D01*
X12978143Y-12921993D02*
X12978143Y-12874374D01*
X12978143Y-12874374D02*
X12987667Y-12836279D01*
X12987667Y-12836279D02*
X12997191Y-12817231D01*
X12997191Y-12817231D02*
X13006715Y-12807708D01*
X13006715Y-12807708D02*
X13025762Y-12798184D01*
X13216239Y-12798184D02*
X13235286Y-12798184D01*
X13235286Y-12798184D02*
X13254334Y-12807708D01*
X13254334Y-12807708D02*
X13263858Y-12817231D01*
X13263858Y-12817231D02*
X13273382Y-12836279D01*
X13273382Y-12836279D02*
X13282905Y-12874374D01*
X13282905Y-12874374D02*
X13282905Y-12921993D01*
X13282905Y-12921993D02*
X13273382Y-12960088D01*
X13273382Y-12960088D02*
X13263858Y-12979136D01*
X13263858Y-12979136D02*
X13254334Y-12988660D01*
X13254334Y-12988660D02*
X13235286Y-12998184D01*
X13235286Y-12998184D02*
X13216239Y-12998184D01*
X13216239Y-12998184D02*
X13197191Y-12988660D01*
X13197191Y-12988660D02*
X13187667Y-12979136D01*
X13187667Y-12979136D02*
X13178143Y-12960088D01*
X13178143Y-12960088D02*
X13168620Y-12921993D01*
X13168620Y-12921993D02*
X13168620Y-12874374D01*
X13168620Y-12874374D02*
X13178143Y-12836279D01*
X13178143Y-12836279D02*
X13187667Y-12817231D01*
X13187667Y-12817231D02*
X13197191Y-12807708D01*
X13197191Y-12807708D02*
X13216239Y-12798184D01*
X13368620Y-12998184D02*
X13368620Y-12864850D01*
X13368620Y-12883898D02*
X13378143Y-12874374D01*
X13378143Y-12874374D02*
X13397191Y-12864850D01*
X13397191Y-12864850D02*
X13425763Y-12864850D01*
X13425763Y-12864850D02*
X13444810Y-12874374D01*
X13444810Y-12874374D02*
X13454334Y-12893422D01*
X13454334Y-12893422D02*
X13454334Y-12998184D01*
X13454334Y-12893422D02*
X13463858Y-12874374D01*
X13463858Y-12874374D02*
X13482905Y-12864850D01*
X13482905Y-12864850D02*
X13511477Y-12864850D01*
X13511477Y-12864850D02*
X13530524Y-12874374D01*
X13530524Y-12874374D02*
X13540048Y-12893422D01*
X13540048Y-12893422D02*
X13540048Y-12998184D01*
X13635286Y-12998184D02*
X13635286Y-12864850D01*
X13635286Y-12883898D02*
X13644810Y-12874374D01*
X13644810Y-12874374D02*
X13663858Y-12864850D01*
X13663858Y-12864850D02*
X13692429Y-12864850D01*
X13692429Y-12864850D02*
X13711477Y-12874374D01*
X13711477Y-12874374D02*
X13721001Y-12893422D01*
X13721001Y-12893422D02*
X13721001Y-12998184D01*
X13721001Y-12893422D02*
X13730524Y-12874374D01*
X13730524Y-12874374D02*
X13749572Y-12864850D01*
X13749572Y-12864850D02*
X13778143Y-12864850D01*
X13778143Y-12864850D02*
X13797191Y-12874374D01*
X13797191Y-12874374D02*
X13806715Y-12893422D01*
X13806715Y-12893422D02*
X13806715Y-12998184D01*
X14197191Y-12788660D02*
X14025763Y-13045803D01*
X14454334Y-12798184D02*
X14473382Y-12798184D01*
X14473382Y-12798184D02*
X14492429Y-12807708D01*
X14492429Y-12807708D02*
X14501953Y-12817231D01*
X14501953Y-12817231D02*
X14511477Y-12836279D01*
X14511477Y-12836279D02*
X14521001Y-12874374D01*
X14521001Y-12874374D02*
X14521001Y-12921993D01*
X14521001Y-12921993D02*
X14511477Y-12960088D01*
X14511477Y-12960088D02*
X14501953Y-12979136D01*
X14501953Y-12979136D02*
X14492429Y-12988660D01*
X14492429Y-12988660D02*
X14473382Y-12998184D01*
X14473382Y-12998184D02*
X14454334Y-12998184D01*
X14454334Y-12998184D02*
X14435286Y-12988660D01*
X14435286Y-12988660D02*
X14425763Y-12979136D01*
X14425763Y-12979136D02*
X14416239Y-12960088D01*
X14416239Y-12960088D02*
X14406715Y-12921993D01*
X14406715Y-12921993D02*
X14406715Y-12874374D01*
X14406715Y-12874374D02*
X14416239Y-12836279D01*
X14416239Y-12836279D02*
X14425763Y-12817231D01*
X14425763Y-12817231D02*
X14435286Y-12807708D01*
X14435286Y-12807708D02*
X14454334Y-12798184D01*
X14606715Y-12979136D02*
X14616239Y-12988660D01*
X14616239Y-12988660D02*
X14606715Y-12998184D01*
X14606715Y-12998184D02*
X14597191Y-12988660D01*
X14597191Y-12988660D02*
X14606715Y-12979136D01*
X14606715Y-12979136D02*
X14606715Y-12998184D01*
X14740048Y-12798184D02*
X14759096Y-12798184D01*
X14759096Y-12798184D02*
X14778144Y-12807708D01*
X14778144Y-12807708D02*
X14787667Y-12817231D01*
X14787667Y-12817231D02*
X14797191Y-12836279D01*
X14797191Y-12836279D02*
X14806715Y-12874374D01*
X14806715Y-12874374D02*
X14806715Y-12921993D01*
X14806715Y-12921993D02*
X14797191Y-12960088D01*
X14797191Y-12960088D02*
X14787667Y-12979136D01*
X14787667Y-12979136D02*
X14778144Y-12988660D01*
X14778144Y-12988660D02*
X14759096Y-12998184D01*
X14759096Y-12998184D02*
X14740048Y-12998184D01*
X14740048Y-12998184D02*
X14721001Y-12988660D01*
X14721001Y-12988660D02*
X14711477Y-12979136D01*
X14711477Y-12979136D02*
X14701953Y-12960088D01*
X14701953Y-12960088D02*
X14692429Y-12921993D01*
X14692429Y-12921993D02*
X14692429Y-12874374D01*
X14692429Y-12874374D02*
X14701953Y-12836279D01*
X14701953Y-12836279D02*
X14711477Y-12817231D01*
X14711477Y-12817231D02*
X14721001Y-12807708D01*
X14721001Y-12807708D02*
X14740048Y-12798184D01*
X14873382Y-12798184D02*
X14997191Y-12798184D01*
X14997191Y-12798184D02*
X14930525Y-12874374D01*
X14930525Y-12874374D02*
X14959096Y-12874374D01*
X14959096Y-12874374D02*
X14978144Y-12883898D01*
X14978144Y-12883898D02*
X14987667Y-12893422D01*
X14987667Y-12893422D02*
X14997191Y-12912469D01*
X14997191Y-12912469D02*
X14997191Y-12960088D01*
X14997191Y-12960088D02*
X14987667Y-12979136D01*
X14987667Y-12979136D02*
X14978144Y-12988660D01*
X14978144Y-12988660D02*
X14959096Y-12998184D01*
X14959096Y-12998184D02*
X14901953Y-12998184D01*
X14901953Y-12998184D02*
X14882906Y-12988660D01*
X14882906Y-12988660D02*
X14873382Y-12979136D01*
X15092429Y-12998184D02*
X15130525Y-12998184D01*
X15130525Y-12998184D02*
X15149572Y-12988660D01*
X15149572Y-12988660D02*
X15159096Y-12979136D01*
X15159096Y-12979136D02*
X15178144Y-12950565D01*
X15178144Y-12950565D02*
X15187667Y-12912469D01*
X15187667Y-12912469D02*
X15187667Y-12836279D01*
X15187667Y-12836279D02*
X15178144Y-12817231D01*
X15178144Y-12817231D02*
X15168620Y-12807708D01*
X15168620Y-12807708D02*
X15149572Y-12798184D01*
X15149572Y-12798184D02*
X15111477Y-12798184D01*
X15111477Y-12798184D02*
X15092429Y-12807708D01*
X15092429Y-12807708D02*
X15082906Y-12817231D01*
X15082906Y-12817231D02*
X15073382Y-12836279D01*
X15073382Y-12836279D02*
X15073382Y-12883898D01*
X15073382Y-12883898D02*
X15082906Y-12902946D01*
X15082906Y-12902946D02*
X15092429Y-12912469D01*
X15092429Y-12912469D02*
X15111477Y-12921993D01*
X15111477Y-12921993D02*
X15149572Y-12921993D01*
X15149572Y-12921993D02*
X15168620Y-12912469D01*
X15168620Y-12912469D02*
X15178144Y-12902946D01*
X15178144Y-12902946D02*
X15187667Y-12883898D01*
X15359096Y-12864850D02*
X15359096Y-12998184D01*
X15311477Y-12788660D02*
X15263858Y-12931517D01*
X15263858Y-12931517D02*
X15387667Y-12931517D01*
X15454334Y-12798184D02*
X15454334Y-12836279D01*
X15530525Y-12798184D02*
X15530525Y-12836279D01*
X15825763Y-13074374D02*
X15816239Y-13064850D01*
X15816239Y-13064850D02*
X15797191Y-13036279D01*
X15797191Y-13036279D02*
X15787668Y-13017231D01*
X15787668Y-13017231D02*
X15778144Y-12988660D01*
X15778144Y-12988660D02*
X15768620Y-12941041D01*
X15768620Y-12941041D02*
X15768620Y-12902946D01*
X15768620Y-12902946D02*
X15778144Y-12855327D01*
X15778144Y-12855327D02*
X15787668Y-12826755D01*
X15787668Y-12826755D02*
X15797191Y-12807708D01*
X15797191Y-12807708D02*
X15816239Y-12779136D01*
X15816239Y-12779136D02*
X15825763Y-12769612D01*
X15997191Y-12798184D02*
X15901953Y-12798184D01*
X15901953Y-12798184D02*
X15892429Y-12893422D01*
X15892429Y-12893422D02*
X15901953Y-12883898D01*
X15901953Y-12883898D02*
X15921001Y-12874374D01*
X15921001Y-12874374D02*
X15968620Y-12874374D01*
X15968620Y-12874374D02*
X15987668Y-12883898D01*
X15987668Y-12883898D02*
X15997191Y-12893422D01*
X15997191Y-12893422D02*
X16006715Y-12912469D01*
X16006715Y-12912469D02*
X16006715Y-12960088D01*
X16006715Y-12960088D02*
X15997191Y-12979136D01*
X15997191Y-12979136D02*
X15987668Y-12988660D01*
X15987668Y-12988660D02*
X15968620Y-12998184D01*
X15968620Y-12998184D02*
X15921001Y-12998184D01*
X15921001Y-12998184D02*
X15901953Y-12988660D01*
X15901953Y-12988660D02*
X15892429Y-12979136D01*
X16130525Y-12798184D02*
X16149572Y-12798184D01*
X16149572Y-12798184D02*
X16168620Y-12807708D01*
X16168620Y-12807708D02*
X16178144Y-12817231D01*
X16178144Y-12817231D02*
X16187668Y-12836279D01*
X16187668Y-12836279D02*
X16197191Y-12874374D01*
X16197191Y-12874374D02*
X16197191Y-12921993D01*
X16197191Y-12921993D02*
X16187668Y-12960088D01*
X16187668Y-12960088D02*
X16178144Y-12979136D01*
X16178144Y-12979136D02*
X16168620Y-12988660D01*
X16168620Y-12988660D02*
X16149572Y-12998184D01*
X16149572Y-12998184D02*
X16130525Y-12998184D01*
X16130525Y-12998184D02*
X16111477Y-12988660D01*
X16111477Y-12988660D02*
X16101953Y-12979136D01*
X16101953Y-12979136D02*
X16092429Y-12960088D01*
X16092429Y-12960088D02*
X16082906Y-12921993D01*
X16082906Y-12921993D02*
X16082906Y-12874374D01*
X16082906Y-12874374D02*
X16092429Y-12836279D01*
X16092429Y-12836279D02*
X16101953Y-12817231D01*
X16101953Y-12817231D02*
X16111477Y-12807708D01*
X16111477Y-12807708D02*
X16130525Y-12798184D01*
X16435287Y-12998184D02*
X16435287Y-12798184D01*
X16521001Y-12998184D02*
X16521001Y-12893422D01*
X16521001Y-12893422D02*
X16511477Y-12874374D01*
X16511477Y-12874374D02*
X16492430Y-12864850D01*
X16492430Y-12864850D02*
X16463858Y-12864850D01*
X16463858Y-12864850D02*
X16444810Y-12874374D01*
X16444810Y-12874374D02*
X16435287Y-12883898D01*
X16644810Y-12998184D02*
X16625763Y-12988660D01*
X16625763Y-12988660D02*
X16616239Y-12979136D01*
X16616239Y-12979136D02*
X16606715Y-12960088D01*
X16606715Y-12960088D02*
X16606715Y-12902946D01*
X16606715Y-12902946D02*
X16616239Y-12883898D01*
X16616239Y-12883898D02*
X16625763Y-12874374D01*
X16625763Y-12874374D02*
X16644810Y-12864850D01*
X16644810Y-12864850D02*
X16673382Y-12864850D01*
X16673382Y-12864850D02*
X16692430Y-12874374D01*
X16692430Y-12874374D02*
X16701953Y-12883898D01*
X16701953Y-12883898D02*
X16711477Y-12902946D01*
X16711477Y-12902946D02*
X16711477Y-12960088D01*
X16711477Y-12960088D02*
X16701953Y-12979136D01*
X16701953Y-12979136D02*
X16692430Y-12988660D01*
X16692430Y-12988660D02*
X16673382Y-12998184D01*
X16673382Y-12998184D02*
X16644810Y-12998184D01*
X16825763Y-12998184D02*
X16806715Y-12988660D01*
X16806715Y-12988660D02*
X16797192Y-12969612D01*
X16797192Y-12969612D02*
X16797192Y-12798184D01*
X16978144Y-12988660D02*
X16959096Y-12998184D01*
X16959096Y-12998184D02*
X16921001Y-12998184D01*
X16921001Y-12998184D02*
X16901953Y-12988660D01*
X16901953Y-12988660D02*
X16892430Y-12969612D01*
X16892430Y-12969612D02*
X16892430Y-12893422D01*
X16892430Y-12893422D02*
X16901953Y-12874374D01*
X16901953Y-12874374D02*
X16921001Y-12864850D01*
X16921001Y-12864850D02*
X16959096Y-12864850D01*
X16959096Y-12864850D02*
X16978144Y-12874374D01*
X16978144Y-12874374D02*
X16987668Y-12893422D01*
X16987668Y-12893422D02*
X16987668Y-12912469D01*
X16987668Y-12912469D02*
X16892430Y-12931517D01*
X17063858Y-12988660D02*
X17082906Y-12998184D01*
X17082906Y-12998184D02*
X17121001Y-12998184D01*
X17121001Y-12998184D02*
X17140049Y-12988660D01*
X17140049Y-12988660D02*
X17149573Y-12969612D01*
X17149573Y-12969612D02*
X17149573Y-12960088D01*
X17149573Y-12960088D02*
X17140049Y-12941041D01*
X17140049Y-12941041D02*
X17121001Y-12931517D01*
X17121001Y-12931517D02*
X17092430Y-12931517D01*
X17092430Y-12931517D02*
X17073382Y-12921993D01*
X17073382Y-12921993D02*
X17063858Y-12902946D01*
X17063858Y-12902946D02*
X17063858Y-12893422D01*
X17063858Y-12893422D02*
X17073382Y-12874374D01*
X17073382Y-12874374D02*
X17092430Y-12864850D01*
X17092430Y-12864850D02*
X17121001Y-12864850D01*
X17121001Y-12864850D02*
X17140049Y-12874374D01*
X17216239Y-13074374D02*
X17225763Y-13064850D01*
X17225763Y-13064850D02*
X17244811Y-13036279D01*
X17244811Y-13036279D02*
X17254334Y-13017231D01*
X17254334Y-13017231D02*
X17263858Y-12988660D01*
X17263858Y-12988660D02*
X17273382Y-12941041D01*
X17273382Y-12941041D02*
X17273382Y-12902946D01*
X17273382Y-12902946D02*
X17263858Y-12855327D01*
X17263858Y-12855327D02*
X17254334Y-12826755D01*
X17254334Y-12826755D02*
X17244811Y-12807708D01*
X17244811Y-12807708D02*
X17225763Y-12779136D01*
X17225763Y-12779136D02*
X17216239Y-12769612D01*
X12221411Y-13241411D02*
X12221411Y-13099989D01*
X12079989Y-13099989D01*
X12079989Y-13241411D01*
X12221411Y-13241411D01*
X12492429Y-13062184D02*
X12616239Y-13062184D01*
X12616239Y-13062184D02*
X12549572Y-13138374D01*
X12549572Y-13138374D02*
X12578143Y-13138374D01*
X12578143Y-13138374D02*
X12597191Y-13147898D01*
X12597191Y-13147898D02*
X12606715Y-13157422D01*
X12606715Y-13157422D02*
X12616239Y-13176469D01*
X12616239Y-13176469D02*
X12616239Y-13224088D01*
X12616239Y-13224088D02*
X12606715Y-13243136D01*
X12606715Y-13243136D02*
X12597191Y-13252660D01*
X12597191Y-13252660D02*
X12578143Y-13262184D01*
X12578143Y-13262184D02*
X12521001Y-13262184D01*
X12521001Y-13262184D02*
X12501953Y-13252660D01*
X12501953Y-13252660D02*
X12492429Y-13243136D01*
X12701953Y-13243136D02*
X12711477Y-13252660D01*
X12711477Y-13252660D02*
X12701953Y-13262184D01*
X12701953Y-13262184D02*
X12692429Y-13252660D01*
X12692429Y-13252660D02*
X12701953Y-13243136D01*
X12701953Y-13243136D02*
X12701953Y-13262184D01*
X12835286Y-13062184D02*
X12854334Y-13062184D01*
X12854334Y-13062184D02*
X12873382Y-13071708D01*
X12873382Y-13071708D02*
X12882905Y-13081231D01*
X12882905Y-13081231D02*
X12892429Y-13100279D01*
X12892429Y-13100279D02*
X12901953Y-13138374D01*
X12901953Y-13138374D02*
X12901953Y-13185993D01*
X12901953Y-13185993D02*
X12892429Y-13224088D01*
X12892429Y-13224088D02*
X12882905Y-13243136D01*
X12882905Y-13243136D02*
X12873382Y-13252660D01*
X12873382Y-13252660D02*
X12854334Y-13262184D01*
X12854334Y-13262184D02*
X12835286Y-13262184D01*
X12835286Y-13262184D02*
X12816239Y-13252660D01*
X12816239Y-13252660D02*
X12806715Y-13243136D01*
X12806715Y-13243136D02*
X12797191Y-13224088D01*
X12797191Y-13224088D02*
X12787667Y-13185993D01*
X12787667Y-13185993D02*
X12787667Y-13138374D01*
X12787667Y-13138374D02*
X12797191Y-13100279D01*
X12797191Y-13100279D02*
X12806715Y-13081231D01*
X12806715Y-13081231D02*
X12816239Y-13071708D01*
X12816239Y-13071708D02*
X12835286Y-13062184D01*
X13025762Y-13062184D02*
X13044810Y-13062184D01*
X13044810Y-13062184D02*
X13063858Y-13071708D01*
X13063858Y-13071708D02*
X13073382Y-13081231D01*
X13073382Y-13081231D02*
X13082905Y-13100279D01*
X13082905Y-13100279D02*
X13092429Y-13138374D01*
X13092429Y-13138374D02*
X13092429Y-13185993D01*
X13092429Y-13185993D02*
X13082905Y-13224088D01*
X13082905Y-13224088D02*
X13073382Y-13243136D01*
X13073382Y-13243136D02*
X13063858Y-13252660D01*
X13063858Y-13252660D02*
X13044810Y-13262184D01*
X13044810Y-13262184D02*
X13025762Y-13262184D01*
X13025762Y-13262184D02*
X13006715Y-13252660D01*
X13006715Y-13252660D02*
X12997191Y-13243136D01*
X12997191Y-13243136D02*
X12987667Y-13224088D01*
X12987667Y-13224088D02*
X12978143Y-13185993D01*
X12978143Y-13185993D02*
X12978143Y-13138374D01*
X12978143Y-13138374D02*
X12987667Y-13100279D01*
X12987667Y-13100279D02*
X12997191Y-13081231D01*
X12997191Y-13081231D02*
X13006715Y-13071708D01*
X13006715Y-13071708D02*
X13025762Y-13062184D01*
X13216239Y-13062184D02*
X13235286Y-13062184D01*
X13235286Y-13062184D02*
X13254334Y-13071708D01*
X13254334Y-13071708D02*
X13263858Y-13081231D01*
X13263858Y-13081231D02*
X13273382Y-13100279D01*
X13273382Y-13100279D02*
X13282905Y-13138374D01*
X13282905Y-13138374D02*
X13282905Y-13185993D01*
X13282905Y-13185993D02*
X13273382Y-13224088D01*
X13273382Y-13224088D02*
X13263858Y-13243136D01*
X13263858Y-13243136D02*
X13254334Y-13252660D01*
X13254334Y-13252660D02*
X13235286Y-13262184D01*
X13235286Y-13262184D02*
X13216239Y-13262184D01*
X13216239Y-13262184D02*
X13197191Y-13252660D01*
X13197191Y-13252660D02*
X13187667Y-13243136D01*
X13187667Y-13243136D02*
X13178143Y-13224088D01*
X13178143Y-13224088D02*
X13168620Y-13185993D01*
X13168620Y-13185993D02*
X13168620Y-13138374D01*
X13168620Y-13138374D02*
X13178143Y-13100279D01*
X13178143Y-13100279D02*
X13187667Y-13081231D01*
X13187667Y-13081231D02*
X13197191Y-13071708D01*
X13197191Y-13071708D02*
X13216239Y-13062184D01*
X13368620Y-13262184D02*
X13368620Y-13128850D01*
X13368620Y-13147898D02*
X13378143Y-13138374D01*
X13378143Y-13138374D02*
X13397191Y-13128850D01*
X13397191Y-13128850D02*
X13425763Y-13128850D01*
X13425763Y-13128850D02*
X13444810Y-13138374D01*
X13444810Y-13138374D02*
X13454334Y-13157422D01*
X13454334Y-13157422D02*
X13454334Y-13262184D01*
X13454334Y-13157422D02*
X13463858Y-13138374D01*
X13463858Y-13138374D02*
X13482905Y-13128850D01*
X13482905Y-13128850D02*
X13511477Y-13128850D01*
X13511477Y-13128850D02*
X13530524Y-13138374D01*
X13530524Y-13138374D02*
X13540048Y-13157422D01*
X13540048Y-13157422D02*
X13540048Y-13262184D01*
X13635286Y-13262184D02*
X13635286Y-13128850D01*
X13635286Y-13147898D02*
X13644810Y-13138374D01*
X13644810Y-13138374D02*
X13663858Y-13128850D01*
X13663858Y-13128850D02*
X13692429Y-13128850D01*
X13692429Y-13128850D02*
X13711477Y-13138374D01*
X13711477Y-13138374D02*
X13721001Y-13157422D01*
X13721001Y-13157422D02*
X13721001Y-13262184D01*
X13721001Y-13157422D02*
X13730524Y-13138374D01*
X13730524Y-13138374D02*
X13749572Y-13128850D01*
X13749572Y-13128850D02*
X13778143Y-13128850D01*
X13778143Y-13128850D02*
X13797191Y-13138374D01*
X13797191Y-13138374D02*
X13806715Y-13157422D01*
X13806715Y-13157422D02*
X13806715Y-13262184D01*
X14197191Y-13052660D02*
X14025763Y-13309803D01*
X14454334Y-13062184D02*
X14473382Y-13062184D01*
X14473382Y-13062184D02*
X14492429Y-13071708D01*
X14492429Y-13071708D02*
X14501953Y-13081231D01*
X14501953Y-13081231D02*
X14511477Y-13100279D01*
X14511477Y-13100279D02*
X14521001Y-13138374D01*
X14521001Y-13138374D02*
X14521001Y-13185993D01*
X14521001Y-13185993D02*
X14511477Y-13224088D01*
X14511477Y-13224088D02*
X14501953Y-13243136D01*
X14501953Y-13243136D02*
X14492429Y-13252660D01*
X14492429Y-13252660D02*
X14473382Y-13262184D01*
X14473382Y-13262184D02*
X14454334Y-13262184D01*
X14454334Y-13262184D02*
X14435286Y-13252660D01*
X14435286Y-13252660D02*
X14425763Y-13243136D01*
X14425763Y-13243136D02*
X14416239Y-13224088D01*
X14416239Y-13224088D02*
X14406715Y-13185993D01*
X14406715Y-13185993D02*
X14406715Y-13138374D01*
X14406715Y-13138374D02*
X14416239Y-13100279D01*
X14416239Y-13100279D02*
X14425763Y-13081231D01*
X14425763Y-13081231D02*
X14435286Y-13071708D01*
X14435286Y-13071708D02*
X14454334Y-13062184D01*
X14606715Y-13243136D02*
X14616239Y-13252660D01*
X14616239Y-13252660D02*
X14606715Y-13262184D01*
X14606715Y-13262184D02*
X14597191Y-13252660D01*
X14597191Y-13252660D02*
X14606715Y-13243136D01*
X14606715Y-13243136D02*
X14606715Y-13262184D01*
X14806715Y-13262184D02*
X14692429Y-13262184D01*
X14749572Y-13262184D02*
X14749572Y-13062184D01*
X14749572Y-13062184D02*
X14730525Y-13090755D01*
X14730525Y-13090755D02*
X14711477Y-13109803D01*
X14711477Y-13109803D02*
X14692429Y-13119327D01*
X14997191Y-13262184D02*
X14882906Y-13262184D01*
X14940048Y-13262184D02*
X14940048Y-13062184D01*
X14940048Y-13062184D02*
X14921001Y-13090755D01*
X14921001Y-13090755D02*
X14901953Y-13109803D01*
X14901953Y-13109803D02*
X14882906Y-13119327D01*
X15111477Y-13147898D02*
X15092429Y-13138374D01*
X15092429Y-13138374D02*
X15082906Y-13128850D01*
X15082906Y-13128850D02*
X15073382Y-13109803D01*
X15073382Y-13109803D02*
X15073382Y-13100279D01*
X15073382Y-13100279D02*
X15082906Y-13081231D01*
X15082906Y-13081231D02*
X15092429Y-13071708D01*
X15092429Y-13071708D02*
X15111477Y-13062184D01*
X15111477Y-13062184D02*
X15149572Y-13062184D01*
X15149572Y-13062184D02*
X15168620Y-13071708D01*
X15168620Y-13071708D02*
X15178144Y-13081231D01*
X15178144Y-13081231D02*
X15187667Y-13100279D01*
X15187667Y-13100279D02*
X15187667Y-13109803D01*
X15187667Y-13109803D02*
X15178144Y-13128850D01*
X15178144Y-13128850D02*
X15168620Y-13138374D01*
X15168620Y-13138374D02*
X15149572Y-13147898D01*
X15149572Y-13147898D02*
X15111477Y-13147898D01*
X15111477Y-13147898D02*
X15092429Y-13157422D01*
X15092429Y-13157422D02*
X15082906Y-13166946D01*
X15082906Y-13166946D02*
X15073382Y-13185993D01*
X15073382Y-13185993D02*
X15073382Y-13224088D01*
X15073382Y-13224088D02*
X15082906Y-13243136D01*
X15082906Y-13243136D02*
X15092429Y-13252660D01*
X15092429Y-13252660D02*
X15111477Y-13262184D01*
X15111477Y-13262184D02*
X15149572Y-13262184D01*
X15149572Y-13262184D02*
X15168620Y-13252660D01*
X15168620Y-13252660D02*
X15178144Y-13243136D01*
X15178144Y-13243136D02*
X15187667Y-13224088D01*
X15187667Y-13224088D02*
X15187667Y-13185993D01*
X15187667Y-13185993D02*
X15178144Y-13166946D01*
X15178144Y-13166946D02*
X15168620Y-13157422D01*
X15168620Y-13157422D02*
X15149572Y-13147898D01*
X15378144Y-13262184D02*
X15263858Y-13262184D01*
X15321001Y-13262184D02*
X15321001Y-13062184D01*
X15321001Y-13062184D02*
X15301953Y-13090755D01*
X15301953Y-13090755D02*
X15282906Y-13109803D01*
X15282906Y-13109803D02*
X15263858Y-13119327D01*
X15454334Y-13062184D02*
X15454334Y-13100279D01*
X15530525Y-13062184D02*
X15530525Y-13100279D01*
X15825763Y-13338374D02*
X15816239Y-13328850D01*
X15816239Y-13328850D02*
X15797191Y-13300279D01*
X15797191Y-13300279D02*
X15787668Y-13281231D01*
X15787668Y-13281231D02*
X15778144Y-13252660D01*
X15778144Y-13252660D02*
X15768620Y-13205041D01*
X15768620Y-13205041D02*
X15768620Y-13166946D01*
X15768620Y-13166946D02*
X15778144Y-13119327D01*
X15778144Y-13119327D02*
X15787668Y-13090755D01*
X15787668Y-13090755D02*
X15797191Y-13071708D01*
X15797191Y-13071708D02*
X15816239Y-13043136D01*
X15816239Y-13043136D02*
X15825763Y-13033612D01*
X15987668Y-13128850D02*
X15987668Y-13262184D01*
X15940048Y-13052660D02*
X15892429Y-13195517D01*
X15892429Y-13195517D02*
X16016239Y-13195517D01*
X16244810Y-13262184D02*
X16244810Y-13062184D01*
X16330525Y-13262184D02*
X16330525Y-13157422D01*
X16330525Y-13157422D02*
X16321001Y-13138374D01*
X16321001Y-13138374D02*
X16301953Y-13128850D01*
X16301953Y-13128850D02*
X16273382Y-13128850D01*
X16273382Y-13128850D02*
X16254334Y-13138374D01*
X16254334Y-13138374D02*
X16244810Y-13147898D01*
X16454334Y-13262184D02*
X16435287Y-13252660D01*
X16435287Y-13252660D02*
X16425763Y-13243136D01*
X16425763Y-13243136D02*
X16416239Y-13224088D01*
X16416239Y-13224088D02*
X16416239Y-13166946D01*
X16416239Y-13166946D02*
X16425763Y-13147898D01*
X16425763Y-13147898D02*
X16435287Y-13138374D01*
X16435287Y-13138374D02*
X16454334Y-13128850D01*
X16454334Y-13128850D02*
X16482906Y-13128850D01*
X16482906Y-13128850D02*
X16501953Y-13138374D01*
X16501953Y-13138374D02*
X16511477Y-13147898D01*
X16511477Y-13147898D02*
X16521001Y-13166946D01*
X16521001Y-13166946D02*
X16521001Y-13224088D01*
X16521001Y-13224088D02*
X16511477Y-13243136D01*
X16511477Y-13243136D02*
X16501953Y-13252660D01*
X16501953Y-13252660D02*
X16482906Y-13262184D01*
X16482906Y-13262184D02*
X16454334Y-13262184D01*
X16635287Y-13262184D02*
X16616239Y-13252660D01*
X16616239Y-13252660D02*
X16606715Y-13233612D01*
X16606715Y-13233612D02*
X16606715Y-13062184D01*
X16787668Y-13252660D02*
X16768620Y-13262184D01*
X16768620Y-13262184D02*
X16730525Y-13262184D01*
X16730525Y-13262184D02*
X16711477Y-13252660D01*
X16711477Y-13252660D02*
X16701953Y-13233612D01*
X16701953Y-13233612D02*
X16701953Y-13157422D01*
X16701953Y-13157422D02*
X16711477Y-13138374D01*
X16711477Y-13138374D02*
X16730525Y-13128850D01*
X16730525Y-13128850D02*
X16768620Y-13128850D01*
X16768620Y-13128850D02*
X16787668Y-13138374D01*
X16787668Y-13138374D02*
X16797192Y-13157422D01*
X16797192Y-13157422D02*
X16797192Y-13176469D01*
X16797192Y-13176469D02*
X16701953Y-13195517D01*
X16873382Y-13252660D02*
X16892430Y-13262184D01*
X16892430Y-13262184D02*
X16930525Y-13262184D01*
X16930525Y-13262184D02*
X16949573Y-13252660D01*
X16949573Y-13252660D02*
X16959096Y-13233612D01*
X16959096Y-13233612D02*
X16959096Y-13224088D01*
X16959096Y-13224088D02*
X16949573Y-13205041D01*
X16949573Y-13205041D02*
X16930525Y-13195517D01*
X16930525Y-13195517D02*
X16901953Y-13195517D01*
X16901953Y-13195517D02*
X16882906Y-13185993D01*
X16882906Y-13185993D02*
X16873382Y-13166946D01*
X16873382Y-13166946D02*
X16873382Y-13157422D01*
X16873382Y-13157422D02*
X16882906Y-13138374D01*
X16882906Y-13138374D02*
X16901953Y-13128850D01*
X16901953Y-13128850D02*
X16930525Y-13128850D01*
X16930525Y-13128850D02*
X16949573Y-13138374D01*
X17025763Y-13338374D02*
X17035287Y-13328850D01*
X17035287Y-13328850D02*
X17054334Y-13300279D01*
X17054334Y-13300279D02*
X17063858Y-13281231D01*
X17063858Y-13281231D02*
X17073382Y-13252660D01*
X17073382Y-13252660D02*
X17082906Y-13205041D01*
X17082906Y-13205041D02*
X17082906Y-13166946D01*
X17082906Y-13166946D02*
X17073382Y-13119327D01*
X17073382Y-13119327D02*
X17063858Y-13090755D01*
X17063858Y-13090755D02*
X17054334Y-13071708D01*
X17054334Y-13071708D02*
X17035287Y-13043136D01*
X17035287Y-13043136D02*
X17025763Y-13033612D01*
M02*
