%TF.GenerationSoftware,KiCad,Pcbnew,9.0.7*%
%TF.CreationDate,2026-03-21T16:16:02+01:00*%
%TF.ProjectId,GPIBAdapter,47504942-4164-4617-9074-65722e6b6963,2*%
%TF.SameCoordinates,Original*%
%TF.FileFunction,Copper,L1,Top*%
%TF.FilePolarity,Positive*%
%FSLAX46Y46*%
G04 Gerber Fmt 4.6, Leading zero omitted, Abs format (unit mm)*
G04 Created by KiCad (PCBNEW 9.0.7) date 2026-03-21 16:16:02*
%MOMM*%
%LPD*%
G01*
G04 APERTURE LIST*
G04 Aperture macros list*
%AMRoundRect*
0 Rectangle with rounded corners*
0 $1 Rounding radius*
0 $2 $3 $4 $5 $6 $7 $8 $9 X,Y pos of 4 corners*
0 Add a 4 corners polygon primitive as box body*
4,1,4,$2,$3,$4,$5,$6,$7,$8,$9,$2,$3,0*
0 Add four circle primitives for the rounded corners*
1,1,$1+$1,$2,$3*
1,1,$1+$1,$4,$5*
1,1,$1+$1,$6,$7*
1,1,$1+$1,$8,$9*
0 Add four rect primitives between the rounded corners*
20,1,$1+$1,$2,$3,$4,$5,0*
20,1,$1+$1,$4,$5,$6,$7,0*
20,1,$1+$1,$6,$7,$8,$9,0*
20,1,$1+$1,$8,$9,$2,$3,0*%
G04 Aperture macros list end*
%TA.AperFunction,SMDPad,CuDef*%
%ADD10RoundRect,0.250000X0.262500X0.450000X-0.262500X0.450000X-0.262500X-0.450000X0.262500X-0.450000X0*%
%TD*%
%TA.AperFunction,ComponentPad*%
%ADD11C,1.700000*%
%TD*%
%TA.AperFunction,SMDPad,CuDef*%
%ADD12RoundRect,0.243750X0.456250X-0.243750X0.456250X0.243750X-0.456250X0.243750X-0.456250X-0.243750X0*%
%TD*%
%TA.AperFunction,ComponentPad*%
%ADD13R,1.700000X1.700000*%
%TD*%
%TA.AperFunction,SMDPad,CuDef*%
%ADD14RoundRect,0.250000X-0.450000X0.262500X-0.450000X-0.262500X0.450000X-0.262500X0.450000X0.262500X0*%
%TD*%
%TA.AperFunction,SMDPad,CuDef*%
%ADD15RoundRect,0.250000X0.450000X-0.262500X0.450000X0.262500X-0.450000X0.262500X-0.450000X-0.262500X0*%
%TD*%
%TA.AperFunction,SMDPad,CuDef*%
%ADD16RoundRect,0.162500X0.162500X-0.447500X0.162500X0.447500X-0.162500X0.447500X-0.162500X-0.447500X0*%
%TD*%
%TA.AperFunction,ComponentPad*%
%ADD17C,1.498600*%
%TD*%
%TA.AperFunction,ComponentPad*%
%ADD18C,4.439994*%
%TD*%
%TA.AperFunction,ViaPad*%
%ADD19C,0.600000*%
%TD*%
%TA.AperFunction,Conductor*%
%ADD20C,0.200000*%
%TD*%
G04 APERTURE END LIST*
D10*
%TO.P,R4,1*%
%TO.N,/ATN*%
X131939000Y-94488000D03*
%TO.P,R4,2*%
%TO.N,Net-(Q2-B)*%
X130114000Y-94488000D03*
%TD*%
%TO.P,R3,1*%
%TO.N,/REN*%
X127941000Y-94488000D03*
%TO.P,R3,2*%
%TO.N,Net-(Q1-B)*%
X126116000Y-94488000D03*
%TD*%
D11*
%TO.P,TP29,1,1*%
%TO.N,/DIO5*%
X164846000Y-89916000D03*
%TD*%
%TO.P,J10,2,Pin_2*%
%TO.N,/SRQGND*%
X141986000Y-89916000D03*
%TO.P,J10,1,Pin_1*%
%TO.N,/SRQ*%
X141986000Y-87376000D03*
%TD*%
%TO.P,J11,2,Pin_2*%
%TO.N,/ATNGND*%
X139446000Y-89916000D03*
%TO.P,J11,1,Pin_1*%
%TO.N,/ATN*%
X139446000Y-87376000D03*
%TD*%
D12*
%TO.P,D1,2,A*%
%TO.N,+5V*%
X127000000Y-81183000D03*
%TO.P,D1,1,K*%
%TO.N,Net-(D1-K)*%
X127000000Y-83058000D03*
%TD*%
D11*
%TO.P,TP31,1,1*%
%TO.N,/DIO7*%
X159766000Y-89916000D03*
%TD*%
%TO.P,TP27,1,1*%
%TO.N,/DIO3*%
X159766000Y-87376000D03*
%TD*%
%TO.P,J8,1,Pin_1*%
%TO.N,/NDAC*%
X147066000Y-87376000D03*
%TO.P,J8,2,Pin_2*%
%TO.N,/NDACGND*%
X147066000Y-89916000D03*
%TD*%
D13*
%TO.P,TP11,1,1*%
%TO.N,/EOI*%
X154686000Y-79502000D03*
%TD*%
D11*
%TO.P,TP30,1,1*%
%TO.N,/DIO6*%
X162306000Y-89916000D03*
%TD*%
%TO.P,TP2,1,1*%
%TO.N,GND*%
X136906000Y-89916000D03*
%TD*%
D13*
%TO.P,TP6,1,1*%
%TO.N,/DIO4*%
X157226000Y-79502000D03*
%TD*%
%TO.P,TP36,1,1*%
%TO.N,GND*%
X136906000Y-97790000D03*
%TD*%
D11*
%TO.P,TP33,1,1*%
%TO.N,/EOI*%
X154686000Y-87376000D03*
%TD*%
D13*
%TO.P,TP9,1,1*%
%TO.N,/DIO7*%
X159766000Y-97790000D03*
%TD*%
D11*
%TO.P,TP26,1,1*%
%TO.N,/DIO2*%
X162306000Y-87376000D03*
%TD*%
D13*
%TO.P,TP3,1,1*%
%TO.N,/DIO1*%
X164846000Y-79502000D03*
%TD*%
D11*
%TO.P,J9,1,Pin_1*%
%TO.N,/IFC*%
X144526000Y-87376000D03*
%TO.P,J9,2,Pin_2*%
%TO.N,/IFCGND*%
X144526000Y-89916000D03*
%TD*%
%TO.P,TP32,1,1*%
%TO.N,/DIO8*%
X157226000Y-89916000D03*
%TD*%
%TO.P,J7,1,Pin_1*%
%TO.N,/NFRD*%
X149606000Y-87376000D03*
%TO.P,J7,2,Pin_2*%
%TO.N,/NRFDGND*%
X149606000Y-89916000D03*
%TD*%
%TO.P,TP25,1,1*%
%TO.N,/DIO1*%
X164846000Y-87376000D03*
%TD*%
D13*
%TO.P,TP18,1,1*%
%TO.N,/NDACGND*%
X147066000Y-97790000D03*
%TD*%
%TO.P,TP5,1,1*%
%TO.N,/DIO3*%
X159766000Y-79502000D03*
%TD*%
D14*
%TO.P,R1,1*%
%TO.N,Net-(Q1-E)*%
X127000000Y-85447500D03*
%TO.P,R1,2*%
%TO.N,Net-(D1-K)*%
X127000000Y-87272500D03*
%TD*%
D13*
%TO.P,TP7,1,1*%
%TO.N,/DIO5*%
X164846000Y-97790000D03*
%TD*%
%TO.P,TP23,1,1*%
%TO.N,/ATN*%
X139446000Y-79502000D03*
%TD*%
%TO.P,TP22,1,1*%
%TO.N,/SRQGND*%
X141986000Y-97790000D03*
%TD*%
%TO.P,TP16,1,1*%
%TO.N,/NRFDGND*%
X149606000Y-97790000D03*
%TD*%
%TO.P,TP15,1,1*%
%TO.N,/NFRD*%
X149606000Y-79502000D03*
%TD*%
%TO.P,TP13,1,1*%
%TO.N,/DAV*%
X152146000Y-79502000D03*
%TD*%
%TO.P,TP24,1,1*%
%TO.N,/ATNGND*%
X139446000Y-97790000D03*
%TD*%
%TO.P,TP19,1,1*%
%TO.N,/IFC*%
X144526000Y-79502000D03*
%TD*%
%TO.P,TP4,1,1*%
%TO.N,/DIO2*%
X162306000Y-79502000D03*
%TD*%
%TO.P,TP20,1,1*%
%TO.N,/IFCGND*%
X144526000Y-97790000D03*
%TD*%
D11*
%TO.P,TP28,1,1*%
%TO.N,/DIO4*%
X157226000Y-87376000D03*
%TD*%
D13*
%TO.P,J3,1,Pin_1*%
%TO.N,GND*%
X130302000Y-98552000D03*
D11*
%TO.P,J3,2,Pin_2*%
%TO.N,+5V*%
X127762000Y-98552000D03*
%TD*%
%TO.P,TP34,1,1*%
%TO.N,/REN*%
X154686000Y-89916000D03*
%TD*%
D15*
%TO.P,R2,1*%
%TO.N,Net-(Q2-E)*%
X131064000Y-87272500D03*
%TO.P,R2,2*%
%TO.N,Net-(D2-K)*%
X131064000Y-85447500D03*
%TD*%
D13*
%TO.P,TP14,1,1*%
%TO.N,/DAVGND*%
X152146000Y-97790000D03*
%TD*%
D16*
%TO.P,Q1,1,B*%
%TO.N,Net-(Q1-B)*%
X126116000Y-92202000D03*
%TO.P,Q1,2,C*%
%TO.N,GND*%
X128016000Y-92202000D03*
%TO.P,Q1,3,E*%
%TO.N,Net-(Q1-E)*%
X127066000Y-89582000D03*
%TD*%
D13*
%TO.P,TP35,1,1*%
%TO.N,/SHIELD*%
X136906000Y-79502000D03*
%TD*%
D11*
%TO.P,TP1,1,1*%
%TO.N,/SHIELD*%
X136906000Y-87376000D03*
%TD*%
D13*
%TO.P,TP10,1,1*%
%TO.N,/DIO8*%
X157226000Y-97790000D03*
%TD*%
%TO.P,TP12,1,1*%
%TO.N,/REN*%
X154686000Y-97790000D03*
%TD*%
D17*
%TO.P,J2,1,Pin_1*%
%TO.N,/DIO1*%
X162694000Y-73152000D03*
%TO.P,J2,2,Pin_2*%
%TO.N,/DIO2*%
X160534002Y-73152000D03*
%TO.P,J2,3,Pin_3*%
%TO.N,/DIO3*%
X158374001Y-73152000D03*
%TO.P,J2,4,Pin_4*%
%TO.N,/DIO4*%
X156214000Y-73152000D03*
%TO.P,J2,5,Pin_5*%
%TO.N,/EOI*%
X154054002Y-73152000D03*
%TO.P,J2,6,Pin_6*%
%TO.N,/DAV*%
X151894001Y-73152000D03*
%TO.P,J2,7,Pin_7*%
%TO.N,/NFRD*%
X149734001Y-73152000D03*
%TO.P,J2,8,Pin_8*%
%TO.N,/NDAC*%
X147574000Y-73152000D03*
%TO.P,J2,9,Pin_9*%
%TO.N,/IFC*%
X145414002Y-73152000D03*
%TO.P,J2,10,Pin_10*%
%TO.N,/SRQ*%
X143254001Y-73152000D03*
%TO.P,J2,11,Pin_11*%
%TO.N,/ATN*%
X141094000Y-73152000D03*
%TO.P,J2,12,Pin_12*%
%TO.N,/SHIELD*%
X138934002Y-73152000D03*
%TO.P,J2,13,Pin_13*%
%TO.N,/DIO5*%
X162694000Y-68862001D03*
%TO.P,J2,14,Pin_14*%
%TO.N,/DIO6*%
X160534002Y-68862001D03*
%TO.P,J2,15,Pin_15*%
%TO.N,/DIO7*%
X158374001Y-68862001D03*
%TO.P,J2,16,Pin_16*%
%TO.N,/DIO8*%
X156214000Y-68862001D03*
%TO.P,J2,17,Pin_17*%
%TO.N,/REN*%
X154054002Y-68862001D03*
%TO.P,J2,18,Pin_18*%
%TO.N,/DAVGND*%
X151894001Y-68862001D03*
%TO.P,J2,19,Pin_19*%
%TO.N,/NRFDGND*%
X149734001Y-68862001D03*
%TO.P,J2,20,Pin_20*%
%TO.N,/NDACGND*%
X147574000Y-68862001D03*
%TO.P,J2,21,Pin_21*%
%TO.N,/IFCGND*%
X145414002Y-68862001D03*
%TO.P,J2,22,Pin_22*%
%TO.N,/SRQGND*%
X143254001Y-68862001D03*
%TO.P,J2,23,Pin_23*%
%TO.N,/ATNGND*%
X141094000Y-68862001D03*
%TO.P,J2,24,Pin_24*%
%TO.N,GND*%
X138934002Y-68862001D03*
D18*
%TO.P,J2,SH,Shield*%
%TO.N,/SHIELD*%
X174214005Y-71007001D03*
X127413997Y-71007001D03*
%TD*%
D13*
%TO.P,TP21,1,1*%
%TO.N,/SRQ*%
X141986000Y-79502000D03*
%TD*%
D11*
%TO.P,J6,1,Pin_1*%
%TO.N,/DAV*%
X152146000Y-87376000D03*
%TO.P,J6,2,Pin_2*%
%TO.N,/DAVGND*%
X152146000Y-89916000D03*
%TD*%
D17*
%TO.P,J1,1,Pin_1*%
%TO.N,/DIO1*%
X162694000Y-104140000D03*
%TO.P,J1,2,Pin_2*%
%TO.N,/DIO2*%
X160534002Y-104140000D03*
%TO.P,J1,3,Pin_3*%
%TO.N,/DIO3*%
X158374001Y-104140000D03*
%TO.P,J1,4,Pin_4*%
%TO.N,/DIO4*%
X156214000Y-104140000D03*
%TO.P,J1,5,Pin_5*%
%TO.N,/EOI*%
X154054002Y-104140000D03*
%TO.P,J1,6,Pin_6*%
%TO.N,/DAV*%
X151894001Y-104140000D03*
%TO.P,J1,7,Pin_7*%
%TO.N,/NFRD*%
X149734001Y-104140000D03*
%TO.P,J1,8,Pin_8*%
%TO.N,/NDAC*%
X147574000Y-104140000D03*
%TO.P,J1,9,Pin_9*%
%TO.N,/IFC*%
X145414002Y-104140000D03*
%TO.P,J1,10,Pin_10*%
%TO.N,/SRQ*%
X143254001Y-104140000D03*
%TO.P,J1,11,Pin_11*%
%TO.N,/ATN*%
X141094000Y-104140000D03*
%TO.P,J1,12,Pin_12*%
%TO.N,/SHIELD*%
X138934002Y-104140000D03*
%TO.P,J1,13,Pin_13*%
%TO.N,/DIO5*%
X162694000Y-108429999D03*
%TO.P,J1,14,Pin_14*%
%TO.N,/DIO6*%
X160534002Y-108429999D03*
%TO.P,J1,15,Pin_15*%
%TO.N,/DIO7*%
X158374001Y-108429999D03*
%TO.P,J1,16,Pin_16*%
%TO.N,/DIO8*%
X156214000Y-108429999D03*
%TO.P,J1,17,Pin_17*%
%TO.N,/REN*%
X154054002Y-108429999D03*
%TO.P,J1,18,Pin_18*%
%TO.N,/DAVGND*%
X151894001Y-108429999D03*
%TO.P,J1,19,Pin_19*%
%TO.N,/NRFDGND*%
X149734001Y-108429999D03*
%TO.P,J1,20,Pin_20*%
%TO.N,/NDACGND*%
X147574000Y-108429999D03*
%TO.P,J1,21,Pin_21*%
%TO.N,/IFCGND*%
X145414002Y-108429999D03*
%TO.P,J1,22,Pin_22*%
%TO.N,/SRQGND*%
X143254001Y-108429999D03*
%TO.P,J1,23,Pin_23*%
%TO.N,/ATNGND*%
X141094000Y-108429999D03*
%TO.P,J1,24,Pin_24*%
%TO.N,GND*%
X138934002Y-108429999D03*
D18*
%TO.P,J1,SH,Shield*%
%TO.N,/SHIELD*%
X127413997Y-106284999D03*
X174214005Y-106284999D03*
%TD*%
D13*
%TO.P,TP17,1,1*%
%TO.N,/NDAC*%
X147066000Y-79502000D03*
%TD*%
%TO.P,TP8,1,1*%
%TO.N,/DIO6*%
X162306000Y-97790000D03*
%TD*%
D12*
%TO.P,D2,1,K*%
%TO.N,Net-(D2-K)*%
X131064000Y-83058000D03*
%TO.P,D2,2,A*%
%TO.N,+5V*%
X131064000Y-81183000D03*
%TD*%
D16*
%TO.P,Q2,1,B*%
%TO.N,Net-(Q2-B)*%
X130114000Y-92242000D03*
%TO.P,Q2,2,C*%
%TO.N,GND*%
X132014000Y-92242000D03*
%TO.P,Q2,3,E*%
%TO.N,Net-(Q2-E)*%
X131064000Y-89622000D03*
%TD*%
D19*
%TO.N,+5V*%
X129032000Y-81183000D03*
%TD*%
D20*
%TO.N,GND*%
X136144000Y-98552000D02*
X136906000Y-97790000D01*
X130302000Y-98552000D02*
X136144000Y-98552000D01*
X132014000Y-91397000D02*
X132080000Y-91331000D01*
X132014000Y-92242000D02*
X132014000Y-91397000D01*
X135491000Y-91331000D02*
X132080000Y-91331000D01*
X132080000Y-91331000D02*
X128887000Y-91331000D01*
X128887000Y-91331000D02*
X128016000Y-92202000D01*
X136906000Y-89916000D02*
X135491000Y-91331000D01*
%TO.N,Net-(Q2-B)*%
X130114000Y-94488000D02*
X130114000Y-92242000D01*
%TO.N,Net-(Q1-B)*%
X126116000Y-92202000D02*
X126116000Y-94488000D01*
%TO.N,/ATN*%
X133961760Y-94488000D02*
X131939000Y-94488000D01*
X138057000Y-88765000D02*
X138057000Y-90392760D01*
X139446000Y-87376000D02*
X138057000Y-88765000D01*
X138057000Y-90392760D02*
X133961760Y-94488000D01*
%TO.N,/REN*%
X128942000Y-95489000D02*
X127941000Y-94488000D01*
X152385000Y-95489000D02*
X128942000Y-95489000D01*
X154686000Y-97790000D02*
X152385000Y-95489000D01*
%TO.N,/ATN*%
X138295000Y-88527000D02*
X139446000Y-87376000D01*
%TO.N,Net-(Q2-B)*%
X130114000Y-92644000D02*
X130001000Y-92757000D01*
X130114000Y-92242000D02*
X130114000Y-92644000D01*
%TO.N,Net-(Q1-B)*%
X126116000Y-94713500D02*
X126087500Y-94742000D01*
%TO.N,Net-(D1-K)*%
X127000000Y-85447500D02*
X127000000Y-83058000D01*
%TO.N,Net-(Q1-E)*%
X127066000Y-89582000D02*
X127066000Y-87338500D01*
X127066000Y-87338500D02*
X127000000Y-87272500D01*
%TO.N,+5V*%
X131064000Y-81183000D02*
X127000000Y-81183000D01*
X129032000Y-81183000D02*
X127000000Y-81183000D01*
%TO.N,Net-(D2-K)*%
X131064000Y-83058000D02*
X131064000Y-85551000D01*
%TO.N,Net-(Q2-B)*%
X130074000Y-92202000D02*
X130114000Y-92242000D01*
%TO.N,Net-(Q2-E)*%
X131064000Y-87376000D02*
X131064000Y-89622000D01*
%TD*%
%TA.AperFunction,Conductor*%
%TO.N,/SHIELD*%
G36*
X178636539Y-60448185D02*
G01*
X178682294Y-60500989D01*
X178693500Y-60552500D01*
X178693500Y-116737500D01*
X178673815Y-116804539D01*
X178621011Y-116850294D01*
X178569500Y-116861500D01*
X123156500Y-116861500D01*
X123089461Y-116841815D01*
X123043706Y-116789011D01*
X123032500Y-116737500D01*
X123032500Y-106132240D01*
X124694000Y-106132240D01*
X124694000Y-106437757D01*
X124728202Y-106741318D01*
X124728205Y-106741336D01*
X124796184Y-107039172D01*
X124796189Y-107039188D01*
X124897085Y-107327530D01*
X124897091Y-107327544D01*
X125029639Y-107602783D01*
X125192173Y-107861455D01*
X125321639Y-108023802D01*
X125877000Y-107468440D01*
X125938323Y-107434955D01*
X126008014Y-107439939D01*
X126054445Y-107471972D01*
X126054986Y-107471432D01*
X126227564Y-107644010D01*
X126226904Y-107644669D01*
X126262055Y-107700083D01*
X126261641Y-107769952D01*
X126230554Y-107821994D01*
X125675191Y-108377356D01*
X125837534Y-108506818D01*
X126096212Y-108669356D01*
X126371451Y-108801904D01*
X126371465Y-108801910D01*
X126659807Y-108902806D01*
X126659823Y-108902811D01*
X126957659Y-108970790D01*
X126957677Y-108970793D01*
X127261238Y-109004995D01*
X127261242Y-109004996D01*
X127566752Y-109004996D01*
X127566755Y-109004995D01*
X127870316Y-108970793D01*
X127870334Y-108970790D01*
X128168170Y-108902811D01*
X128168186Y-108902806D01*
X128456528Y-108801910D01*
X128456542Y-108801904D01*
X128731781Y-108669356D01*
X128990459Y-108506818D01*
X129152801Y-108377356D01*
X129152801Y-108377355D01*
X129107078Y-108331632D01*
X137684202Y-108331632D01*
X137684202Y-108528365D01*
X137714975Y-108722661D01*
X137775768Y-108909760D01*
X137824294Y-109004996D01*
X137865077Y-109085037D01*
X137980708Y-109244189D01*
X138119812Y-109383293D01*
X138278964Y-109498924D01*
X138361776Y-109541119D01*
X138454240Y-109588232D01*
X138454242Y-109588232D01*
X138454245Y-109588234D01*
X138554532Y-109620819D01*
X138641339Y-109649025D01*
X138835636Y-109679799D01*
X138835641Y-109679799D01*
X139032368Y-109679799D01*
X139226664Y-109649025D01*
X139413759Y-109588234D01*
X139589040Y-109498924D01*
X139748192Y-109383293D01*
X139887296Y-109244189D01*
X139913683Y-109207869D01*
X139969012Y-109165204D01*
X140038626Y-109159225D01*
X140100421Y-109191830D01*
X140114316Y-109207867D01*
X140140706Y-109244189D01*
X140279810Y-109383293D01*
X140438962Y-109498924D01*
X140521774Y-109541119D01*
X140614238Y-109588232D01*
X140614240Y-109588232D01*
X140614243Y-109588234D01*
X140714530Y-109620819D01*
X140801337Y-109649025D01*
X140995634Y-109679799D01*
X140995639Y-109679799D01*
X141192366Y-109679799D01*
X141386662Y-109649025D01*
X141573757Y-109588234D01*
X141749038Y-109498924D01*
X141908190Y-109383293D01*
X142047294Y-109244189D01*
X142073683Y-109207867D01*
X142129010Y-109165202D01*
X142198624Y-109159222D01*
X142260419Y-109191828D01*
X142274314Y-109207863D01*
X142300707Y-109244189D01*
X142439811Y-109383293D01*
X142598963Y-109498924D01*
X142681775Y-109541119D01*
X142774239Y-109588232D01*
X142774241Y-109588232D01*
X142774244Y-109588234D01*
X142874531Y-109620819D01*
X142961338Y-109649025D01*
X143155635Y-109679799D01*
X143155640Y-109679799D01*
X143352367Y-109679799D01*
X143546663Y-109649025D01*
X143733758Y-109588234D01*
X143909039Y-109498924D01*
X144068191Y-109383293D01*
X144207295Y-109244189D01*
X144233684Y-109207867D01*
X144289011Y-109165202D01*
X144358625Y-109159222D01*
X144420420Y-109191828D01*
X144434315Y-109207863D01*
X144460708Y-109244189D01*
X144599812Y-109383293D01*
X144758964Y-109498924D01*
X144841776Y-109541119D01*
X144934240Y-109588232D01*
X144934242Y-109588232D01*
X144934245Y-109588234D01*
X145034532Y-109620819D01*
X145121339Y-109649025D01*
X145315636Y-109679799D01*
X145315641Y-109679799D01*
X145512368Y-109679799D01*
X145706664Y-109649025D01*
X145893759Y-109588234D01*
X146069040Y-109498924D01*
X146228192Y-109383293D01*
X146367296Y-109244189D01*
X146393683Y-109207869D01*
X146449012Y-109165204D01*
X146518626Y-109159225D01*
X146580421Y-109191830D01*
X146594316Y-109207867D01*
X146620706Y-109244189D01*
X146759810Y-109383293D01*
X146918962Y-109498924D01*
X147001774Y-109541119D01*
X147094238Y-109588232D01*
X147094240Y-109588232D01*
X147094243Y-109588234D01*
X147194530Y-109620819D01*
X147281337Y-109649025D01*
X147475634Y-109679799D01*
X147475639Y-109679799D01*
X147672366Y-109679799D01*
X147866662Y-109649025D01*
X148053757Y-109588234D01*
X148229038Y-109498924D01*
X148388190Y-109383293D01*
X148527294Y-109244189D01*
X148553683Y-109207867D01*
X148609010Y-109165202D01*
X148678624Y-109159222D01*
X148740419Y-109191828D01*
X148754314Y-109207863D01*
X148780707Y-109244189D01*
X148919811Y-109383293D01*
X149078963Y-109498924D01*
X149161775Y-109541119D01*
X149254239Y-109588232D01*
X149254241Y-109588232D01*
X149254244Y-109588234D01*
X149354531Y-109620819D01*
X149441338Y-109649025D01*
X149635635Y-109679799D01*
X149635640Y-109679799D01*
X149832367Y-109679799D01*
X150026663Y-109649025D01*
X150213758Y-109588234D01*
X150389039Y-109498924D01*
X150548191Y-109383293D01*
X150687295Y-109244189D01*
X150713683Y-109207868D01*
X150769013Y-109165203D01*
X150838626Y-109159224D01*
X150900421Y-109191830D01*
X150914317Y-109207867D01*
X150940707Y-109244189D01*
X151079811Y-109383293D01*
X151238963Y-109498924D01*
X151321775Y-109541119D01*
X151414239Y-109588232D01*
X151414241Y-109588232D01*
X151414244Y-109588234D01*
X151514531Y-109620819D01*
X151601338Y-109649025D01*
X151795635Y-109679799D01*
X151795640Y-109679799D01*
X151992367Y-109679799D01*
X152186663Y-109649025D01*
X152373758Y-109588234D01*
X152549039Y-109498924D01*
X152708191Y-109383293D01*
X152847295Y-109244189D01*
X152873684Y-109207867D01*
X152929011Y-109165202D01*
X152998625Y-109159222D01*
X153060420Y-109191828D01*
X153074315Y-109207863D01*
X153100708Y-109244189D01*
X153239812Y-109383293D01*
X153398964Y-109498924D01*
X153481776Y-109541119D01*
X153574240Y-109588232D01*
X153574242Y-109588232D01*
X153574245Y-109588234D01*
X153674532Y-109620819D01*
X153761339Y-109649025D01*
X153955636Y-109679799D01*
X153955641Y-109679799D01*
X154152368Y-109679799D01*
X154346664Y-109649025D01*
X154533759Y-109588234D01*
X154709040Y-109498924D01*
X154868192Y-109383293D01*
X155007296Y-109244189D01*
X155033683Y-109207869D01*
X155089012Y-109165204D01*
X155158626Y-109159225D01*
X155220421Y-109191830D01*
X155234316Y-109207867D01*
X155260706Y-109244189D01*
X155399810Y-109383293D01*
X155558962Y-109498924D01*
X155641774Y-109541119D01*
X155734238Y-109588232D01*
X155734240Y-109588232D01*
X155734243Y-109588234D01*
X155834530Y-109620819D01*
X155921337Y-109649025D01*
X156115634Y-109679799D01*
X156115639Y-109679799D01*
X156312366Y-109679799D01*
X156506662Y-109649025D01*
X156693757Y-109588234D01*
X156869038Y-109498924D01*
X157028190Y-109383293D01*
X157167294Y-109244189D01*
X157193683Y-109207867D01*
X157249010Y-109165202D01*
X157318624Y-109159222D01*
X157380419Y-109191828D01*
X157394314Y-109207863D01*
X157420707Y-109244189D01*
X157559811Y-109383293D01*
X157718963Y-109498924D01*
X157801775Y-109541119D01*
X157894239Y-109588232D01*
X157894241Y-109588232D01*
X157894244Y-109588234D01*
X157994531Y-109620819D01*
X158081338Y-109649025D01*
X158275635Y-109679799D01*
X158275640Y-109679799D01*
X158472367Y-109679799D01*
X158666663Y-109649025D01*
X158853758Y-109588234D01*
X159029039Y-109498924D01*
X159188191Y-109383293D01*
X159327295Y-109244189D01*
X159353684Y-109207867D01*
X159409011Y-109165202D01*
X159478625Y-109159222D01*
X159540420Y-109191828D01*
X159554315Y-109207863D01*
X159580708Y-109244189D01*
X159719812Y-109383293D01*
X159878964Y-109498924D01*
X159961776Y-109541119D01*
X160054240Y-109588232D01*
X160054242Y-109588232D01*
X160054245Y-109588234D01*
X160154532Y-109620819D01*
X160241339Y-109649025D01*
X160435636Y-109679799D01*
X160435641Y-109679799D01*
X160632368Y-109679799D01*
X160826664Y-109649025D01*
X161013759Y-109588234D01*
X161189040Y-109498924D01*
X161348192Y-109383293D01*
X161487296Y-109244189D01*
X161513683Y-109207869D01*
X161569012Y-109165204D01*
X161638626Y-109159225D01*
X161700421Y-109191830D01*
X161714316Y-109207867D01*
X161740706Y-109244189D01*
X161879810Y-109383293D01*
X162038962Y-109498924D01*
X162121774Y-109541119D01*
X162214238Y-109588232D01*
X162214240Y-109588232D01*
X162214243Y-109588234D01*
X162314530Y-109620819D01*
X162401337Y-109649025D01*
X162595634Y-109679799D01*
X162595639Y-109679799D01*
X162792366Y-109679799D01*
X162986662Y-109649025D01*
X163173757Y-109588234D01*
X163349038Y-109498924D01*
X163508190Y-109383293D01*
X163647294Y-109244189D01*
X163762925Y-109085037D01*
X163852235Y-108909756D01*
X163913026Y-108722661D01*
X163921469Y-108669356D01*
X163943800Y-108528365D01*
X163943800Y-108331632D01*
X163913026Y-108137336D01*
X163876136Y-108023802D01*
X163852235Y-107950242D01*
X163852233Y-107950239D01*
X163852233Y-107950237D01*
X163774000Y-107796697D01*
X163762925Y-107774961D01*
X163647294Y-107615809D01*
X163508190Y-107476705D01*
X163349038Y-107361074D01*
X163283232Y-107327544D01*
X163173761Y-107271765D01*
X162986662Y-107210972D01*
X162792366Y-107180199D01*
X162792361Y-107180199D01*
X162595639Y-107180199D01*
X162595634Y-107180199D01*
X162401337Y-107210972D01*
X162214238Y-107271765D01*
X162038961Y-107361074D01*
X161948159Y-107427046D01*
X161879810Y-107476705D01*
X161879808Y-107476707D01*
X161879807Y-107476707D01*
X161740707Y-107615807D01*
X161714319Y-107652128D01*
X161658988Y-107694793D01*
X161589375Y-107700772D01*
X161527580Y-107668166D01*
X161513683Y-107652128D01*
X161508264Y-107644669D01*
X161487296Y-107615809D01*
X161348192Y-107476705D01*
X161189040Y-107361074D01*
X161123234Y-107327544D01*
X161013763Y-107271765D01*
X160826664Y-107210972D01*
X160632368Y-107180199D01*
X160632363Y-107180199D01*
X160435641Y-107180199D01*
X160435636Y-107180199D01*
X160241339Y-107210972D01*
X160054240Y-107271765D01*
X159878963Y-107361074D01*
X159788161Y-107427046D01*
X159719812Y-107476705D01*
X159719810Y-107476707D01*
X159719809Y-107476707D01*
X159580707Y-107615809D01*
X159554318Y-107652131D01*
X159498987Y-107694796D01*
X159429374Y-107700774D01*
X159367579Y-107668167D01*
X159353683Y-107652129D01*
X159327297Y-107615812D01*
X159327292Y-107615806D01*
X159188193Y-107476707D01*
X159188191Y-107476705D01*
X159029039Y-107361074D01*
X158963233Y-107327544D01*
X158853762Y-107271765D01*
X158666663Y-107210972D01*
X158472367Y-107180199D01*
X158472362Y-107180199D01*
X158275640Y-107180199D01*
X158275635Y-107180199D01*
X158081338Y-107210972D01*
X157894239Y-107271765D01*
X157718962Y-107361074D01*
X157628160Y-107427046D01*
X157559811Y-107476705D01*
X157559809Y-107476707D01*
X157559808Y-107476707D01*
X157420706Y-107615809D01*
X157394317Y-107652131D01*
X157338986Y-107694796D01*
X157269373Y-107700774D01*
X157207578Y-107668167D01*
X157193682Y-107652129D01*
X157167296Y-107615812D01*
X157167291Y-107615806D01*
X157028192Y-107476707D01*
X157028190Y-107476705D01*
X156869038Y-107361074D01*
X156803232Y-107327544D01*
X156693761Y-107271765D01*
X156506662Y-107210972D01*
X156312366Y-107180199D01*
X156312361Y-107180199D01*
X156115639Y-107180199D01*
X156115634Y-107180199D01*
X155921337Y-107210972D01*
X155734238Y-107271765D01*
X155558961Y-107361074D01*
X155468159Y-107427046D01*
X155399810Y-107476705D01*
X155399808Y-107476707D01*
X155399807Y-107476707D01*
X155260707Y-107615807D01*
X155234319Y-107652128D01*
X155178988Y-107694793D01*
X155109375Y-107700772D01*
X155047580Y-107668166D01*
X155033683Y-107652128D01*
X155028264Y-107644669D01*
X155007296Y-107615809D01*
X154868192Y-107476705D01*
X154709040Y-107361074D01*
X154643234Y-107327544D01*
X154533763Y-107271765D01*
X154346664Y-107210972D01*
X154152368Y-107180199D01*
X154152363Y-107180199D01*
X153955641Y-107180199D01*
X153955636Y-107180199D01*
X153761339Y-107210972D01*
X153574240Y-107271765D01*
X153398963Y-107361074D01*
X153308161Y-107427046D01*
X153239812Y-107476705D01*
X153239810Y-107476707D01*
X153239809Y-107476707D01*
X153100707Y-107615809D01*
X153074318Y-107652131D01*
X153018987Y-107694796D01*
X152949374Y-107700774D01*
X152887579Y-107668167D01*
X152873683Y-107652129D01*
X152847297Y-107615812D01*
X152847292Y-107615806D01*
X152708193Y-107476707D01*
X152708191Y-107476705D01*
X152549039Y-107361074D01*
X152483233Y-107327544D01*
X152373762Y-107271765D01*
X152186663Y-107210972D01*
X151992367Y-107180199D01*
X151992362Y-107180199D01*
X151795640Y-107180199D01*
X151795635Y-107180199D01*
X151601338Y-107210972D01*
X151414239Y-107271765D01*
X151238962Y-107361074D01*
X151148160Y-107427046D01*
X151079811Y-107476705D01*
X151079809Y-107476707D01*
X151079808Y-107476707D01*
X150940709Y-107615806D01*
X150940702Y-107615815D01*
X150914318Y-107652129D01*
X150858988Y-107694795D01*
X150789374Y-107700773D01*
X150727580Y-107668166D01*
X150713684Y-107652129D01*
X150687299Y-107615815D01*
X150687297Y-107615812D01*
X150687295Y-107615809D01*
X150548191Y-107476705D01*
X150389039Y-107361074D01*
X150323233Y-107327544D01*
X150213762Y-107271765D01*
X150026663Y-107210972D01*
X149832367Y-107180199D01*
X149832362Y-107180199D01*
X149635640Y-107180199D01*
X149635635Y-107180199D01*
X149441338Y-107210972D01*
X149254239Y-107271765D01*
X149078962Y-107361074D01*
X148988160Y-107427046D01*
X148919811Y-107476705D01*
X148919809Y-107476707D01*
X148919808Y-107476707D01*
X148780706Y-107615809D01*
X148754317Y-107652131D01*
X148698986Y-107694796D01*
X148629373Y-107700774D01*
X148567578Y-107668167D01*
X148553682Y-107652129D01*
X148527296Y-107615812D01*
X148527291Y-107615806D01*
X148388192Y-107476707D01*
X148388190Y-107476705D01*
X148229038Y-107361074D01*
X148163232Y-107327544D01*
X148053761Y-107271765D01*
X147866662Y-107210972D01*
X147672366Y-107180199D01*
X147672361Y-107180199D01*
X147475639Y-107180199D01*
X147475634Y-107180199D01*
X147281337Y-107210972D01*
X147094238Y-107271765D01*
X146918961Y-107361074D01*
X146828159Y-107427046D01*
X146759810Y-107476705D01*
X146759808Y-107476707D01*
X146759807Y-107476707D01*
X146620707Y-107615807D01*
X146594319Y-107652128D01*
X146538988Y-107694793D01*
X146469375Y-107700772D01*
X146407580Y-107668166D01*
X146393683Y-107652128D01*
X146388264Y-107644669D01*
X146367296Y-107615809D01*
X146228192Y-107476705D01*
X146069040Y-107361074D01*
X146003234Y-107327544D01*
X145893763Y-107271765D01*
X145706664Y-107210972D01*
X145512368Y-107180199D01*
X145512363Y-107180199D01*
X145315641Y-107180199D01*
X145315636Y-107180199D01*
X145121339Y-107210972D01*
X144934240Y-107271765D01*
X144758963Y-107361074D01*
X144668161Y-107427046D01*
X144599812Y-107476705D01*
X144599810Y-107476707D01*
X144599809Y-107476707D01*
X144460707Y-107615809D01*
X144434318Y-107652131D01*
X144378987Y-107694796D01*
X144309374Y-107700774D01*
X144247579Y-107668167D01*
X144233683Y-107652129D01*
X144207297Y-107615812D01*
X144207292Y-107615806D01*
X144068193Y-107476707D01*
X144068191Y-107476705D01*
X143909039Y-107361074D01*
X143843233Y-107327544D01*
X143733762Y-107271765D01*
X143546663Y-107210972D01*
X143352367Y-107180199D01*
X143352362Y-107180199D01*
X143155640Y-107180199D01*
X143155635Y-107180199D01*
X142961338Y-107210972D01*
X142774239Y-107271765D01*
X142598962Y-107361074D01*
X142508160Y-107427046D01*
X142439811Y-107476705D01*
X142439809Y-107476707D01*
X142439808Y-107476707D01*
X142300706Y-107615809D01*
X142274317Y-107652131D01*
X142218986Y-107694796D01*
X142149373Y-107700774D01*
X142087578Y-107668167D01*
X142073682Y-107652129D01*
X142047296Y-107615812D01*
X142047291Y-107615806D01*
X141908192Y-107476707D01*
X141908190Y-107476705D01*
X141749038Y-107361074D01*
X141683232Y-107327544D01*
X141573761Y-107271765D01*
X141386662Y-107210972D01*
X141192366Y-107180199D01*
X141192361Y-107180199D01*
X140995639Y-107180199D01*
X140995634Y-107180199D01*
X140801337Y-107210972D01*
X140614238Y-107271765D01*
X140438961Y-107361074D01*
X140348159Y-107427046D01*
X140279810Y-107476705D01*
X140279808Y-107476707D01*
X140279807Y-107476707D01*
X140140707Y-107615807D01*
X140114319Y-107652128D01*
X140058988Y-107694793D01*
X139989375Y-107700772D01*
X139927580Y-107668166D01*
X139913683Y-107652128D01*
X139908264Y-107644669D01*
X139887296Y-107615809D01*
X139748192Y-107476705D01*
X139589040Y-107361074D01*
X139523234Y-107327544D01*
X139413763Y-107271765D01*
X139226664Y-107210972D01*
X139032368Y-107180199D01*
X139032363Y-107180199D01*
X138835641Y-107180199D01*
X138835636Y-107180199D01*
X138641339Y-107210972D01*
X138454240Y-107271765D01*
X138278963Y-107361074D01*
X138188161Y-107427046D01*
X138119812Y-107476705D01*
X138119810Y-107476707D01*
X138119809Y-107476707D01*
X137980710Y-107615806D01*
X137980710Y-107615807D01*
X137980708Y-107615809D01*
X137942668Y-107668166D01*
X137865077Y-107774960D01*
X137775768Y-107950237D01*
X137714975Y-108137336D01*
X137684202Y-108331632D01*
X129107078Y-108331632D01*
X128597438Y-107821994D01*
X128563953Y-107760671D01*
X128568937Y-107690980D01*
X128600977Y-107644557D01*
X128600430Y-107644010D01*
X128773008Y-107471432D01*
X128773673Y-107472097D01*
X128829042Y-107436951D01*
X128898910Y-107437341D01*
X128950992Y-107468440D01*
X129506353Y-108023803D01*
X129506354Y-108023803D01*
X129635816Y-107861461D01*
X129798354Y-107602783D01*
X129930902Y-107327544D01*
X129930908Y-107327530D01*
X130031804Y-107039188D01*
X130031809Y-107039172D01*
X130099788Y-106741336D01*
X130099791Y-106741318D01*
X130133993Y-106437757D01*
X130133994Y-106437753D01*
X130133994Y-106132244D01*
X130133993Y-106132240D01*
X171494008Y-106132240D01*
X171494008Y-106437757D01*
X171528210Y-106741318D01*
X171528213Y-106741336D01*
X171596192Y-107039172D01*
X171596197Y-107039188D01*
X171697093Y-107327530D01*
X171697099Y-107327544D01*
X171829647Y-107602783D01*
X171992181Y-107861455D01*
X172121647Y-108023802D01*
X172677008Y-107468440D01*
X172738331Y-107434955D01*
X172808022Y-107439939D01*
X172854453Y-107471972D01*
X172854994Y-107471432D01*
X173027572Y-107644010D01*
X173026912Y-107644669D01*
X173062063Y-107700083D01*
X173061649Y-107769952D01*
X173030562Y-107821994D01*
X172475199Y-108377356D01*
X172637542Y-108506818D01*
X172896220Y-108669356D01*
X173171459Y-108801904D01*
X173171473Y-108801910D01*
X173459815Y-108902806D01*
X173459831Y-108902811D01*
X173757667Y-108970790D01*
X173757685Y-108970793D01*
X174061246Y-109004995D01*
X174061250Y-109004996D01*
X174366760Y-109004996D01*
X174366763Y-109004995D01*
X174670324Y-108970793D01*
X174670342Y-108970790D01*
X174968178Y-108902811D01*
X174968194Y-108902806D01*
X175256536Y-108801910D01*
X175256550Y-108801904D01*
X175531789Y-108669356D01*
X175790467Y-108506818D01*
X175952809Y-108377356D01*
X175952809Y-108377355D01*
X175397446Y-107821994D01*
X175363961Y-107760671D01*
X175368945Y-107690980D01*
X175400985Y-107644557D01*
X175400438Y-107644010D01*
X175573016Y-107471432D01*
X175573681Y-107472097D01*
X175629050Y-107436951D01*
X175698918Y-107437341D01*
X175751000Y-107468440D01*
X176306361Y-108023803D01*
X176306362Y-108023803D01*
X176435824Y-107861461D01*
X176598362Y-107602783D01*
X176730910Y-107327544D01*
X176730916Y-107327530D01*
X176831812Y-107039188D01*
X176831817Y-107039172D01*
X176899796Y-106741336D01*
X176899799Y-106741318D01*
X176934001Y-106437757D01*
X176934002Y-106437753D01*
X176934002Y-106132244D01*
X176934001Y-106132240D01*
X176899799Y-105828679D01*
X176899796Y-105828661D01*
X176831817Y-105530825D01*
X176831812Y-105530809D01*
X176730916Y-105242467D01*
X176730910Y-105242453D01*
X176598362Y-104967214D01*
X176435824Y-104708536D01*
X176306362Y-104546193D01*
X175751000Y-105101556D01*
X175689677Y-105135041D01*
X175619985Y-105130057D01*
X175573557Y-105098024D01*
X175573016Y-105098566D01*
X175400438Y-104925988D01*
X175401096Y-104925329D01*
X175365944Y-104869907D01*
X175366360Y-104800039D01*
X175397446Y-104748002D01*
X175952808Y-104192641D01*
X175790461Y-104063175D01*
X175531789Y-103900641D01*
X175256550Y-103768093D01*
X175256536Y-103768087D01*
X174968194Y-103667191D01*
X174968178Y-103667186D01*
X174670342Y-103599207D01*
X174670324Y-103599204D01*
X174366763Y-103565002D01*
X174061246Y-103565002D01*
X173757685Y-103599204D01*
X173757667Y-103599207D01*
X173459831Y-103667186D01*
X173459815Y-103667191D01*
X173171473Y-103768087D01*
X173171459Y-103768093D01*
X172896220Y-103900641D01*
X172637538Y-104063181D01*
X172637534Y-104063184D01*
X172475199Y-104192640D01*
X173030563Y-104748003D01*
X173064048Y-104809326D01*
X173059064Y-104879017D01*
X173027031Y-104925447D01*
X173027572Y-104925988D01*
X172854994Y-105098566D01*
X172854335Y-105097907D01*
X172798917Y-105133059D01*
X172729049Y-105132643D01*
X172677009Y-105101557D01*
X172121646Y-104546193D01*
X171992190Y-104708528D01*
X171992187Y-104708532D01*
X171829647Y-104967214D01*
X171697099Y-105242453D01*
X171697093Y-105242467D01*
X171596197Y-105530809D01*
X171596192Y-105530825D01*
X171528213Y-105828661D01*
X171528210Y-105828679D01*
X171494008Y-106132240D01*
X130133993Y-106132240D01*
X130099791Y-105828679D01*
X130099788Y-105828661D01*
X130031809Y-105530825D01*
X130031804Y-105530809D01*
X129930908Y-105242467D01*
X129930902Y-105242453D01*
X129905507Y-105189719D01*
X129798354Y-104967214D01*
X129635816Y-104708536D01*
X129506354Y-104546193D01*
X128950992Y-105101556D01*
X128889669Y-105135041D01*
X128819977Y-105130057D01*
X128773549Y-105098024D01*
X128773008Y-105098566D01*
X128600430Y-104925988D01*
X128601088Y-104925329D01*
X128565936Y-104869907D01*
X128566352Y-104800039D01*
X128597438Y-104748002D01*
X129152801Y-104192640D01*
X129078970Y-104133762D01*
X129078958Y-104133754D01*
X128990454Y-104063175D01*
X128956242Y-104041678D01*
X137684702Y-104041678D01*
X137684702Y-104238321D01*
X137715464Y-104432546D01*
X137776228Y-104619562D01*
X137776229Y-104619565D01*
X137865504Y-104794775D01*
X137890824Y-104829623D01*
X137890824Y-104829624D01*
X138454876Y-104265572D01*
X138472456Y-104331179D01*
X138537663Y-104444121D01*
X138629881Y-104536339D01*
X138742823Y-104601546D01*
X138808429Y-104619125D01*
X138244377Y-105183176D01*
X138244377Y-105183177D01*
X138279225Y-105208496D01*
X138454436Y-105297772D01*
X138454439Y-105297773D01*
X138641455Y-105358537D01*
X138835681Y-105389300D01*
X139032323Y-105389300D01*
X139226548Y-105358537D01*
X139413564Y-105297773D01*
X139413577Y-105297767D01*
X139588771Y-105208500D01*
X139588776Y-105208497D01*
X139623626Y-105183176D01*
X139059575Y-104619125D01*
X139125181Y-104601546D01*
X139238123Y-104536339D01*
X139330341Y-104444121D01*
X139395548Y-104331179D01*
X139413127Y-104265572D01*
X139977234Y-104829679D01*
X140045403Y-104844001D01*
X140087071Y-104880368D01*
X140140706Y-104954190D01*
X140279810Y-105093294D01*
X140438962Y-105208925D01*
X140504765Y-105242453D01*
X140614238Y-105298233D01*
X140614240Y-105298233D01*
X140614243Y-105298235D01*
X140714530Y-105330820D01*
X140801337Y-105359026D01*
X140995634Y-105389800D01*
X140995639Y-105389800D01*
X141192366Y-105389800D01*
X141386662Y-105359026D01*
X141388167Y-105358537D01*
X141573757Y-105298235D01*
X141749038Y-105208925D01*
X141908190Y-105093294D01*
X142047294Y-104954190D01*
X142073683Y-104917868D01*
X142129010Y-104875203D01*
X142198624Y-104869223D01*
X142260419Y-104901829D01*
X142274314Y-104917864D01*
X142300707Y-104954190D01*
X142439811Y-105093294D01*
X142598963Y-105208925D01*
X142664766Y-105242453D01*
X142774239Y-105298233D01*
X142774241Y-105298233D01*
X142774244Y-105298235D01*
X142874531Y-105330820D01*
X142961338Y-105359026D01*
X143155635Y-105389800D01*
X143155640Y-105389800D01*
X143352367Y-105389800D01*
X143546663Y-105359026D01*
X143548168Y-105358537D01*
X143733758Y-105298235D01*
X143909039Y-105208925D01*
X144068191Y-105093294D01*
X144207295Y-104954190D01*
X144233684Y-104917868D01*
X144289011Y-104875203D01*
X144358625Y-104869223D01*
X144420420Y-104901829D01*
X144434315Y-104917864D01*
X144460708Y-104954190D01*
X144599812Y-105093294D01*
X144758964Y-105208925D01*
X144824767Y-105242453D01*
X144934240Y-105298233D01*
X144934242Y-105298233D01*
X144934245Y-105298235D01*
X145034532Y-105330820D01*
X145121339Y-105359026D01*
X145315636Y-105389800D01*
X145315641Y-105389800D01*
X145512368Y-105389800D01*
X145706664Y-105359026D01*
X145708169Y-105358537D01*
X145893759Y-105298235D01*
X146069040Y-105208925D01*
X146228192Y-105093294D01*
X146367296Y-104954190D01*
X146393683Y-104917870D01*
X146449012Y-104875205D01*
X146518626Y-104869226D01*
X146580421Y-104901831D01*
X146594316Y-104917868D01*
X146620706Y-104954190D01*
X146759810Y-105093294D01*
X146918962Y-105208925D01*
X146984765Y-105242453D01*
X147094238Y-105298233D01*
X147094240Y-105298233D01*
X147094243Y-105298235D01*
X147194530Y-105330820D01*
X147281337Y-105359026D01*
X147475634Y-105389800D01*
X147475639Y-105389800D01*
X147672366Y-105389800D01*
X147866662Y-105359026D01*
X147868167Y-105358537D01*
X148053757Y-105298235D01*
X148229038Y-105208925D01*
X148388190Y-105093294D01*
X148527294Y-104954190D01*
X148553683Y-104917868D01*
X148609010Y-104875203D01*
X148678624Y-104869223D01*
X148740419Y-104901829D01*
X148754314Y-104917864D01*
X148780707Y-104954190D01*
X148919811Y-105093294D01*
X149078963Y-105208925D01*
X149144766Y-105242453D01*
X149254239Y-105298233D01*
X149254241Y-105298233D01*
X149254244Y-105298235D01*
X149354531Y-105330820D01*
X149441338Y-105359026D01*
X149635635Y-105389800D01*
X149635640Y-105389800D01*
X149832367Y-105389800D01*
X150026663Y-105359026D01*
X150028168Y-105358537D01*
X150213758Y-105298235D01*
X150389039Y-105208925D01*
X150548191Y-105093294D01*
X150687295Y-104954190D01*
X150713683Y-104917869D01*
X150769013Y-104875204D01*
X150838626Y-104869225D01*
X150900421Y-104901831D01*
X150914317Y-104917868D01*
X150940707Y-104954190D01*
X151079811Y-105093294D01*
X151238963Y-105208925D01*
X151304766Y-105242453D01*
X151414239Y-105298233D01*
X151414241Y-105298233D01*
X151414244Y-105298235D01*
X151514531Y-105330820D01*
X151601338Y-105359026D01*
X151795635Y-105389800D01*
X151795640Y-105389800D01*
X151992367Y-105389800D01*
X152186663Y-105359026D01*
X152188168Y-105358537D01*
X152373758Y-105298235D01*
X152549039Y-105208925D01*
X152708191Y-105093294D01*
X152847295Y-104954190D01*
X152873684Y-104917868D01*
X152929011Y-104875203D01*
X152998625Y-104869223D01*
X153060420Y-104901829D01*
X153074315Y-104917864D01*
X153100708Y-104954190D01*
X153239812Y-105093294D01*
X153398964Y-105208925D01*
X153464767Y-105242453D01*
X153574240Y-105298233D01*
X153574242Y-105298233D01*
X153574245Y-105298235D01*
X153674532Y-105330820D01*
X153761339Y-105359026D01*
X153955636Y-105389800D01*
X153955641Y-105389800D01*
X154152368Y-105389800D01*
X154346664Y-105359026D01*
X154348169Y-105358537D01*
X154533759Y-105298235D01*
X154709040Y-105208925D01*
X154868192Y-105093294D01*
X155007296Y-104954190D01*
X155033683Y-104917870D01*
X155089012Y-104875205D01*
X155158626Y-104869226D01*
X155220421Y-104901831D01*
X155234316Y-104917868D01*
X155260706Y-104954190D01*
X155399810Y-105093294D01*
X155558962Y-105208925D01*
X155624765Y-105242453D01*
X155734238Y-105298233D01*
X155734240Y-105298233D01*
X155734243Y-105298235D01*
X155834530Y-105330820D01*
X155921337Y-105359026D01*
X156115634Y-105389800D01*
X156115639Y-105389800D01*
X156312366Y-105389800D01*
X156506662Y-105359026D01*
X156508167Y-105358537D01*
X156693757Y-105298235D01*
X156869038Y-105208925D01*
X157028190Y-105093294D01*
X157167294Y-104954190D01*
X157193683Y-104917868D01*
X157249010Y-104875203D01*
X157318624Y-104869223D01*
X157380419Y-104901829D01*
X157394314Y-104917864D01*
X157420707Y-104954190D01*
X157559811Y-105093294D01*
X157718963Y-105208925D01*
X157784766Y-105242453D01*
X157894239Y-105298233D01*
X157894241Y-105298233D01*
X157894244Y-105298235D01*
X157994531Y-105330820D01*
X158081338Y-105359026D01*
X158275635Y-105389800D01*
X158275640Y-105389800D01*
X158472367Y-105389800D01*
X158666663Y-105359026D01*
X158668168Y-105358537D01*
X158853758Y-105298235D01*
X159029039Y-105208925D01*
X159188191Y-105093294D01*
X159327295Y-104954190D01*
X159353684Y-104917868D01*
X159409011Y-104875203D01*
X159478625Y-104869223D01*
X159540420Y-104901829D01*
X159554315Y-104917864D01*
X159580708Y-104954190D01*
X159719812Y-105093294D01*
X159878964Y-105208925D01*
X159944767Y-105242453D01*
X160054240Y-105298233D01*
X160054242Y-105298233D01*
X160054245Y-105298235D01*
X160154532Y-105330820D01*
X160241339Y-105359026D01*
X160435636Y-105389800D01*
X160435641Y-105389800D01*
X160632368Y-105389800D01*
X160826664Y-105359026D01*
X160828169Y-105358537D01*
X161013759Y-105298235D01*
X161189040Y-105208925D01*
X161348192Y-105093294D01*
X161487296Y-104954190D01*
X161513683Y-104917870D01*
X161569012Y-104875205D01*
X161638626Y-104869226D01*
X161700421Y-104901831D01*
X161714316Y-104917868D01*
X161740706Y-104954190D01*
X161879810Y-105093294D01*
X162038962Y-105208925D01*
X162104765Y-105242453D01*
X162214238Y-105298233D01*
X162214240Y-105298233D01*
X162214243Y-105298235D01*
X162314530Y-105330820D01*
X162401337Y-105359026D01*
X162595634Y-105389800D01*
X162595639Y-105389800D01*
X162792366Y-105389800D01*
X162986662Y-105359026D01*
X162988167Y-105358537D01*
X163173757Y-105298235D01*
X163349038Y-105208925D01*
X163508190Y-105093294D01*
X163647294Y-104954190D01*
X163762925Y-104795038D01*
X163852235Y-104619757D01*
X163913026Y-104432662D01*
X163913044Y-104432546D01*
X163943800Y-104238366D01*
X163943800Y-104041633D01*
X163913026Y-103847337D01*
X163858152Y-103678454D01*
X163852235Y-103660243D01*
X163852233Y-103660240D01*
X163852233Y-103660238D01*
X163774000Y-103506698D01*
X163762925Y-103484962D01*
X163647294Y-103325810D01*
X163508190Y-103186706D01*
X163349038Y-103071075D01*
X163173761Y-102981766D01*
X162986662Y-102920973D01*
X162792366Y-102890200D01*
X162792361Y-102890200D01*
X162595639Y-102890200D01*
X162595634Y-102890200D01*
X162401337Y-102920973D01*
X162214238Y-102981766D01*
X162038961Y-103071075D01*
X161948159Y-103137047D01*
X161879810Y-103186706D01*
X161879808Y-103186708D01*
X161879807Y-103186708D01*
X161740707Y-103325808D01*
X161714319Y-103362129D01*
X161658988Y-103404794D01*
X161589375Y-103410773D01*
X161527580Y-103378167D01*
X161513683Y-103362129D01*
X161487298Y-103325813D01*
X161487296Y-103325810D01*
X161348192Y-103186706D01*
X161189040Y-103071075D01*
X161013763Y-102981766D01*
X160826664Y-102920973D01*
X160632368Y-102890200D01*
X160632363Y-102890200D01*
X160435641Y-102890200D01*
X160435636Y-102890200D01*
X160241339Y-102920973D01*
X160054240Y-102981766D01*
X159878963Y-103071075D01*
X159788161Y-103137047D01*
X159719812Y-103186706D01*
X159719810Y-103186708D01*
X159719809Y-103186708D01*
X159580707Y-103325810D01*
X159554318Y-103362132D01*
X159498987Y-103404797D01*
X159429374Y-103410775D01*
X159367579Y-103378168D01*
X159353683Y-103362130D01*
X159327297Y-103325813D01*
X159327292Y-103325807D01*
X159188193Y-103186708D01*
X159188191Y-103186706D01*
X159029039Y-103071075D01*
X158853762Y-102981766D01*
X158666663Y-102920973D01*
X158472367Y-102890200D01*
X158472362Y-102890200D01*
X158275640Y-102890200D01*
X158275635Y-102890200D01*
X158081338Y-102920973D01*
X157894239Y-102981766D01*
X157718962Y-103071075D01*
X157628160Y-103137047D01*
X157559811Y-103186706D01*
X157559809Y-103186708D01*
X157559808Y-103186708D01*
X157420706Y-103325810D01*
X157394317Y-103362132D01*
X157338986Y-103404797D01*
X157269373Y-103410775D01*
X157207578Y-103378168D01*
X157193682Y-103362130D01*
X157167296Y-103325813D01*
X157167291Y-103325807D01*
X157028192Y-103186708D01*
X157028190Y-103186706D01*
X156869038Y-103071075D01*
X156693761Y-102981766D01*
X156506662Y-102920973D01*
X156312366Y-102890200D01*
X156312361Y-102890200D01*
X156115639Y-102890200D01*
X156115634Y-102890200D01*
X155921337Y-102920973D01*
X155734238Y-102981766D01*
X155558961Y-103071075D01*
X155468159Y-103137047D01*
X155399810Y-103186706D01*
X155399808Y-103186708D01*
X155399807Y-103186708D01*
X155260707Y-103325808D01*
X155234319Y-103362129D01*
X155178988Y-103404794D01*
X155109375Y-103410773D01*
X155047580Y-103378167D01*
X155033683Y-103362129D01*
X155007298Y-103325813D01*
X155007296Y-103325810D01*
X154868192Y-103186706D01*
X154709040Y-103071075D01*
X154533763Y-102981766D01*
X154346664Y-102920973D01*
X154152368Y-102890200D01*
X154152363Y-102890200D01*
X153955641Y-102890200D01*
X153955636Y-102890200D01*
X153761339Y-102920973D01*
X153574240Y-102981766D01*
X153398963Y-103071075D01*
X153308161Y-103137047D01*
X153239812Y-103186706D01*
X153239810Y-103186708D01*
X153239809Y-103186708D01*
X153100707Y-103325810D01*
X153074318Y-103362132D01*
X153018987Y-103404797D01*
X152949374Y-103410775D01*
X152887579Y-103378168D01*
X152873683Y-103362130D01*
X152847297Y-103325813D01*
X152847292Y-103325807D01*
X152708193Y-103186708D01*
X152708191Y-103186706D01*
X152549039Y-103071075D01*
X152373762Y-102981766D01*
X152186663Y-102920973D01*
X151992367Y-102890200D01*
X151992362Y-102890200D01*
X151795640Y-102890200D01*
X151795635Y-102890200D01*
X151601338Y-102920973D01*
X151414239Y-102981766D01*
X151238962Y-103071075D01*
X151148160Y-103137047D01*
X151079811Y-103186706D01*
X151079809Y-103186708D01*
X151079808Y-103186708D01*
X150940709Y-103325807D01*
X150940702Y-103325816D01*
X150914318Y-103362130D01*
X150858988Y-103404796D01*
X150789374Y-103410774D01*
X150727580Y-103378167D01*
X150713684Y-103362130D01*
X150687299Y-103325816D01*
X150687297Y-103325813D01*
X150687295Y-103325810D01*
X150548191Y-103186706D01*
X150389039Y-103071075D01*
X150213762Y-102981766D01*
X150026663Y-102920973D01*
X149832367Y-102890200D01*
X149832362Y-102890200D01*
X149635640Y-102890200D01*
X149635635Y-102890200D01*
X149441338Y-102920973D01*
X149254239Y-102981766D01*
X149078962Y-103071075D01*
X148988160Y-103137047D01*
X148919811Y-103186706D01*
X148919809Y-103186708D01*
X148919808Y-103186708D01*
X148780706Y-103325810D01*
X148754317Y-103362132D01*
X148698986Y-103404797D01*
X148629373Y-103410775D01*
X148567578Y-103378168D01*
X148553682Y-103362130D01*
X148527296Y-103325813D01*
X148527291Y-103325807D01*
X148388192Y-103186708D01*
X148388190Y-103186706D01*
X148229038Y-103071075D01*
X148053761Y-102981766D01*
X147866662Y-102920973D01*
X147672366Y-102890200D01*
X147672361Y-102890200D01*
X147475639Y-102890200D01*
X147475634Y-102890200D01*
X147281337Y-102920973D01*
X147094238Y-102981766D01*
X146918961Y-103071075D01*
X146828159Y-103137047D01*
X146759810Y-103186706D01*
X146759808Y-103186708D01*
X146759807Y-103186708D01*
X146620707Y-103325808D01*
X146594319Y-103362129D01*
X146538988Y-103404794D01*
X146469375Y-103410773D01*
X146407580Y-103378167D01*
X146393683Y-103362129D01*
X146367298Y-103325813D01*
X146367296Y-103325810D01*
X146228192Y-103186706D01*
X146069040Y-103071075D01*
X145893763Y-102981766D01*
X145706664Y-102920973D01*
X145512368Y-102890200D01*
X145512363Y-102890200D01*
X145315641Y-102890200D01*
X145315636Y-102890200D01*
X145121339Y-102920973D01*
X144934240Y-102981766D01*
X144758963Y-103071075D01*
X144668161Y-103137047D01*
X144599812Y-103186706D01*
X144599810Y-103186708D01*
X144599809Y-103186708D01*
X144460707Y-103325810D01*
X144434318Y-103362132D01*
X144378987Y-103404797D01*
X144309374Y-103410775D01*
X144247579Y-103378168D01*
X144233683Y-103362130D01*
X144207297Y-103325813D01*
X144207292Y-103325807D01*
X144068193Y-103186708D01*
X144068191Y-103186706D01*
X143909039Y-103071075D01*
X143733762Y-102981766D01*
X143546663Y-102920973D01*
X143352367Y-102890200D01*
X143352362Y-102890200D01*
X143155640Y-102890200D01*
X143155635Y-102890200D01*
X142961338Y-102920973D01*
X142774239Y-102981766D01*
X142598962Y-103071075D01*
X142508160Y-103137047D01*
X142439811Y-103186706D01*
X142439809Y-103186708D01*
X142439808Y-103186708D01*
X142300706Y-103325810D01*
X142274317Y-103362132D01*
X142218986Y-103404797D01*
X142149373Y-103410775D01*
X142087578Y-103378168D01*
X142073682Y-103362130D01*
X142047296Y-103325813D01*
X142047291Y-103325807D01*
X141908192Y-103186708D01*
X141908190Y-103186706D01*
X141749038Y-103071075D01*
X141573761Y-102981766D01*
X141386662Y-102920973D01*
X141192366Y-102890200D01*
X141192361Y-102890200D01*
X140995639Y-102890200D01*
X140995634Y-102890200D01*
X140801337Y-102920973D01*
X140614238Y-102981766D01*
X140438961Y-103071075D01*
X140348159Y-103137047D01*
X140279810Y-103186706D01*
X140279808Y-103186708D01*
X140279807Y-103186708D01*
X140140705Y-103325810D01*
X140087070Y-103399632D01*
X140031740Y-103442297D01*
X139977219Y-103450334D01*
X139413126Y-104014426D01*
X139395548Y-103948821D01*
X139330341Y-103835879D01*
X139238123Y-103743661D01*
X139125181Y-103678454D01*
X139059574Y-103660874D01*
X139623626Y-103096822D01*
X139588777Y-103071502D01*
X139413567Y-102982227D01*
X139413564Y-102982226D01*
X139226548Y-102921462D01*
X139032323Y-102890700D01*
X138835681Y-102890700D01*
X138641455Y-102921462D01*
X138454439Y-102982226D01*
X138454436Y-102982227D01*
X138279222Y-103071505D01*
X138244377Y-103096821D01*
X138244377Y-103096823D01*
X138808430Y-103660874D01*
X138742823Y-103678454D01*
X138629881Y-103743661D01*
X138537663Y-103835879D01*
X138472456Y-103948821D01*
X138454876Y-104014427D01*
X137890825Y-103450375D01*
X137890823Y-103450375D01*
X137865507Y-103485220D01*
X137776229Y-103660434D01*
X137776228Y-103660437D01*
X137715464Y-103847453D01*
X137684702Y-104041678D01*
X128956242Y-104041678D01*
X128731781Y-103900641D01*
X128456542Y-103768093D01*
X128456528Y-103768087D01*
X128168186Y-103667191D01*
X128168170Y-103667186D01*
X127870334Y-103599207D01*
X127870316Y-103599204D01*
X127566755Y-103565002D01*
X127261238Y-103565002D01*
X126957677Y-103599204D01*
X126957659Y-103599207D01*
X126659823Y-103667186D01*
X126659807Y-103667191D01*
X126371465Y-103768087D01*
X126371451Y-103768093D01*
X126096212Y-103900641D01*
X125837530Y-104063181D01*
X125837526Y-104063184D01*
X125675191Y-104192640D01*
X126230555Y-104748003D01*
X126264040Y-104809326D01*
X126259056Y-104879017D01*
X126227023Y-104925447D01*
X126227564Y-104925988D01*
X126054986Y-105098566D01*
X126054327Y-105097907D01*
X125998909Y-105133059D01*
X125929041Y-105132643D01*
X125877001Y-105101557D01*
X125321638Y-104546193D01*
X125192182Y-104708528D01*
X125192179Y-104708532D01*
X125029639Y-104967214D01*
X124897091Y-105242453D01*
X124897085Y-105242467D01*
X124796189Y-105530809D01*
X124796184Y-105530825D01*
X124728205Y-105828661D01*
X124728202Y-105828679D01*
X124694000Y-106132240D01*
X123032500Y-106132240D01*
X123032500Y-93987983D01*
X125103000Y-93987983D01*
X125103000Y-94988001D01*
X125103001Y-94988019D01*
X125113500Y-95090796D01*
X125113501Y-95090799D01*
X125125614Y-95127352D01*
X125168686Y-95257334D01*
X125260788Y-95406656D01*
X125384844Y-95530712D01*
X125534166Y-95622814D01*
X125700703Y-95677999D01*
X125803491Y-95688500D01*
X126428508Y-95688499D01*
X126428516Y-95688498D01*
X126428519Y-95688498D01*
X126484802Y-95682748D01*
X126531297Y-95677999D01*
X126697834Y-95622814D01*
X126847156Y-95530712D01*
X126940819Y-95437049D01*
X127002142Y-95403564D01*
X127071834Y-95408548D01*
X127116181Y-95437049D01*
X127209844Y-95530712D01*
X127359166Y-95622814D01*
X127525703Y-95677999D01*
X127628491Y-95688500D01*
X128240901Y-95688499D01*
X128307940Y-95708183D01*
X128328582Y-95724818D01*
X128573284Y-95969520D01*
X128573286Y-95969521D01*
X128573290Y-95969524D01*
X128710209Y-96048573D01*
X128710216Y-96048577D01*
X128862943Y-96089501D01*
X128862945Y-96089501D01*
X129028654Y-96089501D01*
X129028670Y-96089500D01*
X152084903Y-96089500D01*
X152114343Y-96098144D01*
X152144330Y-96104668D01*
X152149345Y-96108422D01*
X152151942Y-96109185D01*
X152172584Y-96125819D01*
X152274584Y-96227819D01*
X152308069Y-96289142D01*
X152303085Y-96358834D01*
X152261213Y-96414767D01*
X152195749Y-96439184D01*
X152186903Y-96439500D01*
X151248129Y-96439500D01*
X151248123Y-96439501D01*
X151188516Y-96445908D01*
X151053671Y-96496202D01*
X151053669Y-96496203D01*
X150950311Y-96573578D01*
X150884847Y-96597995D01*
X150816574Y-96583144D01*
X150801689Y-96573578D01*
X150698330Y-96496203D01*
X150698328Y-96496202D01*
X150563482Y-96445908D01*
X150563483Y-96445908D01*
X150503883Y-96439501D01*
X150503881Y-96439500D01*
X150503873Y-96439500D01*
X150503864Y-96439500D01*
X148708129Y-96439500D01*
X148708123Y-96439501D01*
X148648516Y-96445908D01*
X148513671Y-96496202D01*
X148513669Y-96496203D01*
X148410311Y-96573578D01*
X148344847Y-96597995D01*
X148276574Y-96583144D01*
X148261689Y-96573578D01*
X148158330Y-96496203D01*
X148158328Y-96496202D01*
X148023482Y-96445908D01*
X148023483Y-96445908D01*
X147963883Y-96439501D01*
X147963881Y-96439500D01*
X147963873Y-96439500D01*
X147963864Y-96439500D01*
X146168129Y-96439500D01*
X146168123Y-96439501D01*
X146108516Y-96445908D01*
X145973671Y-96496202D01*
X145973669Y-96496203D01*
X145870311Y-96573578D01*
X145804847Y-96597995D01*
X145736574Y-96583144D01*
X145721689Y-96573578D01*
X145618330Y-96496203D01*
X145618328Y-96496202D01*
X145483482Y-96445908D01*
X145483483Y-96445908D01*
X145423883Y-96439501D01*
X145423881Y-96439500D01*
X145423873Y-96439500D01*
X145423864Y-96439500D01*
X143628129Y-96439500D01*
X143628123Y-96439501D01*
X143568516Y-96445908D01*
X143433671Y-96496202D01*
X143433669Y-96496203D01*
X143330311Y-96573578D01*
X143264847Y-96597995D01*
X143196574Y-96583144D01*
X143181689Y-96573578D01*
X143078330Y-96496203D01*
X143078328Y-96496202D01*
X142943482Y-96445908D01*
X142943483Y-96445908D01*
X142883883Y-96439501D01*
X142883881Y-96439500D01*
X142883873Y-96439500D01*
X142883864Y-96439500D01*
X141088129Y-96439500D01*
X141088123Y-96439501D01*
X141028516Y-96445908D01*
X140893671Y-96496202D01*
X140893669Y-96496203D01*
X140790311Y-96573578D01*
X140724847Y-96597995D01*
X140656574Y-96583144D01*
X140641689Y-96573578D01*
X140538330Y-96496203D01*
X140538328Y-96496202D01*
X140403482Y-96445908D01*
X140403483Y-96445908D01*
X140343883Y-96439501D01*
X140343881Y-96439500D01*
X140343873Y-96439500D01*
X140343864Y-96439500D01*
X138548129Y-96439500D01*
X138548123Y-96439501D01*
X138488516Y-96445908D01*
X138353671Y-96496202D01*
X138353669Y-96496203D01*
X138250311Y-96573578D01*
X138184847Y-96597995D01*
X138116574Y-96583144D01*
X138101689Y-96573578D01*
X137998330Y-96496203D01*
X137998328Y-96496202D01*
X137863482Y-96445908D01*
X137863483Y-96445908D01*
X137803883Y-96439501D01*
X137803881Y-96439500D01*
X137803873Y-96439500D01*
X137803864Y-96439500D01*
X136008129Y-96439500D01*
X136008123Y-96439501D01*
X135948516Y-96445908D01*
X135813671Y-96496202D01*
X135813664Y-96496206D01*
X135698455Y-96582452D01*
X135698452Y-96582455D01*
X135612206Y-96697664D01*
X135612202Y-96697671D01*
X135561908Y-96832517D01*
X135555501Y-96892116D01*
X135555500Y-96892127D01*
X135555500Y-97396951D01*
X135555501Y-97827500D01*
X135535817Y-97894539D01*
X135483013Y-97940294D01*
X135431501Y-97951500D01*
X131776499Y-97951500D01*
X131709460Y-97931815D01*
X131663705Y-97879011D01*
X131652499Y-97827500D01*
X131652499Y-97654129D01*
X131652498Y-97654123D01*
X131646091Y-97594516D01*
X131595797Y-97459671D01*
X131595793Y-97459664D01*
X131509547Y-97344455D01*
X131509544Y-97344452D01*
X131394335Y-97258206D01*
X131394328Y-97258202D01*
X131259482Y-97207908D01*
X131259483Y-97207908D01*
X131199883Y-97201501D01*
X131199881Y-97201500D01*
X131199873Y-97201500D01*
X131199864Y-97201500D01*
X129404129Y-97201500D01*
X129404123Y-97201501D01*
X129344516Y-97207908D01*
X129209671Y-97258202D01*
X129209664Y-97258206D01*
X129094455Y-97344452D01*
X129094452Y-97344455D01*
X129008206Y-97459664D01*
X129008203Y-97459669D01*
X128959189Y-97591083D01*
X128917317Y-97647016D01*
X128851853Y-97671433D01*
X128783580Y-97656581D01*
X128755326Y-97635430D01*
X128641786Y-97521890D01*
X128469820Y-97396951D01*
X128280414Y-97300444D01*
X128280413Y-97300443D01*
X128280412Y-97300443D01*
X128078243Y-97234754D01*
X128078241Y-97234753D01*
X128078240Y-97234753D01*
X127916957Y-97209208D01*
X127868287Y-97201500D01*
X127655713Y-97201500D01*
X127607042Y-97209208D01*
X127445760Y-97234753D01*
X127243585Y-97300444D01*
X127054179Y-97396951D01*
X126882213Y-97521890D01*
X126731890Y-97672213D01*
X126606951Y-97844179D01*
X126510444Y-98033585D01*
X126444753Y-98235760D01*
X126411500Y-98445713D01*
X126411500Y-98658287D01*
X126444754Y-98868243D01*
X126489651Y-99006422D01*
X126510444Y-99070414D01*
X126606951Y-99259820D01*
X126731890Y-99431786D01*
X126882213Y-99582109D01*
X127054179Y-99707048D01*
X127054181Y-99707049D01*
X127054184Y-99707051D01*
X127243588Y-99803557D01*
X127445757Y-99869246D01*
X127655713Y-99902500D01*
X127655714Y-99902500D01*
X127868286Y-99902500D01*
X127868287Y-99902500D01*
X128078243Y-99869246D01*
X128280412Y-99803557D01*
X128469816Y-99707051D01*
X128641792Y-99582104D01*
X128755329Y-99468566D01*
X128816648Y-99435084D01*
X128886340Y-99440068D01*
X128942274Y-99481939D01*
X128959189Y-99512917D01*
X129008202Y-99644328D01*
X129008206Y-99644335D01*
X129094452Y-99759544D01*
X129094455Y-99759547D01*
X129209664Y-99845793D01*
X129209671Y-99845797D01*
X129344517Y-99896091D01*
X129344516Y-99896091D01*
X129351444Y-99896835D01*
X129404127Y-99902500D01*
X131199872Y-99902499D01*
X131259483Y-99896091D01*
X131394331Y-99845796D01*
X131509546Y-99759546D01*
X131595796Y-99644331D01*
X131646091Y-99509483D01*
X131652500Y-99449873D01*
X131652500Y-99276500D01*
X131672185Y-99209461D01*
X131724989Y-99163706D01*
X131776500Y-99152500D01*
X136064939Y-99152500D01*
X136064943Y-99152501D01*
X136223057Y-99152501D01*
X136264636Y-99141358D01*
X136277620Y-99140672D01*
X136279490Y-99141115D01*
X136284171Y-99140499D01*
X137803871Y-99140499D01*
X137803872Y-99140499D01*
X137863483Y-99134091D01*
X137998331Y-99083796D01*
X138101690Y-99006421D01*
X138167152Y-98982004D01*
X138235425Y-98996855D01*
X138250303Y-99006416D01*
X138335793Y-99070414D01*
X138353668Y-99083795D01*
X138353671Y-99083797D01*
X138488517Y-99134091D01*
X138488516Y-99134091D01*
X138495444Y-99134835D01*
X138548127Y-99140500D01*
X140343872Y-99140499D01*
X140403483Y-99134091D01*
X140538331Y-99083796D01*
X140641690Y-99006421D01*
X140707152Y-98982004D01*
X140775425Y-98996855D01*
X140790303Y-99006416D01*
X140875793Y-99070414D01*
X140893668Y-99083795D01*
X140893671Y-99083797D01*
X141028517Y-99134091D01*
X141028516Y-99134091D01*
X141035444Y-99134835D01*
X141088127Y-99140500D01*
X142883872Y-99140499D01*
X142943483Y-99134091D01*
X143078331Y-99083796D01*
X143181690Y-99006421D01*
X143247152Y-98982004D01*
X143315425Y-98996855D01*
X143330303Y-99006416D01*
X143415793Y-99070414D01*
X143433668Y-99083795D01*
X143433671Y-99083797D01*
X143568517Y-99134091D01*
X143568516Y-99134091D01*
X143575444Y-99134835D01*
X143628127Y-99140500D01*
X145423872Y-99140499D01*
X145483483Y-99134091D01*
X145618331Y-99083796D01*
X145721690Y-99006421D01*
X145787152Y-98982004D01*
X145855425Y-98996855D01*
X145870303Y-99006416D01*
X145955793Y-99070414D01*
X145973668Y-99083795D01*
X145973671Y-99083797D01*
X146108517Y-99134091D01*
X146108516Y-99134091D01*
X146115444Y-99134835D01*
X146168127Y-99140500D01*
X147963872Y-99140499D01*
X148023483Y-99134091D01*
X148158331Y-99083796D01*
X148261690Y-99006421D01*
X148327152Y-98982004D01*
X148395425Y-98996855D01*
X148410303Y-99006416D01*
X148495793Y-99070414D01*
X148513668Y-99083795D01*
X148513671Y-99083797D01*
X148648517Y-99134091D01*
X148648516Y-99134091D01*
X148655444Y-99134835D01*
X148708127Y-99140500D01*
X150503872Y-99140499D01*
X150563483Y-99134091D01*
X150698331Y-99083796D01*
X150801690Y-99006421D01*
X150867152Y-98982004D01*
X150935425Y-98996855D01*
X150950303Y-99006416D01*
X151035793Y-99070414D01*
X151053668Y-99083795D01*
X151053671Y-99083797D01*
X151188517Y-99134091D01*
X151188516Y-99134091D01*
X151195444Y-99134835D01*
X151248127Y-99140500D01*
X153043872Y-99140499D01*
X153103483Y-99134091D01*
X153238331Y-99083796D01*
X153341690Y-99006421D01*
X153407152Y-98982004D01*
X153475425Y-98996855D01*
X153490303Y-99006416D01*
X153575793Y-99070414D01*
X153593668Y-99083795D01*
X153593671Y-99083797D01*
X153728517Y-99134091D01*
X153728516Y-99134091D01*
X153735444Y-99134835D01*
X153788127Y-99140500D01*
X155583872Y-99140499D01*
X155643483Y-99134091D01*
X155778331Y-99083796D01*
X155881690Y-99006421D01*
X155947152Y-98982004D01*
X156015425Y-98996855D01*
X156030303Y-99006416D01*
X156115793Y-99070414D01*
X156133668Y-99083795D01*
X156133671Y-99083797D01*
X156268517Y-99134091D01*
X156268516Y-99134091D01*
X156275444Y-99134835D01*
X156328127Y-99140500D01*
X158123872Y-99140499D01*
X158183483Y-99134091D01*
X158318331Y-99083796D01*
X158421690Y-99006421D01*
X158487152Y-98982004D01*
X158555425Y-98996855D01*
X158570303Y-99006416D01*
X158655793Y-99070414D01*
X158673668Y-99083795D01*
X158673671Y-99083797D01*
X158808517Y-99134091D01*
X158808516Y-99134091D01*
X158815444Y-99134835D01*
X158868127Y-99140500D01*
X160663872Y-99140499D01*
X160723483Y-99134091D01*
X160858331Y-99083796D01*
X160961690Y-99006421D01*
X161027152Y-98982004D01*
X161095425Y-98996855D01*
X161110303Y-99006416D01*
X161195793Y-99070414D01*
X161213668Y-99083795D01*
X161213671Y-99083797D01*
X161348517Y-99134091D01*
X161348516Y-99134091D01*
X161355444Y-99134835D01*
X161408127Y-99140500D01*
X163203872Y-99140499D01*
X163263483Y-99134091D01*
X163398331Y-99083796D01*
X163501690Y-99006421D01*
X163567152Y-98982004D01*
X163635425Y-98996855D01*
X163650303Y-99006416D01*
X163735793Y-99070414D01*
X163753668Y-99083795D01*
X163753671Y-99083797D01*
X163888517Y-99134091D01*
X163888516Y-99134091D01*
X163895444Y-99134835D01*
X163948127Y-99140500D01*
X165743872Y-99140499D01*
X165803483Y-99134091D01*
X165938331Y-99083796D01*
X166053546Y-98997546D01*
X166139796Y-98882331D01*
X166190091Y-98747483D01*
X166196500Y-98687873D01*
X166196499Y-96892128D01*
X166190091Y-96832517D01*
X166139796Y-96697669D01*
X166139795Y-96697668D01*
X166139793Y-96697664D01*
X166053547Y-96582455D01*
X166053544Y-96582452D01*
X165938335Y-96496206D01*
X165938328Y-96496202D01*
X165803482Y-96445908D01*
X165803483Y-96445908D01*
X165743883Y-96439501D01*
X165743881Y-96439500D01*
X165743873Y-96439500D01*
X165743864Y-96439500D01*
X163948129Y-96439500D01*
X163948123Y-96439501D01*
X163888516Y-96445908D01*
X163753671Y-96496202D01*
X163753669Y-96496203D01*
X163650311Y-96573578D01*
X163584847Y-96597995D01*
X163516574Y-96583144D01*
X163501689Y-96573578D01*
X163398330Y-96496203D01*
X163398328Y-96496202D01*
X163263482Y-96445908D01*
X163263483Y-96445908D01*
X163203883Y-96439501D01*
X163203881Y-96439500D01*
X163203873Y-96439500D01*
X163203864Y-96439500D01*
X161408129Y-96439500D01*
X161408123Y-96439501D01*
X161348516Y-96445908D01*
X161213671Y-96496202D01*
X161213669Y-96496203D01*
X161110311Y-96573578D01*
X161044847Y-96597995D01*
X160976574Y-96583144D01*
X160961689Y-96573578D01*
X160858330Y-96496203D01*
X160858328Y-96496202D01*
X160723482Y-96445908D01*
X160723483Y-96445908D01*
X160663883Y-96439501D01*
X160663881Y-96439500D01*
X160663873Y-96439500D01*
X160663864Y-96439500D01*
X158868129Y-96439500D01*
X158868123Y-96439501D01*
X158808516Y-96445908D01*
X158673671Y-96496202D01*
X158673669Y-96496203D01*
X158570311Y-96573578D01*
X158504847Y-96597995D01*
X158436574Y-96583144D01*
X158421689Y-96573578D01*
X158318330Y-96496203D01*
X158318328Y-96496202D01*
X158183482Y-96445908D01*
X158183483Y-96445908D01*
X158123883Y-96439501D01*
X158123881Y-96439500D01*
X158123873Y-96439500D01*
X158123864Y-96439500D01*
X156328129Y-96439500D01*
X156328123Y-96439501D01*
X156268516Y-96445908D01*
X156133671Y-96496202D01*
X156133669Y-96496203D01*
X156030311Y-96573578D01*
X155964847Y-96597995D01*
X155896574Y-96583144D01*
X155881689Y-96573578D01*
X155778330Y-96496203D01*
X155778328Y-96496202D01*
X155643482Y-96445908D01*
X155643483Y-96445908D01*
X155583883Y-96439501D01*
X155583881Y-96439500D01*
X155583873Y-96439500D01*
X155583865Y-96439500D01*
X154236097Y-96439500D01*
X154169058Y-96419815D01*
X154148416Y-96403181D01*
X152872590Y-95127355D01*
X152872588Y-95127352D01*
X152753717Y-95008481D01*
X152753716Y-95008480D01*
X152644259Y-94945285D01*
X152644257Y-94945284D01*
X152616785Y-94929423D01*
X152616784Y-94929422D01*
X152616783Y-94929422D01*
X152560881Y-94914443D01*
X152464057Y-94888499D01*
X152305943Y-94888499D01*
X152298347Y-94888499D01*
X152298331Y-94888500D01*
X134709856Y-94888500D01*
X134642817Y-94868815D01*
X134597062Y-94816011D01*
X134587118Y-94746853D01*
X134616143Y-94683297D01*
X134622175Y-94676819D01*
X138371868Y-90927126D01*
X138433191Y-90893641D01*
X138502883Y-90898625D01*
X138547230Y-90927126D01*
X138566213Y-90946109D01*
X138738179Y-91071048D01*
X138738181Y-91071049D01*
X138738184Y-91071051D01*
X138927588Y-91167557D01*
X139129757Y-91233246D01*
X139339713Y-91266500D01*
X139339714Y-91266500D01*
X139552286Y-91266500D01*
X139552287Y-91266500D01*
X139762243Y-91233246D01*
X139964412Y-91167557D01*
X140153816Y-91071051D01*
X140175789Y-91055086D01*
X140325786Y-90946109D01*
X140325788Y-90946106D01*
X140325792Y-90946104D01*
X140476104Y-90795792D01*
X140476106Y-90795788D01*
X140476109Y-90795786D01*
X140601048Y-90623820D01*
X140601047Y-90623820D01*
X140601051Y-90623816D01*
X140605514Y-90615054D01*
X140653488Y-90564259D01*
X140721308Y-90547463D01*
X140787444Y-90569999D01*
X140826486Y-90615056D01*
X140830951Y-90623820D01*
X140955890Y-90795786D01*
X141106213Y-90946109D01*
X141278179Y-91071048D01*
X141278181Y-91071049D01*
X141278184Y-91071051D01*
X141467588Y-91167557D01*
X141669757Y-91233246D01*
X141879713Y-91266500D01*
X141879714Y-91266500D01*
X142092286Y-91266500D01*
X142092287Y-91266500D01*
X142302243Y-91233246D01*
X142504412Y-91167557D01*
X142693816Y-91071051D01*
X142715789Y-91055086D01*
X142865786Y-90946109D01*
X142865788Y-90946106D01*
X142865792Y-90946104D01*
X143016104Y-90795792D01*
X143016106Y-90795788D01*
X143016109Y-90795786D01*
X143141048Y-90623820D01*
X143141047Y-90623820D01*
X143141051Y-90623816D01*
X143145514Y-90615054D01*
X143193488Y-90564259D01*
X143261308Y-90547463D01*
X143327444Y-90569999D01*
X143366486Y-90615056D01*
X143370951Y-90623820D01*
X143495890Y-90795786D01*
X143646213Y-90946109D01*
X143818179Y-91071048D01*
X143818181Y-91071049D01*
X143818184Y-91071051D01*
X144007588Y-91167557D01*
X144209757Y-91233246D01*
X144419713Y-91266500D01*
X144419714Y-91266500D01*
X144632286Y-91266500D01*
X144632287Y-91266500D01*
X144842243Y-91233246D01*
X145044412Y-91167557D01*
X145233816Y-91071051D01*
X145255789Y-91055086D01*
X145405786Y-90946109D01*
X145405788Y-90946106D01*
X145405792Y-90946104D01*
X145556104Y-90795792D01*
X145556106Y-90795788D01*
X145556109Y-90795786D01*
X145681048Y-90623820D01*
X145681047Y-90623820D01*
X145681051Y-90623816D01*
X145685514Y-90615054D01*
X145733488Y-90564259D01*
X145801308Y-90547463D01*
X145867444Y-90569999D01*
X145906486Y-90615056D01*
X145910951Y-90623820D01*
X146035890Y-90795786D01*
X146186213Y-90946109D01*
X146358179Y-91071048D01*
X146358181Y-91071049D01*
X146358184Y-91071051D01*
X146547588Y-91167557D01*
X146749757Y-91233246D01*
X146959713Y-91266500D01*
X146959714Y-91266500D01*
X147172286Y-91266500D01*
X147172287Y-91266500D01*
X147382243Y-91233246D01*
X147584412Y-91167557D01*
X147773816Y-91071051D01*
X147795789Y-91055086D01*
X147945786Y-90946109D01*
X147945788Y-90946106D01*
X147945792Y-90946104D01*
X148096104Y-90795792D01*
X148096106Y-90795788D01*
X148096109Y-90795786D01*
X148221048Y-90623820D01*
X148221047Y-90623820D01*
X148221051Y-90623816D01*
X148225514Y-90615054D01*
X148273488Y-90564259D01*
X148341308Y-90547463D01*
X148407444Y-90569999D01*
X148446486Y-90615056D01*
X148450951Y-90623820D01*
X148575890Y-90795786D01*
X148726213Y-90946109D01*
X148898179Y-91071048D01*
X148898181Y-91071049D01*
X148898184Y-91071051D01*
X149087588Y-91167557D01*
X149289757Y-91233246D01*
X149499713Y-91266500D01*
X149499714Y-91266500D01*
X149712286Y-91266500D01*
X149712287Y-91266500D01*
X149922243Y-91233246D01*
X150124412Y-91167557D01*
X150313816Y-91071051D01*
X150335789Y-91055086D01*
X150485786Y-90946109D01*
X150485788Y-90946106D01*
X150485792Y-90946104D01*
X150636104Y-90795792D01*
X150636106Y-90795788D01*
X150636109Y-90795786D01*
X150761048Y-90623820D01*
X150761047Y-90623820D01*
X150761051Y-90623816D01*
X150765514Y-90615054D01*
X150813488Y-90564259D01*
X150881308Y-90547463D01*
X150947444Y-90569999D01*
X150986486Y-90615056D01*
X150990951Y-90623820D01*
X151115890Y-90795786D01*
X151266213Y-90946109D01*
X151438179Y-91071048D01*
X151438181Y-91071049D01*
X151438184Y-91071051D01*
X151627588Y-91167557D01*
X151829757Y-91233246D01*
X152039713Y-91266500D01*
X152039714Y-91266500D01*
X152252286Y-91266500D01*
X152252287Y-91266500D01*
X152462243Y-91233246D01*
X152664412Y-91167557D01*
X152853816Y-91071051D01*
X152875789Y-91055086D01*
X153025786Y-90946109D01*
X153025788Y-90946106D01*
X153025792Y-90946104D01*
X153176104Y-90795792D01*
X153176106Y-90795788D01*
X153176109Y-90795786D01*
X153301048Y-90623820D01*
X153301047Y-90623820D01*
X153301051Y-90623816D01*
X153305514Y-90615054D01*
X153353488Y-90564259D01*
X153421308Y-90547463D01*
X153487444Y-90569999D01*
X153526486Y-90615056D01*
X153530951Y-90623820D01*
X153655890Y-90795786D01*
X153806213Y-90946109D01*
X153978179Y-91071048D01*
X153978181Y-91071049D01*
X153978184Y-91071051D01*
X154167588Y-91167557D01*
X154369757Y-91233246D01*
X154579713Y-91266500D01*
X154579714Y-91266500D01*
X154792286Y-91266500D01*
X154792287Y-91266500D01*
X155002243Y-91233246D01*
X155204412Y-91167557D01*
X155393816Y-91071051D01*
X155415789Y-91055086D01*
X155565786Y-90946109D01*
X155565788Y-90946106D01*
X155565792Y-90946104D01*
X155716104Y-90795792D01*
X155716106Y-90795788D01*
X155716109Y-90795786D01*
X155841048Y-90623820D01*
X155841047Y-90623820D01*
X155841051Y-90623816D01*
X155845514Y-90615054D01*
X155893488Y-90564259D01*
X155961308Y-90547463D01*
X156027444Y-90569999D01*
X156066486Y-90615056D01*
X156070951Y-90623820D01*
X156195890Y-90795786D01*
X156346213Y-90946109D01*
X156518179Y-91071048D01*
X156518181Y-91071049D01*
X156518184Y-91071051D01*
X156707588Y-91167557D01*
X156909757Y-91233246D01*
X157119713Y-91266500D01*
X157119714Y-91266500D01*
X157332286Y-91266500D01*
X157332287Y-91266500D01*
X157542243Y-91233246D01*
X157744412Y-91167557D01*
X157933816Y-91071051D01*
X157955789Y-91055086D01*
X158105786Y-90946109D01*
X158105788Y-90946106D01*
X158105792Y-90946104D01*
X158256104Y-90795792D01*
X158256106Y-90795788D01*
X158256109Y-90795786D01*
X158381048Y-90623820D01*
X158381047Y-90623820D01*
X158381051Y-90623816D01*
X158385514Y-90615054D01*
X158433488Y-90564259D01*
X158501308Y-90547463D01*
X158567444Y-90569999D01*
X158606486Y-90615056D01*
X158610951Y-90623820D01*
X158735890Y-90795786D01*
X158886213Y-90946109D01*
X159058179Y-91071048D01*
X159058181Y-91071049D01*
X159058184Y-91071051D01*
X159247588Y-91167557D01*
X159449757Y-91233246D01*
X159659713Y-91266500D01*
X159659714Y-91266500D01*
X159872286Y-91266500D01*
X159872287Y-91266500D01*
X160082243Y-91233246D01*
X160284412Y-91167557D01*
X160473816Y-91071051D01*
X160495789Y-91055086D01*
X160645786Y-90946109D01*
X160645788Y-90946106D01*
X160645792Y-90946104D01*
X160796104Y-90795792D01*
X160796106Y-90795788D01*
X160796109Y-90795786D01*
X160921048Y-90623820D01*
X160921047Y-90623820D01*
X160921051Y-90623816D01*
X160925514Y-90615054D01*
X160973488Y-90564259D01*
X161041308Y-90547463D01*
X161107444Y-90569999D01*
X161146486Y-90615056D01*
X161150951Y-90623820D01*
X161275890Y-90795786D01*
X161426213Y-90946109D01*
X161598179Y-91071048D01*
X161598181Y-91071049D01*
X161598184Y-91071051D01*
X161787588Y-91167557D01*
X161989757Y-91233246D01*
X162199713Y-91266500D01*
X162199714Y-91266500D01*
X162412286Y-91266500D01*
X162412287Y-91266500D01*
X162622243Y-91233246D01*
X162824412Y-91167557D01*
X163013816Y-91071051D01*
X163035789Y-91055086D01*
X163185786Y-90946109D01*
X163185788Y-90946106D01*
X163185792Y-90946104D01*
X163336104Y-90795792D01*
X163336106Y-90795788D01*
X163336109Y-90795786D01*
X163461048Y-90623820D01*
X163461047Y-90623820D01*
X163461051Y-90623816D01*
X163465514Y-90615054D01*
X163513488Y-90564259D01*
X163581308Y-90547463D01*
X163647444Y-90569999D01*
X163686486Y-90615056D01*
X163690951Y-90623820D01*
X163815890Y-90795786D01*
X163966213Y-90946109D01*
X164138179Y-91071048D01*
X164138181Y-91071049D01*
X164138184Y-91071051D01*
X164327588Y-91167557D01*
X164529757Y-91233246D01*
X164739713Y-91266500D01*
X164739714Y-91266500D01*
X164952286Y-91266500D01*
X164952287Y-91266500D01*
X165162243Y-91233246D01*
X165364412Y-91167557D01*
X165553816Y-91071051D01*
X165575789Y-91055086D01*
X165725786Y-90946109D01*
X165725788Y-90946106D01*
X165725792Y-90946104D01*
X165876104Y-90795792D01*
X165876106Y-90795788D01*
X165876109Y-90795786D01*
X166001048Y-90623820D01*
X166001047Y-90623820D01*
X166001051Y-90623816D01*
X166097557Y-90434412D01*
X166163246Y-90232243D01*
X166196500Y-90022287D01*
X166196500Y-89809713D01*
X166163246Y-89599757D01*
X166097557Y-89397588D01*
X166001051Y-89208184D01*
X166001049Y-89208181D01*
X166001048Y-89208179D01*
X165876109Y-89036213D01*
X165725786Y-88885890D01*
X165553820Y-88760951D01*
X165553115Y-88760591D01*
X165545054Y-88756485D01*
X165494259Y-88708512D01*
X165477463Y-88640692D01*
X165499999Y-88574556D01*
X165545054Y-88535515D01*
X165553816Y-88531051D01*
X165635780Y-88471501D01*
X165725786Y-88406109D01*
X165725788Y-88406106D01*
X165725792Y-88406104D01*
X165876104Y-88255792D01*
X165876106Y-88255788D01*
X165876109Y-88255786D01*
X166001048Y-88083820D01*
X166001047Y-88083820D01*
X166001051Y-88083816D01*
X166097557Y-87894412D01*
X166163246Y-87692243D01*
X166196500Y-87482287D01*
X166196500Y-87269713D01*
X166163246Y-87059757D01*
X166097557Y-86857588D01*
X166001051Y-86668184D01*
X166001049Y-86668181D01*
X166001048Y-86668179D01*
X165876109Y-86496213D01*
X165725786Y-86345890D01*
X165553820Y-86220951D01*
X165364414Y-86124444D01*
X165364413Y-86124443D01*
X165364412Y-86124443D01*
X165162243Y-86058754D01*
X165162241Y-86058753D01*
X165162240Y-86058753D01*
X164976506Y-86029336D01*
X164952287Y-86025500D01*
X164739713Y-86025500D01*
X164715494Y-86029336D01*
X164529760Y-86058753D01*
X164327585Y-86124444D01*
X164138179Y-86220951D01*
X163966213Y-86345890D01*
X163815890Y-86496213D01*
X163690949Y-86668182D01*
X163686484Y-86676946D01*
X163638509Y-86727742D01*
X163570688Y-86744536D01*
X163504553Y-86721998D01*
X163465516Y-86676946D01*
X163461050Y-86668182D01*
X163336109Y-86496213D01*
X163185786Y-86345890D01*
X163013820Y-86220951D01*
X162824414Y-86124444D01*
X162824413Y-86124443D01*
X162824412Y-86124443D01*
X162622243Y-86058754D01*
X162622241Y-86058753D01*
X162622240Y-86058753D01*
X162436506Y-86029336D01*
X162412287Y-86025500D01*
X162199713Y-86025500D01*
X162175494Y-86029336D01*
X161989760Y-86058753D01*
X161787585Y-86124444D01*
X161598179Y-86220951D01*
X161426213Y-86345890D01*
X161275890Y-86496213D01*
X161150949Y-86668182D01*
X161146484Y-86676946D01*
X161098509Y-86727742D01*
X161030688Y-86744536D01*
X160964553Y-86721998D01*
X160925516Y-86676946D01*
X160921050Y-86668182D01*
X160796109Y-86496213D01*
X160645786Y-86345890D01*
X160473820Y-86220951D01*
X160284414Y-86124444D01*
X160284413Y-86124443D01*
X160284412Y-86124443D01*
X160082243Y-86058754D01*
X160082241Y-86058753D01*
X160082240Y-86058753D01*
X159896506Y-86029336D01*
X159872287Y-86025500D01*
X159659713Y-86025500D01*
X159635494Y-86029336D01*
X159449760Y-86058753D01*
X159247585Y-86124444D01*
X159058179Y-86220951D01*
X158886213Y-86345890D01*
X158735890Y-86496213D01*
X158610949Y-86668182D01*
X158606484Y-86676946D01*
X158558509Y-86727742D01*
X158490688Y-86744536D01*
X158424553Y-86721998D01*
X158385516Y-86676946D01*
X158381050Y-86668182D01*
X158256109Y-86496213D01*
X158105786Y-86345890D01*
X157933820Y-86220951D01*
X157744414Y-86124444D01*
X157744413Y-86124443D01*
X157744412Y-86124443D01*
X157542243Y-86058754D01*
X157542241Y-86058753D01*
X157542240Y-86058753D01*
X157356506Y-86029336D01*
X157332287Y-86025500D01*
X157119713Y-86025500D01*
X157095494Y-86029336D01*
X156909760Y-86058753D01*
X156707585Y-86124444D01*
X156518179Y-86220951D01*
X156346213Y-86345890D01*
X156195890Y-86496213D01*
X156070949Y-86668182D01*
X156066484Y-86676946D01*
X156018509Y-86727742D01*
X155950688Y-86744536D01*
X155884553Y-86721998D01*
X155845516Y-86676946D01*
X155841050Y-86668182D01*
X155716109Y-86496213D01*
X155565786Y-86345890D01*
X155393820Y-86220951D01*
X155204414Y-86124444D01*
X155204413Y-86124443D01*
X155204412Y-86124443D01*
X155002243Y-86058754D01*
X155002241Y-86058753D01*
X155002240Y-86058753D01*
X154816506Y-86029336D01*
X154792287Y-86025500D01*
X154579713Y-86025500D01*
X154555494Y-86029336D01*
X154369760Y-86058753D01*
X154167585Y-86124444D01*
X153978179Y-86220951D01*
X153806213Y-86345890D01*
X153655890Y-86496213D01*
X153530949Y-86668182D01*
X153526484Y-86676946D01*
X153478509Y-86727742D01*
X153410688Y-86744536D01*
X153344553Y-86721998D01*
X153305516Y-86676946D01*
X153301050Y-86668182D01*
X153176109Y-86496213D01*
X153025786Y-86345890D01*
X152853820Y-86220951D01*
X152664414Y-86124444D01*
X152664413Y-86124443D01*
X152664412Y-86124443D01*
X152462243Y-86058754D01*
X152462241Y-86058753D01*
X152462240Y-86058753D01*
X152276506Y-86029336D01*
X152252287Y-86025500D01*
X152039713Y-86025500D01*
X152015494Y-86029336D01*
X151829760Y-86058753D01*
X151627585Y-86124444D01*
X151438179Y-86220951D01*
X151266213Y-86345890D01*
X151115890Y-86496213D01*
X150990949Y-86668182D01*
X150986484Y-86676946D01*
X150938509Y-86727742D01*
X150870688Y-86744536D01*
X150804553Y-86721998D01*
X150765516Y-86676946D01*
X150761050Y-86668182D01*
X150636109Y-86496213D01*
X150485786Y-86345890D01*
X150313820Y-86220951D01*
X150124414Y-86124444D01*
X150124413Y-86124443D01*
X150124412Y-86124443D01*
X149922243Y-86058754D01*
X149922241Y-86058753D01*
X149922240Y-86058753D01*
X149736506Y-86029336D01*
X149712287Y-86025500D01*
X149499713Y-86025500D01*
X149475494Y-86029336D01*
X149289760Y-86058753D01*
X149087585Y-86124444D01*
X148898179Y-86220951D01*
X148726213Y-86345890D01*
X148575890Y-86496213D01*
X148450949Y-86668182D01*
X148446484Y-86676946D01*
X148398509Y-86727742D01*
X148330688Y-86744536D01*
X148264553Y-86721998D01*
X148225516Y-86676946D01*
X148221050Y-86668182D01*
X148096109Y-86496213D01*
X147945786Y-86345890D01*
X147773820Y-86220951D01*
X147584414Y-86124444D01*
X147584413Y-86124443D01*
X147584412Y-86124443D01*
X147382243Y-86058754D01*
X147382241Y-86058753D01*
X147382240Y-86058753D01*
X147196506Y-86029336D01*
X147172287Y-86025500D01*
X146959713Y-86025500D01*
X146935494Y-86029336D01*
X146749760Y-86058753D01*
X146547585Y-86124444D01*
X146358179Y-86220951D01*
X146186213Y-86345890D01*
X146035890Y-86496213D01*
X145910949Y-86668182D01*
X145906484Y-86676946D01*
X145858509Y-86727742D01*
X145790688Y-86744536D01*
X145724553Y-86721998D01*
X145685516Y-86676946D01*
X145681050Y-86668182D01*
X145556109Y-86496213D01*
X145405786Y-86345890D01*
X145233820Y-86220951D01*
X145044414Y-86124444D01*
X145044413Y-86124443D01*
X145044412Y-86124443D01*
X144842243Y-86058754D01*
X144842241Y-86058753D01*
X144842240Y-86058753D01*
X144656506Y-86029336D01*
X144632287Y-86025500D01*
X144419713Y-86025500D01*
X144395494Y-86029336D01*
X144209760Y-86058753D01*
X144007585Y-86124444D01*
X143818179Y-86220951D01*
X143646213Y-86345890D01*
X143495890Y-86496213D01*
X143370949Y-86668182D01*
X143366484Y-86676946D01*
X143318509Y-86727742D01*
X143250688Y-86744536D01*
X143184553Y-86721998D01*
X143145516Y-86676946D01*
X143141050Y-86668182D01*
X143016109Y-86496213D01*
X142865786Y-86345890D01*
X142693820Y-86220951D01*
X142504414Y-86124444D01*
X142504413Y-86124443D01*
X142504412Y-86124443D01*
X142302243Y-86058754D01*
X142302241Y-86058753D01*
X142302240Y-86058753D01*
X142116506Y-86029336D01*
X142092287Y-86025500D01*
X141879713Y-86025500D01*
X141855494Y-86029336D01*
X141669760Y-86058753D01*
X141467585Y-86124444D01*
X141278179Y-86220951D01*
X141106213Y-86345890D01*
X140955890Y-86496213D01*
X140830949Y-86668182D01*
X140826484Y-86676946D01*
X140778509Y-86727742D01*
X140710688Y-86744536D01*
X140644553Y-86721998D01*
X140605516Y-86676946D01*
X140601050Y-86668182D01*
X140476109Y-86496213D01*
X140325786Y-86345890D01*
X140153820Y-86220951D01*
X139964414Y-86124444D01*
X139964413Y-86124443D01*
X139964412Y-86124443D01*
X139762243Y-86058754D01*
X139762241Y-86058753D01*
X139762240Y-86058753D01*
X139576506Y-86029336D01*
X139552287Y-86025500D01*
X139339713Y-86025500D01*
X139315494Y-86029336D01*
X139129760Y-86058753D01*
X138927585Y-86124444D01*
X138738179Y-86220951D01*
X138566213Y-86345890D01*
X138415890Y-86496213D01*
X138290949Y-86668182D01*
X138286202Y-86677499D01*
X138238227Y-86728293D01*
X138170405Y-86745087D01*
X138104271Y-86722548D01*
X138065234Y-86677495D01*
X138060626Y-86668452D01*
X138021270Y-86614282D01*
X138021269Y-86614282D01*
X137388962Y-87246590D01*
X137371925Y-87183007D01*
X137306099Y-87068993D01*
X137213007Y-86975901D01*
X137098993Y-86910075D01*
X137035409Y-86893037D01*
X137667716Y-86260728D01*
X137613550Y-86221375D01*
X137424217Y-86124904D01*
X137222129Y-86059242D01*
X137012246Y-86026000D01*
X136799754Y-86026000D01*
X136589872Y-86059242D01*
X136589869Y-86059242D01*
X136387782Y-86124904D01*
X136198439Y-86221380D01*
X136144282Y-86260727D01*
X136144282Y-86260728D01*
X136776591Y-86893037D01*
X136713007Y-86910075D01*
X136598993Y-86975901D01*
X136505901Y-87068993D01*
X136440075Y-87183007D01*
X136423037Y-87246591D01*
X135790728Y-86614282D01*
X135790727Y-86614282D01*
X135751380Y-86668439D01*
X135654904Y-86857782D01*
X135589242Y-87059869D01*
X135589242Y-87059872D01*
X135556000Y-87269753D01*
X135556000Y-87482246D01*
X135589242Y-87692127D01*
X135589242Y-87692130D01*
X135654904Y-87894217D01*
X135751375Y-88083550D01*
X135790728Y-88137716D01*
X136423037Y-87505408D01*
X136440075Y-87568993D01*
X136505901Y-87683007D01*
X136598993Y-87776099D01*
X136713007Y-87841925D01*
X136776590Y-87858962D01*
X136144282Y-88491269D01*
X136144282Y-88491270D01*
X136198452Y-88530626D01*
X136198451Y-88530626D01*
X136207495Y-88535234D01*
X136258292Y-88583208D01*
X136275087Y-88651029D01*
X136252550Y-88717164D01*
X136207499Y-88756202D01*
X136198182Y-88760949D01*
X136026213Y-88885890D01*
X135875890Y-89036213D01*
X135750951Y-89208179D01*
X135654444Y-89397585D01*
X135588753Y-89599760D01*
X135555500Y-89809713D01*
X135555500Y-90022287D01*
X135565132Y-90083098D01*
X135588754Y-90232244D01*
X135588754Y-90232247D01*
X135602491Y-90274523D01*
X135604486Y-90344364D01*
X135572241Y-90400522D01*
X135278582Y-90694182D01*
X135217262Y-90727666D01*
X135190903Y-90730500D01*
X131802487Y-90730500D01*
X131735448Y-90710815D01*
X131689693Y-90658011D01*
X131679749Y-90588853D01*
X131708774Y-90525297D01*
X131714806Y-90518819D01*
X131752232Y-90481392D01*
X131752233Y-90481391D01*
X131752236Y-90481388D01*
X131835531Y-90343602D01*
X131883430Y-90189887D01*
X131889500Y-90123091D01*
X131889499Y-89120910D01*
X131889499Y-89120909D01*
X131889499Y-89120901D01*
X131883431Y-89054117D01*
X131883428Y-89054106D01*
X131835532Y-88900401D01*
X131835531Y-88900400D01*
X131835531Y-88900398D01*
X131752236Y-88762612D01*
X131752234Y-88762610D01*
X131752233Y-88762608D01*
X131700819Y-88711194D01*
X131667334Y-88649871D01*
X131664500Y-88623513D01*
X131664500Y-88365300D01*
X131684185Y-88298261D01*
X131736989Y-88252506D01*
X131749482Y-88247599D01*
X131833334Y-88219814D01*
X131982656Y-88127712D01*
X132106712Y-88003656D01*
X132198814Y-87854334D01*
X132253999Y-87687797D01*
X132264500Y-87585009D01*
X132264499Y-86959992D01*
X132253999Y-86857203D01*
X132198814Y-86690666D01*
X132106712Y-86541344D01*
X132013049Y-86447681D01*
X132008710Y-86439735D01*
X132001463Y-86434310D01*
X131992228Y-86409550D01*
X131979564Y-86386358D01*
X131980209Y-86377328D01*
X131977046Y-86368846D01*
X131982662Y-86343025D01*
X131984548Y-86316666D01*
X131990366Y-86307612D01*
X131991898Y-86300573D01*
X132013049Y-86272319D01*
X132065062Y-86220306D01*
X132106712Y-86178656D01*
X132198814Y-86029334D01*
X132253999Y-85862797D01*
X132264500Y-85760009D01*
X132264499Y-85134992D01*
X132253999Y-85032203D01*
X132198814Y-84865666D01*
X132106712Y-84716344D01*
X131982656Y-84592288D01*
X131833334Y-84500186D01*
X131749495Y-84472404D01*
X131729463Y-84458534D01*
X131707297Y-84448412D01*
X131701248Y-84438999D01*
X131692051Y-84432632D01*
X131682697Y-84410133D01*
X131669523Y-84389634D01*
X131667064Y-84372532D01*
X131665228Y-84368116D01*
X131664500Y-84354699D01*
X131664500Y-84127538D01*
X131684185Y-84060499D01*
X131736989Y-84014744D01*
X131749486Y-84009835D01*
X131836925Y-83980862D01*
X131985003Y-83889526D01*
X132108026Y-83766503D01*
X132199362Y-83618425D01*
X132254087Y-83453275D01*
X132264500Y-83351348D01*
X132264500Y-82764652D01*
X132254087Y-82662725D01*
X132199362Y-82497575D01*
X132199358Y-82497569D01*
X132199357Y-82497566D01*
X132108028Y-82349500D01*
X132108025Y-82349496D01*
X131985004Y-82226475D01*
X131985003Y-82226474D01*
X131984301Y-82226041D01*
X131983921Y-82225618D01*
X131979336Y-82221993D01*
X131979955Y-82221209D01*
X131937575Y-82174098D01*
X131926349Y-82105136D01*
X131954188Y-82041052D01*
X131979455Y-82019157D01*
X131979336Y-82019007D01*
X131982687Y-82016356D01*
X131984299Y-82014959D01*
X131985003Y-82014526D01*
X132108026Y-81891503D01*
X132199362Y-81743425D01*
X132254087Y-81578275D01*
X132264500Y-81476348D01*
X132264500Y-80889652D01*
X132254087Y-80787725D01*
X132199362Y-80622575D01*
X132199358Y-80622569D01*
X132199357Y-80622566D01*
X132108028Y-80474500D01*
X132108025Y-80474496D01*
X131985003Y-80351474D01*
X131984999Y-80351471D01*
X131836933Y-80260142D01*
X131836927Y-80260139D01*
X131836925Y-80260138D01*
X131836922Y-80260137D01*
X131671776Y-80205413D01*
X131569855Y-80195000D01*
X131569848Y-80195000D01*
X130558152Y-80195000D01*
X130558144Y-80195000D01*
X130456223Y-80205413D01*
X130291077Y-80260137D01*
X130291066Y-80260142D01*
X130143000Y-80351471D01*
X130142996Y-80351474D01*
X130019974Y-80474496D01*
X130019971Y-80474500D01*
X129989688Y-80523597D01*
X129937740Y-80570322D01*
X129884150Y-80582500D01*
X129611766Y-80582500D01*
X129544727Y-80562815D01*
X129542875Y-80561602D01*
X129411185Y-80473609D01*
X129411172Y-80473602D01*
X129265501Y-80413264D01*
X129265489Y-80413261D01*
X129110845Y-80382500D01*
X129110842Y-80382500D01*
X128953158Y-80382500D01*
X128953155Y-80382500D01*
X128798510Y-80413261D01*
X128798498Y-80413264D01*
X128652827Y-80473602D01*
X128652814Y-80473609D01*
X128521125Y-80561602D01*
X128454447Y-80582480D01*
X128452234Y-80582500D01*
X128179850Y-80582500D01*
X128112811Y-80562815D01*
X128074312Y-80523597D01*
X128044028Y-80474500D01*
X128044025Y-80474496D01*
X127921003Y-80351474D01*
X127920999Y-80351471D01*
X127772933Y-80260142D01*
X127772927Y-80260139D01*
X127772925Y-80260138D01*
X127772922Y-80260137D01*
X127607776Y-80205413D01*
X127505855Y-80195000D01*
X127505848Y-80195000D01*
X126494152Y-80195000D01*
X126494144Y-80195000D01*
X126392223Y-80205413D01*
X126227077Y-80260137D01*
X126227066Y-80260142D01*
X126079000Y-80351471D01*
X126078996Y-80351474D01*
X125955974Y-80474496D01*
X125955971Y-80474500D01*
X125864642Y-80622566D01*
X125864637Y-80622577D01*
X125809913Y-80787723D01*
X125799500Y-80889644D01*
X125799500Y-81476355D01*
X125809913Y-81578276D01*
X125864637Y-81743422D01*
X125864642Y-81743433D01*
X125955971Y-81891499D01*
X125955974Y-81891503D01*
X126078996Y-82014525D01*
X126079000Y-82014528D01*
X126079703Y-82014962D01*
X126080083Y-82015385D01*
X126084664Y-82019007D01*
X126084045Y-82019789D01*
X126126428Y-82066910D01*
X126137649Y-82135872D01*
X126109806Y-82199954D01*
X126084544Y-82221842D01*
X126084664Y-82221993D01*
X126081315Y-82224640D01*
X126079703Y-82226038D01*
X126079000Y-82226471D01*
X126078996Y-82226474D01*
X125955974Y-82349496D01*
X125955971Y-82349500D01*
X125864642Y-82497566D01*
X125864637Y-82497577D01*
X125809913Y-82662723D01*
X125799500Y-82764644D01*
X125799500Y-83351355D01*
X125809913Y-83453276D01*
X125864637Y-83618422D01*
X125864642Y-83618433D01*
X125955971Y-83766499D01*
X125955974Y-83766503D01*
X126078996Y-83889525D01*
X126079000Y-83889528D01*
X126227066Y-83980857D01*
X126227069Y-83980858D01*
X126227075Y-83980862D01*
X126314504Y-84009833D01*
X126334535Y-84023701D01*
X126356703Y-84033825D01*
X126362751Y-84043236D01*
X126371948Y-84049604D01*
X126381302Y-84072102D01*
X126394477Y-84092603D01*
X126396935Y-84109703D01*
X126398772Y-84114120D01*
X126399500Y-84127538D01*
X126399500Y-84354699D01*
X126379815Y-84421738D01*
X126327011Y-84467493D01*
X126314507Y-84472403D01*
X126281962Y-84483188D01*
X126230668Y-84500185D01*
X126230663Y-84500187D01*
X126081342Y-84592289D01*
X125957289Y-84716342D01*
X125865187Y-84865663D01*
X125865186Y-84865666D01*
X125810001Y-85032203D01*
X125810001Y-85032204D01*
X125810000Y-85032204D01*
X125799500Y-85134983D01*
X125799500Y-85760001D01*
X125799501Y-85760019D01*
X125810000Y-85862796D01*
X125810001Y-85862799D01*
X125863916Y-86025500D01*
X125865186Y-86029334D01*
X125923849Y-86124443D01*
X125957289Y-86178657D01*
X126050951Y-86272319D01*
X126084436Y-86333642D01*
X126079452Y-86403334D01*
X126050951Y-86447681D01*
X125957289Y-86541342D01*
X125865187Y-86690663D01*
X125865185Y-86690668D01*
X125847335Y-86744536D01*
X125810001Y-86857203D01*
X125810001Y-86857204D01*
X125810000Y-86857204D01*
X125799500Y-86959983D01*
X125799500Y-87585001D01*
X125799501Y-87585019D01*
X125810000Y-87687796D01*
X125810001Y-87687799D01*
X125865185Y-87854331D01*
X125865187Y-87854336D01*
X125889786Y-87894217D01*
X125957288Y-88003656D01*
X126081344Y-88127712D01*
X126230666Y-88219814D01*
X126380505Y-88269465D01*
X126400536Y-88283335D01*
X126422703Y-88293458D01*
X126428751Y-88302870D01*
X126437949Y-88309238D01*
X126447303Y-88331737D01*
X126460477Y-88352236D01*
X126462935Y-88369336D01*
X126464772Y-88373753D01*
X126465500Y-88387171D01*
X126465500Y-88583513D01*
X126445815Y-88650552D01*
X126429181Y-88671194D01*
X126377767Y-88722607D01*
X126377766Y-88722608D01*
X126294469Y-88860397D01*
X126246569Y-89014116D01*
X126240500Y-89080911D01*
X126240500Y-90083098D01*
X126246568Y-90149882D01*
X126246571Y-90149893D01*
X126294467Y-90303598D01*
X126377766Y-90441391D01*
X126491608Y-90555233D01*
X126491610Y-90555234D01*
X126491612Y-90555236D01*
X126629398Y-90638531D01*
X126783113Y-90686430D01*
X126849909Y-90692500D01*
X127282090Y-90692499D01*
X127282098Y-90692499D01*
X127348882Y-90686431D01*
X127348885Y-90686430D01*
X127348887Y-90686430D01*
X127502602Y-90638531D01*
X127640388Y-90555236D01*
X127754236Y-90441388D01*
X127837531Y-90303602D01*
X127885430Y-90149887D01*
X127891500Y-90083091D01*
X127891499Y-89080910D01*
X127891499Y-89080909D01*
X127891499Y-89080901D01*
X127885431Y-89014117D01*
X127885428Y-89014106D01*
X127837532Y-88860401D01*
X127837531Y-88860400D01*
X127837531Y-88860398D01*
X127754236Y-88722612D01*
X127754234Y-88722610D01*
X127754233Y-88722608D01*
X127702819Y-88671194D01*
X127688115Y-88644266D01*
X127671523Y-88618448D01*
X127670631Y-88612247D01*
X127669334Y-88609871D01*
X127666500Y-88583513D01*
X127666500Y-88343431D01*
X127686185Y-88276392D01*
X127738989Y-88230637D01*
X127751498Y-88225724D01*
X127769334Y-88219814D01*
X127918656Y-88127712D01*
X128042712Y-88003656D01*
X128134814Y-87854334D01*
X128189999Y-87687797D01*
X128200500Y-87585009D01*
X128200499Y-86959992D01*
X128189999Y-86857203D01*
X128134814Y-86690666D01*
X128042712Y-86541344D01*
X127949049Y-86447681D01*
X127915564Y-86386358D01*
X127920548Y-86316666D01*
X127949049Y-86272319D01*
X127960641Y-86260727D01*
X128042712Y-86178656D01*
X128134814Y-86029334D01*
X128189999Y-85862797D01*
X128200500Y-85760009D01*
X128200499Y-85134992D01*
X128189999Y-85032203D01*
X128134814Y-84865666D01*
X128042712Y-84716344D01*
X127918656Y-84592288D01*
X127769334Y-84500186D01*
X127685495Y-84472404D01*
X127665463Y-84458534D01*
X127643297Y-84448412D01*
X127637248Y-84438999D01*
X127628051Y-84432632D01*
X127618697Y-84410133D01*
X127605523Y-84389634D01*
X127603064Y-84372532D01*
X127601228Y-84368116D01*
X127600500Y-84354699D01*
X127600500Y-84127538D01*
X127620185Y-84060499D01*
X127672989Y-84014744D01*
X127685486Y-84009835D01*
X127772925Y-83980862D01*
X127921003Y-83889526D01*
X128044026Y-83766503D01*
X128135362Y-83618425D01*
X128190087Y-83453275D01*
X128200500Y-83351348D01*
X128200500Y-82764652D01*
X128190087Y-82662725D01*
X128135362Y-82497575D01*
X128135358Y-82497569D01*
X128135357Y-82497566D01*
X128044028Y-82349500D01*
X128044025Y-82349496D01*
X127921004Y-82226475D01*
X127921003Y-82226474D01*
X127920301Y-82226041D01*
X127919921Y-82225618D01*
X127915336Y-82221993D01*
X127915955Y-82221209D01*
X127873575Y-82174098D01*
X127862349Y-82105136D01*
X127890188Y-82041052D01*
X127915455Y-82019157D01*
X127915336Y-82019007D01*
X127918687Y-82016356D01*
X127920299Y-82014959D01*
X127921003Y-82014526D01*
X128044026Y-81891503D01*
X128055379Y-81873095D01*
X128074312Y-81842403D01*
X128126260Y-81795678D01*
X128179850Y-81783500D01*
X128452234Y-81783500D01*
X128519273Y-81803185D01*
X128521125Y-81804398D01*
X128652814Y-81892390D01*
X128652827Y-81892397D01*
X128798498Y-81952735D01*
X128798503Y-81952737D01*
X128953153Y-81983499D01*
X128953156Y-81983500D01*
X128953158Y-81983500D01*
X129110844Y-81983500D01*
X129110845Y-81983499D01*
X129265497Y-81952737D01*
X129411179Y-81892394D01*
X129485996Y-81842403D01*
X129542875Y-81804398D01*
X129609553Y-81783520D01*
X129611766Y-81783500D01*
X129884150Y-81783500D01*
X129951189Y-81803185D01*
X129989688Y-81842403D01*
X130019971Y-81891499D01*
X130019974Y-81891503D01*
X130142996Y-82014525D01*
X130143000Y-82014528D01*
X130143703Y-82014962D01*
X130144083Y-82015385D01*
X130148664Y-82019007D01*
X130148045Y-82019789D01*
X130190428Y-82066910D01*
X130201649Y-82135872D01*
X130173806Y-82199954D01*
X130148544Y-82221842D01*
X130148664Y-82221993D01*
X130145315Y-82224640D01*
X130143703Y-82226038D01*
X130143000Y-82226471D01*
X130142996Y-82226474D01*
X130019974Y-82349496D01*
X130019971Y-82349500D01*
X129928642Y-82497566D01*
X129928637Y-82497577D01*
X129873913Y-82662723D01*
X129863500Y-82764644D01*
X129863500Y-83351355D01*
X129873913Y-83453276D01*
X129928637Y-83618422D01*
X129928642Y-83618433D01*
X130019971Y-83766499D01*
X130019974Y-83766503D01*
X130142996Y-83889525D01*
X130143000Y-83889528D01*
X130291066Y-83980857D01*
X130291069Y-83980858D01*
X130291075Y-83980862D01*
X130378504Y-84009833D01*
X130398535Y-84023701D01*
X130420703Y-84033825D01*
X130426751Y-84043236D01*
X130435948Y-84049604D01*
X130445302Y-84072102D01*
X130458477Y-84092603D01*
X130460935Y-84109703D01*
X130462772Y-84114120D01*
X130463500Y-84127538D01*
X130463500Y-84354699D01*
X130443815Y-84421738D01*
X130391011Y-84467493D01*
X130378507Y-84472403D01*
X130345962Y-84483188D01*
X130294668Y-84500185D01*
X130294663Y-84500187D01*
X130145342Y-84592289D01*
X130021289Y-84716342D01*
X129929187Y-84865663D01*
X129929186Y-84865666D01*
X129874001Y-85032203D01*
X129874001Y-85032204D01*
X129874000Y-85032204D01*
X129863500Y-85134983D01*
X129863500Y-85760001D01*
X129863501Y-85760019D01*
X129874000Y-85862796D01*
X129874001Y-85862799D01*
X129927916Y-86025500D01*
X129929186Y-86029334D01*
X129987849Y-86124443D01*
X130021289Y-86178657D01*
X130114951Y-86272319D01*
X130148436Y-86333642D01*
X130143452Y-86403334D01*
X130114951Y-86447681D01*
X130021289Y-86541342D01*
X129929187Y-86690663D01*
X129929185Y-86690668D01*
X129911335Y-86744536D01*
X129874001Y-86857203D01*
X129874001Y-86857204D01*
X129874000Y-86857204D01*
X129863500Y-86959983D01*
X129863500Y-87585001D01*
X129863501Y-87585019D01*
X129874000Y-87687796D01*
X129874001Y-87687799D01*
X129929185Y-87854331D01*
X129929187Y-87854336D01*
X129953786Y-87894217D01*
X130021288Y-88003656D01*
X130145344Y-88127712D01*
X130294666Y-88219814D01*
X130378505Y-88247595D01*
X130435948Y-88287366D01*
X130462772Y-88351882D01*
X130463500Y-88365300D01*
X130463500Y-88623513D01*
X130443815Y-88690552D01*
X130427181Y-88711194D01*
X130375767Y-88762607D01*
X130375766Y-88762608D01*
X130292469Y-88900397D01*
X130244569Y-89054116D01*
X130238500Y-89120911D01*
X130238500Y-90123098D01*
X130244568Y-90189882D01*
X130244571Y-90189893D01*
X130292467Y-90343598D01*
X130375766Y-90481391D01*
X130413194Y-90518819D01*
X130446679Y-90580142D01*
X130441695Y-90649834D01*
X130399823Y-90705767D01*
X130334359Y-90730184D01*
X130325513Y-90730500D01*
X128973669Y-90730500D01*
X128973653Y-90730499D01*
X128966057Y-90730499D01*
X128807943Y-90730499D01*
X128700587Y-90759265D01*
X128655210Y-90771424D01*
X128655209Y-90771425D01*
X128613008Y-90795791D01*
X128613006Y-90795792D01*
X128518290Y-90850475D01*
X128518282Y-90850481D01*
X128406480Y-90962283D01*
X128406480Y-90962284D01*
X128406478Y-90962286D01*
X128313582Y-91055182D01*
X128252258Y-91088666D01*
X128225901Y-91091500D01*
X127799901Y-91091500D01*
X127733117Y-91097568D01*
X127733106Y-91097571D01*
X127579401Y-91145467D01*
X127441608Y-91228766D01*
X127327766Y-91342608D01*
X127244469Y-91480397D01*
X127196569Y-91634116D01*
X127190500Y-91700911D01*
X127190500Y-92703098D01*
X127196568Y-92769882D01*
X127196571Y-92769893D01*
X127244467Y-92923598D01*
X127327766Y-93061391D01*
X127412598Y-93146223D01*
X127446083Y-93207546D01*
X127441099Y-93277238D01*
X127399227Y-93333171D01*
X127363928Y-93351607D01*
X127359177Y-93353181D01*
X127359163Y-93353187D01*
X127209842Y-93445289D01*
X127116181Y-93538951D01*
X127113402Y-93540468D01*
X127111749Y-93543170D01*
X127082935Y-93557104D01*
X127054858Y-93572436D01*
X127051700Y-93572210D01*
X127048849Y-93573589D01*
X127017080Y-93569734D01*
X126985166Y-93567452D01*
X126981688Y-93565439D01*
X126979488Y-93565173D01*
X126969386Y-93558323D01*
X126949384Y-93546751D01*
X126944920Y-93543052D01*
X126847156Y-93445288D01*
X126768048Y-93396494D01*
X126761384Y-93390972D01*
X126746492Y-93368887D01*
X126728678Y-93349081D01*
X126726411Y-93339105D01*
X126722322Y-93333041D01*
X126722030Y-93319828D01*
X126716500Y-93295491D01*
X126716500Y-93200486D01*
X126736185Y-93133447D01*
X126752820Y-93112804D01*
X126804233Y-93061391D01*
X126804236Y-93061388D01*
X126887531Y-92923602D01*
X126935430Y-92769887D01*
X126941500Y-92703091D01*
X126941499Y-91700910D01*
X126941499Y-91700909D01*
X126941499Y-91700901D01*
X126935431Y-91634117D01*
X126935428Y-91634106D01*
X126887532Y-91480401D01*
X126887531Y-91480400D01*
X126887531Y-91480398D01*
X126804236Y-91342612D01*
X126804234Y-91342610D01*
X126804233Y-91342608D01*
X126690391Y-91228766D01*
X126589136Y-91167555D01*
X126552602Y-91145469D01*
X126398887Y-91097570D01*
X126398885Y-91097569D01*
X126398883Y-91097569D01*
X126352117Y-91093319D01*
X126332091Y-91091500D01*
X126332088Y-91091500D01*
X125899901Y-91091500D01*
X125833117Y-91097568D01*
X125833106Y-91097571D01*
X125679401Y-91145467D01*
X125541608Y-91228766D01*
X125427766Y-91342608D01*
X125344469Y-91480397D01*
X125296569Y-91634116D01*
X125290500Y-91700911D01*
X125290500Y-92703098D01*
X125296568Y-92769882D01*
X125296571Y-92769893D01*
X125344467Y-92923598D01*
X125427766Y-93061391D01*
X125427767Y-93061392D01*
X125479180Y-93112804D01*
X125493884Y-93139732D01*
X125510477Y-93165551D01*
X125511368Y-93171750D01*
X125512666Y-93174127D01*
X125515500Y-93200486D01*
X125515500Y-93295491D01*
X125495815Y-93362530D01*
X125456598Y-93401029D01*
X125384844Y-93445287D01*
X125260789Y-93569342D01*
X125168687Y-93718663D01*
X125168686Y-93718666D01*
X125113501Y-93885203D01*
X125113501Y-93885204D01*
X125113500Y-93885204D01*
X125103000Y-93987983D01*
X123032500Y-93987983D01*
X123032500Y-78604155D01*
X135556000Y-78604155D01*
X135556000Y-79252000D01*
X136472988Y-79252000D01*
X136440075Y-79309007D01*
X136406000Y-79436174D01*
X136406000Y-79567826D01*
X136440075Y-79694993D01*
X136472988Y-79752000D01*
X135556000Y-79752000D01*
X135556000Y-80399844D01*
X135562401Y-80459372D01*
X135562403Y-80459379D01*
X135612645Y-80594086D01*
X135612649Y-80594093D01*
X135698809Y-80709187D01*
X135698812Y-80709190D01*
X135813906Y-80795350D01*
X135813913Y-80795354D01*
X135948620Y-80845596D01*
X135948627Y-80845598D01*
X136008155Y-80851999D01*
X136008172Y-80852000D01*
X136656000Y-80852000D01*
X136656000Y-79935012D01*
X136713007Y-79967925D01*
X136840174Y-80002000D01*
X136971826Y-80002000D01*
X137098993Y-79967925D01*
X137156000Y-79935012D01*
X137156000Y-80852000D01*
X137803828Y-80852000D01*
X137803844Y-80851999D01*
X137863372Y-80845598D01*
X137863379Y-80845596D01*
X137998086Y-80795354D01*
X137998089Y-80795352D01*
X138101271Y-80718110D01*
X138166735Y-80693692D01*
X138235008Y-80708543D01*
X138249888Y-80718105D01*
X138353076Y-80795352D01*
X138353668Y-80795795D01*
X138353671Y-80795797D01*
X138488517Y-80846091D01*
X138488516Y-80846091D01*
X138495444Y-80846835D01*
X138548127Y-80852500D01*
X140343872Y-80852499D01*
X140403483Y-80846091D01*
X140538331Y-80795796D01*
X140641690Y-80718421D01*
X140707152Y-80694004D01*
X140775425Y-80708855D01*
X140790303Y-80718416D01*
X140893076Y-80795352D01*
X140893668Y-80795795D01*
X140893671Y-80795797D01*
X141028517Y-80846091D01*
X141028516Y-80846091D01*
X141035444Y-80846835D01*
X141088127Y-80852500D01*
X142883872Y-80852499D01*
X142943483Y-80846091D01*
X143078331Y-80795796D01*
X143181690Y-80718421D01*
X143247152Y-80694004D01*
X143315425Y-80708855D01*
X143330303Y-80718416D01*
X143433076Y-80795352D01*
X143433668Y-80795795D01*
X143433671Y-80795797D01*
X143568517Y-80846091D01*
X143568516Y-80846091D01*
X143575444Y-80846835D01*
X143628127Y-80852500D01*
X145423872Y-80852499D01*
X145483483Y-80846091D01*
X145618331Y-80795796D01*
X145721690Y-80718421D01*
X145787152Y-80694004D01*
X145855425Y-80708855D01*
X145870303Y-80718416D01*
X145973076Y-80795352D01*
X145973668Y-80795795D01*
X145973671Y-80795797D01*
X146108517Y-80846091D01*
X146108516Y-80846091D01*
X146115444Y-80846835D01*
X146168127Y-80852500D01*
X147963872Y-80852499D01*
X148023483Y-80846091D01*
X148158331Y-80795796D01*
X148261690Y-80718421D01*
X148327152Y-80694004D01*
X148395425Y-80708855D01*
X148410303Y-80718416D01*
X148513076Y-80795352D01*
X148513668Y-80795795D01*
X148513671Y-80795797D01*
X148648517Y-80846091D01*
X148648516Y-80846091D01*
X148655444Y-80846835D01*
X148708127Y-80852500D01*
X150503872Y-80852499D01*
X150563483Y-80846091D01*
X150698331Y-80795796D01*
X150801690Y-80718421D01*
X150867152Y-80694004D01*
X150935425Y-80708855D01*
X150950303Y-80718416D01*
X151053076Y-80795352D01*
X151053668Y-80795795D01*
X151053671Y-80795797D01*
X151188517Y-80846091D01*
X151188516Y-80846091D01*
X151195444Y-80846835D01*
X151248127Y-80852500D01*
X153043872Y-80852499D01*
X153103483Y-80846091D01*
X153238331Y-80795796D01*
X153341690Y-80718421D01*
X153407152Y-80694004D01*
X153475425Y-80708855D01*
X153490303Y-80718416D01*
X153593076Y-80795352D01*
X153593668Y-80795795D01*
X153593671Y-80795797D01*
X153728517Y-80846091D01*
X153728516Y-80846091D01*
X153735444Y-80846835D01*
X153788127Y-80852500D01*
X155583872Y-80852499D01*
X155643483Y-80846091D01*
X155778331Y-80795796D01*
X155881690Y-80718421D01*
X155947152Y-80694004D01*
X156015425Y-80708855D01*
X156030303Y-80718416D01*
X156133076Y-80795352D01*
X156133668Y-80795795D01*
X156133671Y-80795797D01*
X156268517Y-80846091D01*
X156268516Y-80846091D01*
X156275444Y-80846835D01*
X156328127Y-80852500D01*
X158123872Y-80852499D01*
X158183483Y-80846091D01*
X158318331Y-80795796D01*
X158421690Y-80718421D01*
X158487152Y-80694004D01*
X158555425Y-80708855D01*
X158570303Y-80718416D01*
X158673076Y-80795352D01*
X158673668Y-80795795D01*
X158673671Y-80795797D01*
X158808517Y-80846091D01*
X158808516Y-80846091D01*
X158815444Y-80846835D01*
X158868127Y-80852500D01*
X160663872Y-80852499D01*
X160723483Y-80846091D01*
X160858331Y-80795796D01*
X160961690Y-80718421D01*
X161027152Y-80694004D01*
X161095425Y-80708855D01*
X161110303Y-80718416D01*
X161213076Y-80795352D01*
X161213668Y-80795795D01*
X161213671Y-80795797D01*
X161348517Y-80846091D01*
X161348516Y-80846091D01*
X161355444Y-80846835D01*
X161408127Y-80852500D01*
X163203872Y-80852499D01*
X163263483Y-80846091D01*
X163398331Y-80795796D01*
X163501690Y-80718421D01*
X163567152Y-80694004D01*
X163635425Y-80708855D01*
X163650303Y-80718416D01*
X163753076Y-80795352D01*
X163753668Y-80795795D01*
X163753671Y-80795797D01*
X163888517Y-80846091D01*
X163888516Y-80846091D01*
X163895444Y-80846835D01*
X163948127Y-80852500D01*
X165743872Y-80852499D01*
X165803483Y-80846091D01*
X165938331Y-80795796D01*
X166053546Y-80709546D01*
X166139796Y-80594331D01*
X166190091Y-80459483D01*
X166196500Y-80399873D01*
X166196499Y-78604128D01*
X166190091Y-78544517D01*
X166139884Y-78409906D01*
X166139797Y-78409671D01*
X166139793Y-78409664D01*
X166053547Y-78294455D01*
X166053544Y-78294452D01*
X165938335Y-78208206D01*
X165938328Y-78208202D01*
X165803482Y-78157908D01*
X165803483Y-78157908D01*
X165743883Y-78151501D01*
X165743881Y-78151500D01*
X165743873Y-78151500D01*
X165743864Y-78151500D01*
X163948129Y-78151500D01*
X163948123Y-78151501D01*
X163888516Y-78157908D01*
X163753671Y-78208202D01*
X163753669Y-78208203D01*
X163650311Y-78285578D01*
X163584847Y-78309995D01*
X163516574Y-78295144D01*
X163501689Y-78285578D01*
X163398330Y-78208203D01*
X163398328Y-78208202D01*
X163263482Y-78157908D01*
X163263483Y-78157908D01*
X163203883Y-78151501D01*
X163203881Y-78151500D01*
X163203873Y-78151500D01*
X163203864Y-78151500D01*
X161408129Y-78151500D01*
X161408123Y-78151501D01*
X161348516Y-78157908D01*
X161213671Y-78208202D01*
X161213669Y-78208203D01*
X161110311Y-78285578D01*
X161044847Y-78309995D01*
X160976574Y-78295144D01*
X160961689Y-78285578D01*
X160858330Y-78208203D01*
X160858328Y-78208202D01*
X160723482Y-78157908D01*
X160723483Y-78157908D01*
X160663883Y-78151501D01*
X160663881Y-78151500D01*
X160663873Y-78151500D01*
X160663864Y-78151500D01*
X158868129Y-78151500D01*
X158868123Y-78151501D01*
X158808516Y-78157908D01*
X158673671Y-78208202D01*
X158673669Y-78208203D01*
X158570311Y-78285578D01*
X158504847Y-78309995D01*
X158436574Y-78295144D01*
X158421689Y-78285578D01*
X158318330Y-78208203D01*
X158318328Y-78208202D01*
X158183482Y-78157908D01*
X158183483Y-78157908D01*
X158123883Y-78151501D01*
X158123881Y-78151500D01*
X158123873Y-78151500D01*
X158123864Y-78151500D01*
X156328129Y-78151500D01*
X156328123Y-78151501D01*
X156268516Y-78157908D01*
X156133671Y-78208202D01*
X156133669Y-78208203D01*
X156030311Y-78285578D01*
X155964847Y-78309995D01*
X155896574Y-78295144D01*
X155881689Y-78285578D01*
X155778330Y-78208203D01*
X155778328Y-78208202D01*
X155643482Y-78157908D01*
X155643483Y-78157908D01*
X155583883Y-78151501D01*
X155583881Y-78151500D01*
X155583873Y-78151500D01*
X155583864Y-78151500D01*
X153788129Y-78151500D01*
X153788123Y-78151501D01*
X153728516Y-78157908D01*
X153593671Y-78208202D01*
X153593669Y-78208203D01*
X153490311Y-78285578D01*
X153424847Y-78309995D01*
X153356574Y-78295144D01*
X153341689Y-78285578D01*
X153238330Y-78208203D01*
X153238328Y-78208202D01*
X153103482Y-78157908D01*
X153103483Y-78157908D01*
X153043883Y-78151501D01*
X153043881Y-78151500D01*
X153043873Y-78151500D01*
X153043864Y-78151500D01*
X151248129Y-78151500D01*
X151248123Y-78151501D01*
X151188516Y-78157908D01*
X151053671Y-78208202D01*
X151053669Y-78208203D01*
X150950311Y-78285578D01*
X150884847Y-78309995D01*
X150816574Y-78295144D01*
X150801689Y-78285578D01*
X150698330Y-78208203D01*
X150698328Y-78208202D01*
X150563482Y-78157908D01*
X150563483Y-78157908D01*
X150503883Y-78151501D01*
X150503881Y-78151500D01*
X150503873Y-78151500D01*
X150503864Y-78151500D01*
X148708129Y-78151500D01*
X148708123Y-78151501D01*
X148648516Y-78157908D01*
X148513671Y-78208202D01*
X148513669Y-78208203D01*
X148410311Y-78285578D01*
X148344847Y-78309995D01*
X148276574Y-78295144D01*
X148261689Y-78285578D01*
X148158330Y-78208203D01*
X148158328Y-78208202D01*
X148023482Y-78157908D01*
X148023483Y-78157908D01*
X147963883Y-78151501D01*
X147963881Y-78151500D01*
X147963873Y-78151500D01*
X147963864Y-78151500D01*
X146168129Y-78151500D01*
X146168123Y-78151501D01*
X146108516Y-78157908D01*
X145973671Y-78208202D01*
X145973669Y-78208203D01*
X145870311Y-78285578D01*
X145804847Y-78309995D01*
X145736574Y-78295144D01*
X145721689Y-78285578D01*
X145618330Y-78208203D01*
X145618328Y-78208202D01*
X145483482Y-78157908D01*
X145483483Y-78157908D01*
X145423883Y-78151501D01*
X145423881Y-78151500D01*
X145423873Y-78151500D01*
X145423864Y-78151500D01*
X143628129Y-78151500D01*
X143628123Y-78151501D01*
X143568516Y-78157908D01*
X143433671Y-78208202D01*
X143433669Y-78208203D01*
X143330311Y-78285578D01*
X143264847Y-78309995D01*
X143196574Y-78295144D01*
X143181689Y-78285578D01*
X143078330Y-78208203D01*
X143078328Y-78208202D01*
X142943482Y-78157908D01*
X142943483Y-78157908D01*
X142883883Y-78151501D01*
X142883881Y-78151500D01*
X142883873Y-78151500D01*
X142883864Y-78151500D01*
X141088129Y-78151500D01*
X141088123Y-78151501D01*
X141028516Y-78157908D01*
X140893671Y-78208202D01*
X140893669Y-78208203D01*
X140790311Y-78285578D01*
X140724847Y-78309995D01*
X140656574Y-78295144D01*
X140641689Y-78285578D01*
X140538330Y-78208203D01*
X140538328Y-78208202D01*
X140403482Y-78157908D01*
X140403483Y-78157908D01*
X140343883Y-78151501D01*
X140343881Y-78151500D01*
X140343873Y-78151500D01*
X140343864Y-78151500D01*
X138548129Y-78151500D01*
X138548123Y-78151501D01*
X138488516Y-78157908D01*
X138353671Y-78208202D01*
X138353669Y-78208204D01*
X138249894Y-78285890D01*
X138184430Y-78310307D01*
X138116157Y-78295456D01*
X138101272Y-78285890D01*
X137998088Y-78208646D01*
X137998086Y-78208645D01*
X137863379Y-78158403D01*
X137863372Y-78158401D01*
X137803844Y-78152000D01*
X137156000Y-78152000D01*
X137156000Y-79068988D01*
X137098993Y-79036075D01*
X136971826Y-79002000D01*
X136840174Y-79002000D01*
X136713007Y-79036075D01*
X136656000Y-79068988D01*
X136656000Y-78152000D01*
X136008155Y-78152000D01*
X135948627Y-78158401D01*
X135948620Y-78158403D01*
X135813913Y-78208645D01*
X135813906Y-78208649D01*
X135698812Y-78294809D01*
X135698809Y-78294812D01*
X135612649Y-78409906D01*
X135612645Y-78409913D01*
X135562403Y-78544620D01*
X135562401Y-78544627D01*
X135556000Y-78604155D01*
X123032500Y-78604155D01*
X123032500Y-70854242D01*
X124694000Y-70854242D01*
X124694000Y-71159759D01*
X124728202Y-71463320D01*
X124728205Y-71463338D01*
X124796184Y-71761174D01*
X124796189Y-71761190D01*
X124897085Y-72049532D01*
X124897091Y-72049546D01*
X125029639Y-72324785D01*
X125192173Y-72583457D01*
X125321639Y-72745804D01*
X125877000Y-72190442D01*
X125938323Y-72156957D01*
X126008014Y-72161941D01*
X126054445Y-72193974D01*
X126054986Y-72193434D01*
X126227564Y-72366012D01*
X126226904Y-72366671D01*
X126262055Y-72422085D01*
X126261641Y-72491954D01*
X126230554Y-72543996D01*
X125675191Y-73099358D01*
X125837534Y-73228820D01*
X126096212Y-73391358D01*
X126371451Y-73523906D01*
X126371465Y-73523912D01*
X126659807Y-73624808D01*
X126659823Y-73624813D01*
X126957659Y-73692792D01*
X126957677Y-73692795D01*
X127261238Y-73726997D01*
X127261242Y-73726998D01*
X127566752Y-73726998D01*
X127566755Y-73726997D01*
X127870316Y-73692795D01*
X127870334Y-73692792D01*
X128168170Y-73624813D01*
X128168186Y-73624808D01*
X128456528Y-73523912D01*
X128456542Y-73523906D01*
X128731781Y-73391358D01*
X128990459Y-73228820D01*
X129152801Y-73099358D01*
X129152801Y-73099357D01*
X129107122Y-73053678D01*
X137684702Y-73053678D01*
X137684702Y-73250321D01*
X137715464Y-73444546D01*
X137776228Y-73631562D01*
X137776229Y-73631565D01*
X137865504Y-73806775D01*
X137890824Y-73841623D01*
X137890824Y-73841624D01*
X138454876Y-73277572D01*
X138472456Y-73343179D01*
X138537663Y-73456121D01*
X138629881Y-73548339D01*
X138742823Y-73613546D01*
X138808429Y-73631125D01*
X138244377Y-74195176D01*
X138244377Y-74195177D01*
X138279225Y-74220496D01*
X138454436Y-74309772D01*
X138454439Y-74309773D01*
X138641455Y-74370537D01*
X138835681Y-74401300D01*
X139032323Y-74401300D01*
X139226548Y-74370537D01*
X139413564Y-74309773D01*
X139413577Y-74309767D01*
X139588771Y-74220500D01*
X139588776Y-74220497D01*
X139623626Y-74195176D01*
X139059575Y-73631125D01*
X139125181Y-73613546D01*
X139238123Y-73548339D01*
X139330341Y-73456121D01*
X139395548Y-73343179D01*
X139413127Y-73277572D01*
X139977234Y-73841679D01*
X140045403Y-73856001D01*
X140087071Y-73892368D01*
X140140706Y-73966190D01*
X140279810Y-74105294D01*
X140438962Y-74220925D01*
X140521774Y-74263120D01*
X140614238Y-74310233D01*
X140614240Y-74310233D01*
X140614243Y-74310235D01*
X140714530Y-74342820D01*
X140801337Y-74371026D01*
X140995634Y-74401800D01*
X140995639Y-74401800D01*
X141192366Y-74401800D01*
X141386662Y-74371026D01*
X141388167Y-74370537D01*
X141573757Y-74310235D01*
X141749038Y-74220925D01*
X141908190Y-74105294D01*
X142047294Y-73966190D01*
X142073683Y-73929868D01*
X142129010Y-73887203D01*
X142198624Y-73881223D01*
X142260419Y-73913829D01*
X142274314Y-73929864D01*
X142300707Y-73966190D01*
X142439811Y-74105294D01*
X142598963Y-74220925D01*
X142681775Y-74263120D01*
X142774239Y-74310233D01*
X142774241Y-74310233D01*
X142774244Y-74310235D01*
X142874531Y-74342820D01*
X142961338Y-74371026D01*
X143155635Y-74401800D01*
X143155640Y-74401800D01*
X143352367Y-74401800D01*
X143546663Y-74371026D01*
X143548168Y-74370537D01*
X143733758Y-74310235D01*
X143909039Y-74220925D01*
X144068191Y-74105294D01*
X144207295Y-73966190D01*
X144233684Y-73929868D01*
X144289011Y-73887203D01*
X144358625Y-73881223D01*
X144420420Y-73913829D01*
X144434315Y-73929864D01*
X144460708Y-73966190D01*
X144599812Y-74105294D01*
X144758964Y-74220925D01*
X144841776Y-74263120D01*
X144934240Y-74310233D01*
X144934242Y-74310233D01*
X144934245Y-74310235D01*
X145034532Y-74342820D01*
X145121339Y-74371026D01*
X145315636Y-74401800D01*
X145315641Y-74401800D01*
X145512368Y-74401800D01*
X145706664Y-74371026D01*
X145708169Y-74370537D01*
X145893759Y-74310235D01*
X146069040Y-74220925D01*
X146228192Y-74105294D01*
X146367296Y-73966190D01*
X146393683Y-73929870D01*
X146449012Y-73887205D01*
X146518626Y-73881226D01*
X146580421Y-73913831D01*
X146594316Y-73929868D01*
X146620706Y-73966190D01*
X146759810Y-74105294D01*
X146918962Y-74220925D01*
X147001774Y-74263120D01*
X147094238Y-74310233D01*
X147094240Y-74310233D01*
X147094243Y-74310235D01*
X147194530Y-74342820D01*
X147281337Y-74371026D01*
X147475634Y-74401800D01*
X147475639Y-74401800D01*
X147672366Y-74401800D01*
X147866662Y-74371026D01*
X147868167Y-74370537D01*
X148053757Y-74310235D01*
X148229038Y-74220925D01*
X148388190Y-74105294D01*
X148527294Y-73966190D01*
X148553683Y-73929868D01*
X148609010Y-73887203D01*
X148678624Y-73881223D01*
X148740419Y-73913829D01*
X148754314Y-73929864D01*
X148780707Y-73966190D01*
X148919811Y-74105294D01*
X149078963Y-74220925D01*
X149161775Y-74263120D01*
X149254239Y-74310233D01*
X149254241Y-74310233D01*
X149254244Y-74310235D01*
X149354531Y-74342820D01*
X149441338Y-74371026D01*
X149635635Y-74401800D01*
X149635640Y-74401800D01*
X149832367Y-74401800D01*
X150026663Y-74371026D01*
X150028168Y-74370537D01*
X150213758Y-74310235D01*
X150389039Y-74220925D01*
X150548191Y-74105294D01*
X150687295Y-73966190D01*
X150713683Y-73929869D01*
X150769013Y-73887204D01*
X150838626Y-73881225D01*
X150900421Y-73913831D01*
X150914317Y-73929868D01*
X150940707Y-73966190D01*
X151079811Y-74105294D01*
X151238963Y-74220925D01*
X151321775Y-74263120D01*
X151414239Y-74310233D01*
X151414241Y-74310233D01*
X151414244Y-74310235D01*
X151514531Y-74342820D01*
X151601338Y-74371026D01*
X151795635Y-74401800D01*
X151795640Y-74401800D01*
X151992367Y-74401800D01*
X152186663Y-74371026D01*
X152188168Y-74370537D01*
X152373758Y-74310235D01*
X152549039Y-74220925D01*
X152708191Y-74105294D01*
X152847295Y-73966190D01*
X152873684Y-73929868D01*
X152929011Y-73887203D01*
X152998625Y-73881223D01*
X153060420Y-73913829D01*
X153074315Y-73929864D01*
X153100708Y-73966190D01*
X153239812Y-74105294D01*
X153398964Y-74220925D01*
X153481776Y-74263120D01*
X153574240Y-74310233D01*
X153574242Y-74310233D01*
X153574245Y-74310235D01*
X153674532Y-74342820D01*
X153761339Y-74371026D01*
X153955636Y-74401800D01*
X153955641Y-74401800D01*
X154152368Y-74401800D01*
X154346664Y-74371026D01*
X154348169Y-74370537D01*
X154533759Y-74310235D01*
X154709040Y-74220925D01*
X154868192Y-74105294D01*
X155007296Y-73966190D01*
X155033683Y-73929870D01*
X155089012Y-73887205D01*
X155158626Y-73881226D01*
X155220421Y-73913831D01*
X155234316Y-73929868D01*
X155260706Y-73966190D01*
X155399810Y-74105294D01*
X155558962Y-74220925D01*
X155641774Y-74263120D01*
X155734238Y-74310233D01*
X155734240Y-74310233D01*
X155734243Y-74310235D01*
X155834530Y-74342820D01*
X155921337Y-74371026D01*
X156115634Y-74401800D01*
X156115639Y-74401800D01*
X156312366Y-74401800D01*
X156506662Y-74371026D01*
X156508167Y-74370537D01*
X156693757Y-74310235D01*
X156869038Y-74220925D01*
X157028190Y-74105294D01*
X157167294Y-73966190D01*
X157193683Y-73929868D01*
X157249010Y-73887203D01*
X157318624Y-73881223D01*
X157380419Y-73913829D01*
X157394314Y-73929864D01*
X157420707Y-73966190D01*
X157559811Y-74105294D01*
X157718963Y-74220925D01*
X157801775Y-74263120D01*
X157894239Y-74310233D01*
X157894241Y-74310233D01*
X157894244Y-74310235D01*
X157994531Y-74342820D01*
X158081338Y-74371026D01*
X158275635Y-74401800D01*
X158275640Y-74401800D01*
X158472367Y-74401800D01*
X158666663Y-74371026D01*
X158668168Y-74370537D01*
X158853758Y-74310235D01*
X159029039Y-74220925D01*
X159188191Y-74105294D01*
X159327295Y-73966190D01*
X159353684Y-73929868D01*
X159409011Y-73887203D01*
X159478625Y-73881223D01*
X159540420Y-73913829D01*
X159554315Y-73929864D01*
X159580708Y-73966190D01*
X159719812Y-74105294D01*
X159878964Y-74220925D01*
X159961776Y-74263120D01*
X160054240Y-74310233D01*
X160054242Y-74310233D01*
X160054245Y-74310235D01*
X160154532Y-74342820D01*
X160241339Y-74371026D01*
X160435636Y-74401800D01*
X160435641Y-74401800D01*
X160632368Y-74401800D01*
X160826664Y-74371026D01*
X160828169Y-74370537D01*
X161013759Y-74310235D01*
X161189040Y-74220925D01*
X161348192Y-74105294D01*
X161487296Y-73966190D01*
X161513683Y-73929870D01*
X161569012Y-73887205D01*
X161638626Y-73881226D01*
X161700421Y-73913831D01*
X161714316Y-73929868D01*
X161740706Y-73966190D01*
X161879810Y-74105294D01*
X162038962Y-74220925D01*
X162121774Y-74263120D01*
X162214238Y-74310233D01*
X162214240Y-74310233D01*
X162214243Y-74310235D01*
X162314530Y-74342820D01*
X162401337Y-74371026D01*
X162595634Y-74401800D01*
X162595639Y-74401800D01*
X162792366Y-74401800D01*
X162986662Y-74371026D01*
X162988167Y-74370537D01*
X163173757Y-74310235D01*
X163349038Y-74220925D01*
X163508190Y-74105294D01*
X163647294Y-73966190D01*
X163762925Y-73807038D01*
X163852235Y-73631757D01*
X163913026Y-73444662D01*
X163913044Y-73444546D01*
X163943800Y-73250366D01*
X163943800Y-73053633D01*
X163913026Y-72859337D01*
X163852233Y-72672238D01*
X163774000Y-72518698D01*
X163762925Y-72496962D01*
X163647294Y-72337810D01*
X163508190Y-72198706D01*
X163349038Y-72083075D01*
X163283234Y-72049546D01*
X163173761Y-71993766D01*
X162986662Y-71932973D01*
X162792366Y-71902200D01*
X162792361Y-71902200D01*
X162595639Y-71902200D01*
X162595634Y-71902200D01*
X162401337Y-71932973D01*
X162214238Y-71993766D01*
X162038961Y-72083075D01*
X161948159Y-72149047D01*
X161879810Y-72198706D01*
X161879808Y-72198708D01*
X161879807Y-72198708D01*
X161740707Y-72337808D01*
X161714319Y-72374129D01*
X161658988Y-72416794D01*
X161589375Y-72422773D01*
X161527580Y-72390167D01*
X161513683Y-72374129D01*
X161487296Y-72337810D01*
X161348192Y-72198706D01*
X161189040Y-72083075D01*
X161123236Y-72049546D01*
X161013763Y-71993766D01*
X160826664Y-71932973D01*
X160632368Y-71902200D01*
X160632363Y-71902200D01*
X160435641Y-71902200D01*
X160435636Y-71902200D01*
X160241339Y-71932973D01*
X160054240Y-71993766D01*
X159878963Y-72083075D01*
X159788161Y-72149047D01*
X159719812Y-72198706D01*
X159719810Y-72198708D01*
X159719809Y-72198708D01*
X159580707Y-72337810D01*
X159554318Y-72374132D01*
X159498987Y-72416797D01*
X159429374Y-72422775D01*
X159367579Y-72390168D01*
X159353683Y-72374130D01*
X159327297Y-72337813D01*
X159327292Y-72337807D01*
X159188193Y-72198708D01*
X159188191Y-72198706D01*
X159029039Y-72083075D01*
X158963235Y-72049546D01*
X158853762Y-71993766D01*
X158666663Y-71932973D01*
X158472367Y-71902200D01*
X158472362Y-71902200D01*
X158275640Y-71902200D01*
X158275635Y-71902200D01*
X158081338Y-71932973D01*
X157894239Y-71993766D01*
X157718962Y-72083075D01*
X157628160Y-72149047D01*
X157559811Y-72198706D01*
X157559809Y-72198708D01*
X157559808Y-72198708D01*
X157420706Y-72337810D01*
X157394317Y-72374132D01*
X157338986Y-72416797D01*
X157269373Y-72422775D01*
X157207578Y-72390168D01*
X157193682Y-72374130D01*
X157167296Y-72337813D01*
X157167291Y-72337807D01*
X157028192Y-72198708D01*
X157028190Y-72198706D01*
X156869038Y-72083075D01*
X156803234Y-72049546D01*
X156693761Y-71993766D01*
X156506662Y-71932973D01*
X156312366Y-71902200D01*
X156312361Y-71902200D01*
X156115639Y-71902200D01*
X156115634Y-71902200D01*
X155921337Y-71932973D01*
X155734238Y-71993766D01*
X155558961Y-72083075D01*
X155468159Y-72149047D01*
X155399810Y-72198706D01*
X155399808Y-72198708D01*
X155399807Y-72198708D01*
X155260707Y-72337808D01*
X155234319Y-72374129D01*
X155178988Y-72416794D01*
X155109375Y-72422773D01*
X155047580Y-72390167D01*
X155033683Y-72374129D01*
X155007296Y-72337810D01*
X154868192Y-72198706D01*
X154709040Y-72083075D01*
X154643236Y-72049546D01*
X154533763Y-71993766D01*
X154346664Y-71932973D01*
X154152368Y-71902200D01*
X154152363Y-71902200D01*
X153955641Y-71902200D01*
X153955636Y-71902200D01*
X153761339Y-71932973D01*
X153574240Y-71993766D01*
X153398963Y-72083075D01*
X153308161Y-72149047D01*
X153239812Y-72198706D01*
X153239810Y-72198708D01*
X153239809Y-72198708D01*
X153100707Y-72337810D01*
X153074318Y-72374132D01*
X153018987Y-72416797D01*
X152949374Y-72422775D01*
X152887579Y-72390168D01*
X152873683Y-72374130D01*
X152847297Y-72337813D01*
X152847292Y-72337807D01*
X152708193Y-72198708D01*
X152708191Y-72198706D01*
X152549039Y-72083075D01*
X152483235Y-72049546D01*
X152373762Y-71993766D01*
X152186663Y-71932973D01*
X151992367Y-71902200D01*
X151992362Y-71902200D01*
X151795640Y-71902200D01*
X151795635Y-71902200D01*
X151601338Y-71932973D01*
X151414239Y-71993766D01*
X151238962Y-72083075D01*
X151148160Y-72149047D01*
X151079811Y-72198706D01*
X151079809Y-72198708D01*
X151079808Y-72198708D01*
X150940709Y-72337807D01*
X150940702Y-72337816D01*
X150914318Y-72374130D01*
X150858988Y-72416796D01*
X150789374Y-72422774D01*
X150727580Y-72390167D01*
X150713684Y-72374130D01*
X150687299Y-72337816D01*
X150687297Y-72337813D01*
X150687295Y-72337810D01*
X150548191Y-72198706D01*
X150389039Y-72083075D01*
X150323235Y-72049546D01*
X150213762Y-71993766D01*
X150026663Y-71932973D01*
X149832367Y-71902200D01*
X149832362Y-71902200D01*
X149635640Y-71902200D01*
X149635635Y-71902200D01*
X149441338Y-71932973D01*
X149254239Y-71993766D01*
X149078962Y-72083075D01*
X148988160Y-72149047D01*
X148919811Y-72198706D01*
X148919809Y-72198708D01*
X148919808Y-72198708D01*
X148780706Y-72337810D01*
X148754317Y-72374132D01*
X148698986Y-72416797D01*
X148629373Y-72422775D01*
X148567578Y-72390168D01*
X148553682Y-72374130D01*
X148527296Y-72337813D01*
X148527291Y-72337807D01*
X148388192Y-72198708D01*
X148388190Y-72198706D01*
X148229038Y-72083075D01*
X148163234Y-72049546D01*
X148053761Y-71993766D01*
X147866662Y-71932973D01*
X147672366Y-71902200D01*
X147672361Y-71902200D01*
X147475639Y-71902200D01*
X147475634Y-71902200D01*
X147281337Y-71932973D01*
X147094238Y-71993766D01*
X146918961Y-72083075D01*
X146828159Y-72149047D01*
X146759810Y-72198706D01*
X146759808Y-72198708D01*
X146759807Y-72198708D01*
X146620707Y-72337808D01*
X146594319Y-72374129D01*
X146538988Y-72416794D01*
X146469375Y-72422773D01*
X146407580Y-72390167D01*
X146393683Y-72374129D01*
X146367296Y-72337810D01*
X146228192Y-72198706D01*
X146069040Y-72083075D01*
X146003236Y-72049546D01*
X145893763Y-71993766D01*
X145706664Y-71932973D01*
X145512368Y-71902200D01*
X145512363Y-71902200D01*
X145315641Y-71902200D01*
X145315636Y-71902200D01*
X145121339Y-71932973D01*
X144934240Y-71993766D01*
X144758963Y-72083075D01*
X144668161Y-72149047D01*
X144599812Y-72198706D01*
X144599810Y-72198708D01*
X144599809Y-72198708D01*
X144460707Y-72337810D01*
X144434318Y-72374132D01*
X144378987Y-72416797D01*
X144309374Y-72422775D01*
X144247579Y-72390168D01*
X144233683Y-72374130D01*
X144207297Y-72337813D01*
X144207292Y-72337807D01*
X144068193Y-72198708D01*
X144068191Y-72198706D01*
X143909039Y-72083075D01*
X143843235Y-72049546D01*
X143733762Y-71993766D01*
X143546663Y-71932973D01*
X143352367Y-71902200D01*
X143352362Y-71902200D01*
X143155640Y-71902200D01*
X143155635Y-71902200D01*
X142961338Y-71932973D01*
X142774239Y-71993766D01*
X142598962Y-72083075D01*
X142508160Y-72149047D01*
X142439811Y-72198706D01*
X142439809Y-72198708D01*
X142439808Y-72198708D01*
X142300706Y-72337810D01*
X142274317Y-72374132D01*
X142218986Y-72416797D01*
X142149373Y-72422775D01*
X142087578Y-72390168D01*
X142073682Y-72374130D01*
X142047296Y-72337813D01*
X142047291Y-72337807D01*
X141908192Y-72198708D01*
X141908190Y-72198706D01*
X141749038Y-72083075D01*
X141683234Y-72049546D01*
X141573761Y-71993766D01*
X141386662Y-71932973D01*
X141192366Y-71902200D01*
X141192361Y-71902200D01*
X140995639Y-71902200D01*
X140995634Y-71902200D01*
X140801337Y-71932973D01*
X140614238Y-71993766D01*
X140438961Y-72083075D01*
X140348159Y-72149047D01*
X140279810Y-72198706D01*
X140279808Y-72198708D01*
X140279807Y-72198708D01*
X140140705Y-72337810D01*
X140087070Y-72411632D01*
X140031740Y-72454297D01*
X139977219Y-72462334D01*
X139413126Y-73026426D01*
X139395548Y-72960821D01*
X139330341Y-72847879D01*
X139238123Y-72755661D01*
X139125181Y-72690454D01*
X139059574Y-72672874D01*
X139623626Y-72108822D01*
X139588777Y-72083502D01*
X139413567Y-71994227D01*
X139413564Y-71994226D01*
X139226548Y-71933462D01*
X139032323Y-71902700D01*
X138835681Y-71902700D01*
X138641455Y-71933462D01*
X138454439Y-71994226D01*
X138454436Y-71994227D01*
X138279222Y-72083505D01*
X138244377Y-72108821D01*
X138244377Y-72108823D01*
X138808430Y-72672874D01*
X138742823Y-72690454D01*
X138629881Y-72755661D01*
X138537663Y-72847879D01*
X138472456Y-72960821D01*
X138454876Y-73026427D01*
X137890825Y-72462375D01*
X137890823Y-72462375D01*
X137865507Y-72497220D01*
X137776229Y-72672434D01*
X137776228Y-72672437D01*
X137715464Y-72859453D01*
X137684702Y-73053678D01*
X129107122Y-73053678D01*
X128597438Y-72543996D01*
X128563953Y-72482673D01*
X128568937Y-72412982D01*
X128600977Y-72366559D01*
X128600430Y-72366012D01*
X128773008Y-72193434D01*
X128773673Y-72194099D01*
X128829042Y-72158953D01*
X128898910Y-72159343D01*
X128950992Y-72190442D01*
X129506353Y-72745805D01*
X129506354Y-72745805D01*
X129635816Y-72583463D01*
X129798354Y-72324785D01*
X129905506Y-72102283D01*
X129905507Y-72102281D01*
X129930905Y-72049539D01*
X129930908Y-72049532D01*
X130031804Y-71761190D01*
X130031809Y-71761174D01*
X130099788Y-71463338D01*
X130099791Y-71463320D01*
X130133993Y-71159759D01*
X130133994Y-71159755D01*
X130133994Y-70854246D01*
X130133993Y-70854242D01*
X171494008Y-70854242D01*
X171494008Y-71159759D01*
X171528210Y-71463320D01*
X171528213Y-71463338D01*
X171596192Y-71761174D01*
X171596197Y-71761190D01*
X171697093Y-72049532D01*
X171697099Y-72049546D01*
X171829647Y-72324785D01*
X171992181Y-72583457D01*
X172121647Y-72745804D01*
X172677008Y-72190442D01*
X172738331Y-72156957D01*
X172808022Y-72161941D01*
X172854453Y-72193974D01*
X172854994Y-72193434D01*
X173027572Y-72366012D01*
X173026912Y-72366671D01*
X173062063Y-72422085D01*
X173061649Y-72491954D01*
X173030562Y-72543996D01*
X172475199Y-73099358D01*
X172637542Y-73228820D01*
X172896220Y-73391358D01*
X173171459Y-73523906D01*
X173171473Y-73523912D01*
X173459815Y-73624808D01*
X173459831Y-73624813D01*
X173757667Y-73692792D01*
X173757685Y-73692795D01*
X174061246Y-73726997D01*
X174061250Y-73726998D01*
X174366760Y-73726998D01*
X174366763Y-73726997D01*
X174670324Y-73692795D01*
X174670342Y-73692792D01*
X174968178Y-73624813D01*
X174968194Y-73624808D01*
X175256536Y-73523912D01*
X175256550Y-73523906D01*
X175531789Y-73391358D01*
X175790467Y-73228820D01*
X175952809Y-73099358D01*
X175952809Y-73099357D01*
X175397446Y-72543996D01*
X175363961Y-72482673D01*
X175368945Y-72412982D01*
X175400985Y-72366559D01*
X175400438Y-72366012D01*
X175573016Y-72193434D01*
X175573681Y-72194099D01*
X175629050Y-72158953D01*
X175698918Y-72159343D01*
X175751000Y-72190442D01*
X176306361Y-72745805D01*
X176306362Y-72745805D01*
X176435824Y-72583463D01*
X176598362Y-72324785D01*
X176730910Y-72049546D01*
X176730916Y-72049532D01*
X176831812Y-71761190D01*
X176831817Y-71761174D01*
X176899796Y-71463338D01*
X176899799Y-71463320D01*
X176934001Y-71159759D01*
X176934002Y-71159755D01*
X176934002Y-70854246D01*
X176934001Y-70854242D01*
X176899799Y-70550681D01*
X176899796Y-70550663D01*
X176831817Y-70252827D01*
X176831812Y-70252811D01*
X176730916Y-69964469D01*
X176730910Y-69964455D01*
X176598362Y-69689216D01*
X176435824Y-69430538D01*
X176306362Y-69268195D01*
X175751000Y-69823558D01*
X175689677Y-69857043D01*
X175619985Y-69852059D01*
X175573557Y-69820026D01*
X175573016Y-69820568D01*
X175400438Y-69647990D01*
X175401096Y-69647331D01*
X175365944Y-69591909D01*
X175366360Y-69522041D01*
X175397446Y-69470004D01*
X175952808Y-68914643D01*
X175790461Y-68785177D01*
X175531789Y-68622643D01*
X175256550Y-68490095D01*
X175256536Y-68490089D01*
X174968194Y-68389193D01*
X174968178Y-68389188D01*
X174670342Y-68321209D01*
X174670324Y-68321206D01*
X174366763Y-68287004D01*
X174061246Y-68287004D01*
X173757685Y-68321206D01*
X173757667Y-68321209D01*
X173459831Y-68389188D01*
X173459815Y-68389193D01*
X173171473Y-68490089D01*
X173171459Y-68490095D01*
X172896220Y-68622643D01*
X172637538Y-68785183D01*
X172637534Y-68785186D01*
X172475199Y-68914642D01*
X173030563Y-69470005D01*
X173064048Y-69531328D01*
X173059064Y-69601019D01*
X173027031Y-69647449D01*
X173027572Y-69647990D01*
X172854994Y-69820568D01*
X172854335Y-69819909D01*
X172798917Y-69855061D01*
X172729049Y-69854645D01*
X172677009Y-69823559D01*
X172121646Y-69268195D01*
X171992190Y-69430530D01*
X171992187Y-69430534D01*
X171829647Y-69689216D01*
X171697099Y-69964455D01*
X171697093Y-69964469D01*
X171596197Y-70252811D01*
X171596192Y-70252827D01*
X171528213Y-70550663D01*
X171528210Y-70550681D01*
X171494008Y-70854242D01*
X130133993Y-70854242D01*
X130099791Y-70550681D01*
X130099788Y-70550663D01*
X130031809Y-70252827D01*
X130031804Y-70252811D01*
X129930908Y-69964469D01*
X129930902Y-69964455D01*
X129798354Y-69689216D01*
X129635816Y-69430538D01*
X129506354Y-69268195D01*
X128950992Y-69823558D01*
X128889669Y-69857043D01*
X128819977Y-69852059D01*
X128773549Y-69820026D01*
X128773008Y-69820568D01*
X128600430Y-69647990D01*
X128601088Y-69647331D01*
X128565936Y-69591909D01*
X128566352Y-69522041D01*
X128597438Y-69470004D01*
X129152800Y-68914643D01*
X129078907Y-68855716D01*
X129078905Y-68855713D01*
X128990459Y-68785181D01*
X128956167Y-68763634D01*
X137684202Y-68763634D01*
X137684202Y-68960367D01*
X137714975Y-69154663D01*
X137775768Y-69341762D01*
X137841112Y-69470005D01*
X137865077Y-69517039D01*
X137980708Y-69676191D01*
X138119812Y-69815295D01*
X138278964Y-69930926D01*
X138344796Y-69964469D01*
X138454240Y-70020234D01*
X138454242Y-70020234D01*
X138454245Y-70020236D01*
X138554532Y-70052821D01*
X138641339Y-70081027D01*
X138835636Y-70111801D01*
X138835641Y-70111801D01*
X139032368Y-70111801D01*
X139226664Y-70081027D01*
X139413759Y-70020236D01*
X139589040Y-69930926D01*
X139748192Y-69815295D01*
X139887296Y-69676191D01*
X139913683Y-69639871D01*
X139969012Y-69597206D01*
X140038626Y-69591227D01*
X140100421Y-69623832D01*
X140114316Y-69639869D01*
X140140706Y-69676191D01*
X140279810Y-69815295D01*
X140438962Y-69930926D01*
X140504794Y-69964469D01*
X140614238Y-70020234D01*
X140614240Y-70020234D01*
X140614243Y-70020236D01*
X140714530Y-70052821D01*
X140801337Y-70081027D01*
X140995634Y-70111801D01*
X140995639Y-70111801D01*
X141192366Y-70111801D01*
X141386662Y-70081027D01*
X141573757Y-70020236D01*
X141749038Y-69930926D01*
X141908190Y-69815295D01*
X142047294Y-69676191D01*
X142073683Y-69639869D01*
X142129010Y-69597204D01*
X142198624Y-69591224D01*
X142260419Y-69623830D01*
X142274314Y-69639865D01*
X142300707Y-69676191D01*
X142439811Y-69815295D01*
X142598963Y-69930926D01*
X142664795Y-69964469D01*
X142774239Y-70020234D01*
X142774241Y-70020234D01*
X142774244Y-70020236D01*
X142874531Y-70052821D01*
X142961338Y-70081027D01*
X143155635Y-70111801D01*
X143155640Y-70111801D01*
X143352367Y-70111801D01*
X143546663Y-70081027D01*
X143733758Y-70020236D01*
X143909039Y-69930926D01*
X144068191Y-69815295D01*
X144207295Y-69676191D01*
X144233684Y-69639869D01*
X144289011Y-69597204D01*
X144358625Y-69591224D01*
X144420420Y-69623830D01*
X144434315Y-69639865D01*
X144460708Y-69676191D01*
X144599812Y-69815295D01*
X144758964Y-69930926D01*
X144824796Y-69964469D01*
X144934240Y-70020234D01*
X144934242Y-70020234D01*
X144934245Y-70020236D01*
X145034532Y-70052821D01*
X145121339Y-70081027D01*
X145315636Y-70111801D01*
X145315641Y-70111801D01*
X145512368Y-70111801D01*
X145706664Y-70081027D01*
X145893759Y-70020236D01*
X146069040Y-69930926D01*
X146228192Y-69815295D01*
X146367296Y-69676191D01*
X146393683Y-69639871D01*
X146449012Y-69597206D01*
X146518626Y-69591227D01*
X146580421Y-69623832D01*
X146594316Y-69639869D01*
X146620706Y-69676191D01*
X146759810Y-69815295D01*
X146918962Y-69930926D01*
X146984794Y-69964469D01*
X147094238Y-70020234D01*
X147094240Y-70020234D01*
X147094243Y-70020236D01*
X147194530Y-70052821D01*
X147281337Y-70081027D01*
X147475634Y-70111801D01*
X147475639Y-70111801D01*
X147672366Y-70111801D01*
X147866662Y-70081027D01*
X148053757Y-70020236D01*
X148229038Y-69930926D01*
X148388190Y-69815295D01*
X148527294Y-69676191D01*
X148553683Y-69639869D01*
X148609010Y-69597204D01*
X148678624Y-69591224D01*
X148740419Y-69623830D01*
X148754314Y-69639865D01*
X148780707Y-69676191D01*
X148919811Y-69815295D01*
X149078963Y-69930926D01*
X149144795Y-69964469D01*
X149254239Y-70020234D01*
X149254241Y-70020234D01*
X149254244Y-70020236D01*
X149354531Y-70052821D01*
X149441338Y-70081027D01*
X149635635Y-70111801D01*
X149635640Y-70111801D01*
X149832367Y-70111801D01*
X150026663Y-70081027D01*
X150213758Y-70020236D01*
X150389039Y-69930926D01*
X150548191Y-69815295D01*
X150687295Y-69676191D01*
X150713683Y-69639870D01*
X150769013Y-69597205D01*
X150838626Y-69591226D01*
X150900421Y-69623832D01*
X150914317Y-69639869D01*
X150940707Y-69676191D01*
X151079811Y-69815295D01*
X151238963Y-69930926D01*
X151304795Y-69964469D01*
X151414239Y-70020234D01*
X151414241Y-70020234D01*
X151414244Y-70020236D01*
X151514531Y-70052821D01*
X151601338Y-70081027D01*
X151795635Y-70111801D01*
X151795640Y-70111801D01*
X151992367Y-70111801D01*
X152186663Y-70081027D01*
X152373758Y-70020236D01*
X152549039Y-69930926D01*
X152708191Y-69815295D01*
X152847295Y-69676191D01*
X152873684Y-69639869D01*
X152929011Y-69597204D01*
X152998625Y-69591224D01*
X153060420Y-69623830D01*
X153074315Y-69639865D01*
X153100708Y-69676191D01*
X153239812Y-69815295D01*
X153398964Y-69930926D01*
X153464796Y-69964469D01*
X153574240Y-70020234D01*
X153574242Y-70020234D01*
X153574245Y-70020236D01*
X153674532Y-70052821D01*
X153761339Y-70081027D01*
X153955636Y-70111801D01*
X153955641Y-70111801D01*
X154152368Y-70111801D01*
X154346664Y-70081027D01*
X154533759Y-70020236D01*
X154709040Y-69930926D01*
X154868192Y-69815295D01*
X155007296Y-69676191D01*
X155033683Y-69639871D01*
X155089012Y-69597206D01*
X155158626Y-69591227D01*
X155220421Y-69623832D01*
X155234316Y-69639869D01*
X155260706Y-69676191D01*
X155399810Y-69815295D01*
X155558962Y-69930926D01*
X155624794Y-69964469D01*
X155734238Y-70020234D01*
X155734240Y-70020234D01*
X155734243Y-70020236D01*
X155834530Y-70052821D01*
X155921337Y-70081027D01*
X156115634Y-70111801D01*
X156115639Y-70111801D01*
X156312366Y-70111801D01*
X156506662Y-70081027D01*
X156693757Y-70020236D01*
X156869038Y-69930926D01*
X157028190Y-69815295D01*
X157167294Y-69676191D01*
X157193683Y-69639869D01*
X157249010Y-69597204D01*
X157318624Y-69591224D01*
X157380419Y-69623830D01*
X157394314Y-69639865D01*
X157420707Y-69676191D01*
X157559811Y-69815295D01*
X157718963Y-69930926D01*
X157784795Y-69964469D01*
X157894239Y-70020234D01*
X157894241Y-70020234D01*
X157894244Y-70020236D01*
X157994531Y-70052821D01*
X158081338Y-70081027D01*
X158275635Y-70111801D01*
X158275640Y-70111801D01*
X158472367Y-70111801D01*
X158666663Y-70081027D01*
X158853758Y-70020236D01*
X159029039Y-69930926D01*
X159188191Y-69815295D01*
X159327295Y-69676191D01*
X159353684Y-69639869D01*
X159409011Y-69597204D01*
X159478625Y-69591224D01*
X159540420Y-69623830D01*
X159554315Y-69639865D01*
X159580708Y-69676191D01*
X159719812Y-69815295D01*
X159878964Y-69930926D01*
X159944796Y-69964469D01*
X160054240Y-70020234D01*
X160054242Y-70020234D01*
X160054245Y-70020236D01*
X160154532Y-70052821D01*
X160241339Y-70081027D01*
X160435636Y-70111801D01*
X160435641Y-70111801D01*
X160632368Y-70111801D01*
X160826664Y-70081027D01*
X161013759Y-70020236D01*
X161189040Y-69930926D01*
X161348192Y-69815295D01*
X161487296Y-69676191D01*
X161513683Y-69639871D01*
X161569012Y-69597206D01*
X161638626Y-69591227D01*
X161700421Y-69623832D01*
X161714316Y-69639869D01*
X161740706Y-69676191D01*
X161879810Y-69815295D01*
X162038962Y-69930926D01*
X162104794Y-69964469D01*
X162214238Y-70020234D01*
X162214240Y-70020234D01*
X162214243Y-70020236D01*
X162314530Y-70052821D01*
X162401337Y-70081027D01*
X162595634Y-70111801D01*
X162595639Y-70111801D01*
X162792366Y-70111801D01*
X162986662Y-70081027D01*
X163173757Y-70020236D01*
X163349038Y-69930926D01*
X163508190Y-69815295D01*
X163647294Y-69676191D01*
X163762925Y-69517039D01*
X163852235Y-69341758D01*
X163913026Y-69154663D01*
X163943800Y-68960367D01*
X163943800Y-68763634D01*
X163913026Y-68569338D01*
X163852233Y-68382239D01*
X163774000Y-68228699D01*
X163762925Y-68206963D01*
X163647294Y-68047811D01*
X163508190Y-67908707D01*
X163349038Y-67793076D01*
X163173761Y-67703767D01*
X162986662Y-67642974D01*
X162792366Y-67612201D01*
X162792361Y-67612201D01*
X162595639Y-67612201D01*
X162595634Y-67612201D01*
X162401337Y-67642974D01*
X162214238Y-67703767D01*
X162038961Y-67793076D01*
X161948159Y-67859048D01*
X161879810Y-67908707D01*
X161879808Y-67908709D01*
X161879807Y-67908709D01*
X161740707Y-68047809D01*
X161714319Y-68084130D01*
X161658988Y-68126795D01*
X161589375Y-68132774D01*
X161527580Y-68100168D01*
X161513683Y-68084130D01*
X161487298Y-68047814D01*
X161487296Y-68047811D01*
X161348192Y-67908707D01*
X161189040Y-67793076D01*
X161013763Y-67703767D01*
X160826664Y-67642974D01*
X160632368Y-67612201D01*
X160632363Y-67612201D01*
X160435641Y-67612201D01*
X160435636Y-67612201D01*
X160241339Y-67642974D01*
X160054240Y-67703767D01*
X159878963Y-67793076D01*
X159788161Y-67859048D01*
X159719812Y-67908707D01*
X159719810Y-67908709D01*
X159719809Y-67908709D01*
X159580707Y-68047811D01*
X159554318Y-68084133D01*
X159498987Y-68126798D01*
X159429374Y-68132776D01*
X159367579Y-68100169D01*
X159353683Y-68084131D01*
X159327297Y-68047814D01*
X159327292Y-68047808D01*
X159188193Y-67908709D01*
X159188191Y-67908707D01*
X159029039Y-67793076D01*
X158853762Y-67703767D01*
X158666663Y-67642974D01*
X158472367Y-67612201D01*
X158472362Y-67612201D01*
X158275640Y-67612201D01*
X158275635Y-67612201D01*
X158081338Y-67642974D01*
X157894239Y-67703767D01*
X157718962Y-67793076D01*
X157628160Y-67859048D01*
X157559811Y-67908707D01*
X157559809Y-67908709D01*
X157559808Y-67908709D01*
X157420706Y-68047811D01*
X157394317Y-68084133D01*
X157338986Y-68126798D01*
X157269373Y-68132776D01*
X157207578Y-68100169D01*
X157193682Y-68084131D01*
X157167296Y-68047814D01*
X157167291Y-68047808D01*
X157028192Y-67908709D01*
X157028190Y-67908707D01*
X156869038Y-67793076D01*
X156693761Y-67703767D01*
X156506662Y-67642974D01*
X156312366Y-67612201D01*
X156312361Y-67612201D01*
X156115639Y-67612201D01*
X156115634Y-67612201D01*
X155921337Y-67642974D01*
X155734238Y-67703767D01*
X155558961Y-67793076D01*
X155468159Y-67859048D01*
X155399810Y-67908707D01*
X155399808Y-67908709D01*
X155399807Y-67908709D01*
X155260707Y-68047809D01*
X155234319Y-68084130D01*
X155178988Y-68126795D01*
X155109375Y-68132774D01*
X155047580Y-68100168D01*
X155033683Y-68084130D01*
X155007298Y-68047814D01*
X155007296Y-68047811D01*
X154868192Y-67908707D01*
X154709040Y-67793076D01*
X154533763Y-67703767D01*
X154346664Y-67642974D01*
X154152368Y-67612201D01*
X154152363Y-67612201D01*
X153955641Y-67612201D01*
X153955636Y-67612201D01*
X153761339Y-67642974D01*
X153574240Y-67703767D01*
X153398963Y-67793076D01*
X153308161Y-67859048D01*
X153239812Y-67908707D01*
X153239810Y-67908709D01*
X153239809Y-67908709D01*
X153100707Y-68047811D01*
X153074318Y-68084133D01*
X153018987Y-68126798D01*
X152949374Y-68132776D01*
X152887579Y-68100169D01*
X152873683Y-68084131D01*
X152847297Y-68047814D01*
X152847292Y-68047808D01*
X152708193Y-67908709D01*
X152708191Y-67908707D01*
X152549039Y-67793076D01*
X152373762Y-67703767D01*
X152186663Y-67642974D01*
X151992367Y-67612201D01*
X151992362Y-67612201D01*
X151795640Y-67612201D01*
X151795635Y-67612201D01*
X151601338Y-67642974D01*
X151414239Y-67703767D01*
X151238962Y-67793076D01*
X151148160Y-67859048D01*
X151079811Y-67908707D01*
X151079809Y-67908709D01*
X151079808Y-67908709D01*
X150940709Y-68047808D01*
X150940702Y-68047817D01*
X150914318Y-68084131D01*
X150858988Y-68126797D01*
X150789374Y-68132775D01*
X150727580Y-68100168D01*
X150713684Y-68084131D01*
X150687299Y-68047817D01*
X150687297Y-68047814D01*
X150687295Y-68047811D01*
X150548191Y-67908707D01*
X150389039Y-67793076D01*
X150213762Y-67703767D01*
X150026663Y-67642974D01*
X149832367Y-67612201D01*
X149832362Y-67612201D01*
X149635640Y-67612201D01*
X149635635Y-67612201D01*
X149441338Y-67642974D01*
X149254239Y-67703767D01*
X149078962Y-67793076D01*
X148988160Y-67859048D01*
X148919811Y-67908707D01*
X148919809Y-67908709D01*
X148919808Y-67908709D01*
X148780706Y-68047811D01*
X148754317Y-68084133D01*
X148698986Y-68126798D01*
X148629373Y-68132776D01*
X148567578Y-68100169D01*
X148553682Y-68084131D01*
X148527296Y-68047814D01*
X148527291Y-68047808D01*
X148388192Y-67908709D01*
X148388190Y-67908707D01*
X148229038Y-67793076D01*
X148053761Y-67703767D01*
X147866662Y-67642974D01*
X147672366Y-67612201D01*
X147672361Y-67612201D01*
X147475639Y-67612201D01*
X147475634Y-67612201D01*
X147281337Y-67642974D01*
X147094238Y-67703767D01*
X146918961Y-67793076D01*
X146828159Y-67859048D01*
X146759810Y-67908707D01*
X146759808Y-67908709D01*
X146759807Y-67908709D01*
X146620707Y-68047809D01*
X146594319Y-68084130D01*
X146538988Y-68126795D01*
X146469375Y-68132774D01*
X146407580Y-68100168D01*
X146393683Y-68084130D01*
X146367298Y-68047814D01*
X146367296Y-68047811D01*
X146228192Y-67908707D01*
X146069040Y-67793076D01*
X145893763Y-67703767D01*
X145706664Y-67642974D01*
X145512368Y-67612201D01*
X145512363Y-67612201D01*
X145315641Y-67612201D01*
X145315636Y-67612201D01*
X145121339Y-67642974D01*
X144934240Y-67703767D01*
X144758963Y-67793076D01*
X144668161Y-67859048D01*
X144599812Y-67908707D01*
X144599810Y-67908709D01*
X144599809Y-67908709D01*
X144460707Y-68047811D01*
X144434318Y-68084133D01*
X144378987Y-68126798D01*
X144309374Y-68132776D01*
X144247579Y-68100169D01*
X144233683Y-68084131D01*
X144207297Y-68047814D01*
X144207292Y-68047808D01*
X144068193Y-67908709D01*
X144068191Y-67908707D01*
X143909039Y-67793076D01*
X143733762Y-67703767D01*
X143546663Y-67642974D01*
X143352367Y-67612201D01*
X143352362Y-67612201D01*
X143155640Y-67612201D01*
X143155635Y-67612201D01*
X142961338Y-67642974D01*
X142774239Y-67703767D01*
X142598962Y-67793076D01*
X142508160Y-67859048D01*
X142439811Y-67908707D01*
X142439809Y-67908709D01*
X142439808Y-67908709D01*
X142300706Y-68047811D01*
X142274317Y-68084133D01*
X142218986Y-68126798D01*
X142149373Y-68132776D01*
X142087578Y-68100169D01*
X142073682Y-68084131D01*
X142047296Y-68047814D01*
X142047291Y-68047808D01*
X141908192Y-67908709D01*
X141908190Y-67908707D01*
X141749038Y-67793076D01*
X141573761Y-67703767D01*
X141386662Y-67642974D01*
X141192366Y-67612201D01*
X141192361Y-67612201D01*
X140995639Y-67612201D01*
X140995634Y-67612201D01*
X140801337Y-67642974D01*
X140614238Y-67703767D01*
X140438961Y-67793076D01*
X140348159Y-67859048D01*
X140279810Y-67908707D01*
X140279808Y-67908709D01*
X140279807Y-67908709D01*
X140140707Y-68047809D01*
X140114319Y-68084130D01*
X140058988Y-68126795D01*
X139989375Y-68132774D01*
X139927580Y-68100168D01*
X139913683Y-68084130D01*
X139887298Y-68047814D01*
X139887296Y-68047811D01*
X139748192Y-67908707D01*
X139589040Y-67793076D01*
X139413763Y-67703767D01*
X139226664Y-67642974D01*
X139032368Y-67612201D01*
X139032363Y-67612201D01*
X138835641Y-67612201D01*
X138835636Y-67612201D01*
X138641339Y-67642974D01*
X138454240Y-67703767D01*
X138278963Y-67793076D01*
X138188161Y-67859048D01*
X138119812Y-67908707D01*
X138119810Y-67908709D01*
X138119809Y-67908709D01*
X137980710Y-68047808D01*
X137980710Y-68047809D01*
X137980708Y-68047811D01*
X137942668Y-68100168D01*
X137865077Y-68206962D01*
X137775768Y-68382239D01*
X137714975Y-68569338D01*
X137684202Y-68763634D01*
X128956167Y-68763634D01*
X128731781Y-68622643D01*
X128456542Y-68490095D01*
X128456528Y-68490089D01*
X128168186Y-68389193D01*
X128168170Y-68389188D01*
X127870334Y-68321209D01*
X127870316Y-68321206D01*
X127566755Y-68287004D01*
X127261238Y-68287004D01*
X126957677Y-68321206D01*
X126957659Y-68321209D01*
X126659823Y-68389188D01*
X126659807Y-68389193D01*
X126371465Y-68490089D01*
X126371451Y-68490095D01*
X126096212Y-68622643D01*
X125837530Y-68785183D01*
X125837526Y-68785186D01*
X125675191Y-68914642D01*
X126230555Y-69470005D01*
X126264040Y-69531328D01*
X126259056Y-69601019D01*
X126227023Y-69647449D01*
X126227564Y-69647990D01*
X126054986Y-69820568D01*
X126054327Y-69819909D01*
X125998909Y-69855061D01*
X125929041Y-69854645D01*
X125877001Y-69823559D01*
X125321638Y-69268195D01*
X125192182Y-69430530D01*
X125192179Y-69430534D01*
X125029639Y-69689216D01*
X124897091Y-69964455D01*
X124897085Y-69964469D01*
X124796189Y-70252811D01*
X124796184Y-70252827D01*
X124728205Y-70550663D01*
X124728202Y-70550681D01*
X124694000Y-70854242D01*
X123032500Y-70854242D01*
X123032500Y-60552500D01*
X123052185Y-60485461D01*
X123104989Y-60439706D01*
X123156500Y-60428500D01*
X178569500Y-60428500D01*
X178636539Y-60448185D01*
G37*
%TD.AperFunction*%
%TD*%
M02*
