M48
; DRILL file {KiCad 9.0.7} date 2026-03-21T16:16:05+0100
; FORMAT={-:-/ absolute / metric / decimal}
; #@! TF.CreationDate,2026-03-21T16:16:05+01:00
; #@! TF.GenerationSoftware,Kicad,Pcbnew,9.0.7
; #@! TF.FileFunction,Plated,1,2,PTH
FMAT,2
METRIC
; #@! TA.AperFunction,Plated,PTH,ViaDrill
T1C0.300
; #@! TA.AperFunction,Plated,PTH,ComponentDrill
T2C0.991
; #@! TA.AperFunction,Plated,PTH,ComponentDrill
T3C1.000
; #@! TA.AperFunction,Plated,PTH,ComponentDrill
T4C3.000
%
G90
G05
T1
X129.032Y-81.183
T2
X138.934Y-68.862
X138.934Y-73.152
X138.934Y-104.14
X138.934Y-108.43
X141.094Y-68.862
X141.094Y-73.152
X141.094Y-104.14
X141.094Y-108.43
X143.254Y-68.862
X143.254Y-73.152
X143.254Y-104.14
X143.254Y-108.43
X145.414Y-68.862
X145.414Y-73.152
X145.414Y-104.14
X145.414Y-108.43
X147.574Y-68.862
X147.574Y-73.152
X147.574Y-104.14
X147.574Y-108.43
X149.734Y-68.862
X149.734Y-73.152
X149.734Y-104.14
X149.734Y-108.43
X151.894Y-68.862
X151.894Y-73.152
X151.894Y-104.14
X151.894Y-108.43
X154.054Y-68.862
X154.054Y-73.152
X154.054Y-104.14
X154.054Y-108.43
X156.214Y-68.862
X156.214Y-73.152
X156.214Y-104.14
X156.214Y-108.43
X158.374Y-68.862
X158.374Y-73.152
X158.374Y-104.14
X158.374Y-108.43
X160.534Y-68.862
X160.534Y-73.152
X160.534Y-104.14
X160.534Y-108.43
X162.694Y-68.862
X162.694Y-73.152
X162.694Y-104.14
X162.694Y-108.43
T3
X127.762Y-98.552
X130.302Y-98.552
X136.906Y-79.502
X136.906Y-87.376
X136.906Y-89.916
X136.906Y-97.79
X139.446Y-79.502
X139.446Y-87.376
X139.446Y-89.916
X139.446Y-97.79
X141.986Y-79.502
X141.986Y-87.376
X141.986Y-89.916
X141.986Y-97.79
X144.526Y-79.502
X144.526Y-87.376
X144.526Y-89.916
X144.526Y-97.79
X147.066Y-79.502
X147.066Y-87.376
X147.066Y-89.916
X147.066Y-97.79
X149.606Y-79.502
X149.606Y-87.376
X149.606Y-89.916
X149.606Y-97.79
X152.146Y-79.502
X152.146Y-87.376
X152.146Y-89.916
X152.146Y-97.79
X154.686Y-79.502
X154.686Y-87.376
X154.686Y-89.916
X154.686Y-97.79
X157.226Y-79.502
X157.226Y-87.376
X157.226Y-89.916
X157.226Y-97.79
X159.766Y-79.502
X159.766Y-87.376
X159.766Y-89.916
X159.766Y-97.79
X162.306Y-79.502
X162.306Y-87.376
X162.306Y-89.916
X162.306Y-97.79
X164.846Y-79.502
X164.846Y-87.376
X164.846Y-89.916
X164.846Y-97.79
T4
X127.414Y-71.007
X127.414Y-106.285
X174.214Y-71.007
X174.214Y-106.285
M30
